# Made in Blockbench 5.1.6
mtllib bedroom.mtl

o cube
v -1.625 0.75 2.875
v -1.625 0.75 0.625
v -1.625 0.4375 2.875
v -1.625 0.4375 0.625
v -2.875 0.75 0.625
v -2.875 0.75 2.875
v -2.875 0.4375 0.625
v -2.875 0.4375 2.875
vt 0.4921875 0.6796875
vt 0.6484375 0.6796875
vt 0.6484375 0.640625
vt 0.4921875 0.640625
vt 0.4921875 0.8359375
vt 0.7734375 0.8359375
vt 0.7734375 0.796875
vt 0.4921875 0.796875
vt 0.4921875 0.6328125
vt 0.6484375 0.6328125
vt 0.6484375 0.59375
vt 0.4921875 0.59375
vt 0.4921875 0.7890625
vt 0.7734375 0.7890625
vt 0.7734375 0.75
vt 0.4921875 0.75
vt 0.15625 0.71875
vt 0 0.71875
vt 0 1
vt 0.15625 1
vt 0.3203125 1
vt 0.1640625 1
vt 0.1640625 0.71875
vt 0.3203125 0.71875
vn 0 0 -1
vn 1 0 0
vn 0 0 1
vn -1 0 0
vn 0 1 0
vn 0 -1 0
usemtl m_3a3f7f58-5664-43a9-d345-b8fc339f5846
f 4/4/1 7/3/1 5/2/1 2/1/1
f 3/8/2 4/7/2 2/6/2 1/5/2
f 8/12/3 3/11/3 1/10/3 6/9/3
f 7/16/4 8/15/4 6/14/4 5/13/4
f 6/20/5 1/19/5 2/18/5 5/17/5
f 7/24/6 4/23/6 3/22/6 8/21/6
o cube
v -2.25 0.7875000000000001 2.375
v -2.25 0.7875000000000001 2.875
v -2.25 0.75 2.85625
v -2.25 0.75 2.39375
v -1.8125 0.7875000000000001 2.875
v -1.8125 0.7875000000000001 2.375
v -1.85 0.75 2.85625
v -1.85 0.75 2.39375
v -2.03125 0.7875000000000001 2.375
v -2.03125 0.7875000000000001 2.875
v -2.03125 0.75 2.85625
v -2.03125 0.75 2.39375
v -2.6875 0.7875000000000001 2.875
v -2.6875 0.7875000000000001 2.375
v -2.65 0.75 2.85625
v -2.65 0.75 2.39375
v -2.46875 0.7875000000000001 2.375
v -2.46875 0.7875000000000001 2.875
v -2.46875 0.75 2.85625
v -2.46875 0.75 2.39375
vt 0.31796875 0.392578125
vt 0.3203125 0.3984375
vt 0.2578125 0.3984375
vt 0.26015625 0.392578125
vt 0.7109375 0.47594375
vt 0.68359375 0.47594375
vt 0.68359375 0.470703125
vt 0.70625 0.470703125
vt 0.68359375 0.47594375
vt 0.65625 0.47594375
vt 0.65625 0.470703125
vt 0.68359375 0.470703125
vt 0.42890625 0.47578125000000004
vt 0.40625 0.47578125000000004
vt 0.40625 0.41796875
vt 0.42890625 0.41796875
vt 0.40625 0.47578125000000004
vt 0.37890625 0.47578125000000004
vt 0.37890625 0.41796875
vt 0.40625 0.41796875
vt 0.60625 0.455078125
vt 0.62890625 0.455078125
vt 0.62890625 0.46031875
vt 0.6015625 0.46031875
vt 0.62890625 0.455078125
vt 0.65625 0.455078125
vt 0.65625 0.46031875
vt 0.62890625 0.46031875
vt 0.6640625 0.4453125
vt 0.6015625 0.4453125
vt 0.60390625 0.439453125
vt 0.66171875 0.439453125
vt 0.62890625 0.470703125
vt 0.62890625 0.47594375
vt 0.6015625 0.47594375
vt 0.60625 0.470703125
vt 0.65625 0.470703125
vt 0.65625 0.47594375
vt 0.62890625 0.47594375
vt 0.62890625 0.470703125
vt 0.3515625 0.41796875
vt 0.3515625 0.47578125000000004
vt 0.32890625 0.47578125000000004
vt 0.32890625 0.41796875
vt 0.37890625 0.41796875
vt 0.37890625 0.47578125000000004
vt 0.3515625 0.47578125000000004
vt 0.3515625 0.41796875
vt 0.68359375 0.46031875
vt 0.68359375 0.455078125
vt 0.70625 0.455078125
vt 0.7109375 0.46031875
vt 0.65625 0.46031875
vt 0.65625 0.455078125
vt 0.68359375 0.455078125
vt 0.68359375 0.46031875
vn 0.7071067811865478 -0.7071067811865474 0
vn 0 -0.44721359549995765 0.8944271909999161
vn 0 -0.44721359549995765 0.8944271909999161
vn 0 -1 0
vn 0 -1 0
vn 0 -0.44721359549995804 -0.8944271909999161
vn 0 -0.44721359549995804 -0.8944271909999161
vn -0.7071067811865478 -0.7071067811865474 0
vn 0 -0.44721359549995765 0.8944271909999161
vn 0 -0.44721359549995765 0.8944271909999161
vn 0 -1 0
vn 0 -1 0
vn 0 -0.44721359549995804 -0.8944271909999161
vn 0 -0.44721359549995804 -0.8944271909999161
usemtl m_3a3f7f58-5664-43a9-d345-b8fc339f5846
f 16/25/7 14/26/7 13/27/7 15/28/7
f 13/29/8 18/30/8 19/31/8 15/32/8
f 18/33/9 10/34/9 11/35/9 19/36/9
f 15/37/10 19/38/10 20/39/10 16/40/10
f 19/41/11 11/42/11 12/43/11 20/44/11
f 16/45/12 20/46/12 17/47/12 14/48/12
f 20/49/13 12/50/13 9/51/13 17/52/13
f 21/53/14 22/54/14 24/55/14 23/56/14
f 27/57/15 26/58/15 21/59/15 23/60/15
f 11/61/16 10/62/16 26/63/16 27/64/16
f 28/65/17 27/66/17 23/67/17 24/68/17
f 12/69/18 11/70/18 27/71/18 28/72/18
f 25/73/19 28/74/19 24/75/19 22/76/19
f 9/77/20 12/78/20 28/79/20 25/80/20
o cube
v -2.25 0.85 2.4375
v -2.25 0.85 2.8125
v -2.25 0.7875 2.875
v -2.25 0.7875 2.375
v -1.875 0.85 2.8125
v -1.875 0.85 2.4375
v -1.8125 0.7875 2.875
v -1.8125 0.7875 2.375
v -2.0625 0.85 2.4375
v -2.0625 0.85 2.8125
v -2.03125 0.7875 2.875
v -2.03125 0.7875 2.375
v -2.625 0.85 2.8125
v -2.625 0.85 2.4375
v -2.6875 0.7875 2.875
v -2.6875 0.7875 2.375
v -2.4375 0.85 2.4375
v -2.4375 0.85 2.8125
v -2.46875 0.7875 2.875
v -2.46875 0.7875 2.375
vt 0.1796875 0.38671875
vt 0.171875 0.3984375
vt 0.125 0.3984375
vt 0.1171875 0.38671875
vt 0.5859375 0.5859375
vt 0.5625 0.5859375
vt 0.5625 0.5390625
vt 0.5859375 0.5390625
vt 0.5625 0.5859375
vt 0.5390625 0.5859375
vt 0.5390625 0.5390625
vt 0.5625 0.5390625
vt 0.6953125 0.5625
vt 0.671875 0.5625
vt 0.67578125 0.5514515625
vt 0.703125 0.5514515625
vt 0.671875 0.5625
vt 0.6484375 0.5625
vt 0.6484375 0.5514515625
vt 0.67578125 0.5514515625
vt 0 0.38738906250000005
vt 0.02734375 0.38738906250000005
vt 0.03125 0.3984375
vt 0.0078125 0.3984375
vt 0.02734375 0.38738906250000005
vt 0.0546875 0.38738906250000005
vt 0.0546875 0.3984375
vt 0.03125 0.3984375
vt 0.2421875 0.3984375
vt 0.1953125 0.3984375
vt 0.1875 0.38671875
vt 0.25 0.38671875
vt 0.515625 0.5390625
vt 0.515625 0.5859375
vt 0.4921875 0.5859375
vt 0.4921875 0.5390625
vt 0.5390625 0.5390625
vt 0.5390625 0.5859375
vt 0.515625 0.5859375
vt 0.515625 0.5390625
vt 0.62109375 0.5514515625
vt 0.625 0.5625
vt 0.6015625 0.5625
vt 0.59375 0.5514515625
vt 0.6484375 0.5514515625
vt 0.6484375 0.5625
vt 0.625 0.5625
vt 0.62109375 0.5514515625
vt 0.078125 0.3984375
vt 0.08203125 0.38738906250000005
vt 0.109375 0.38738906250000005
vt 0.1015625 0.3984375
vt 0.0546875 0.3984375
vt 0.0546875 0.38738906250000005
vt 0.08203125 0.38738906250000005
vt 0.078125 0.3984375
vn 0.7071067811865476 0.7071067811865476 0
vn 0 1 0
vn 0 1 0
vn 0 0.7071067811865476 0.7071067811865476
vn 0 0.7071067811865476 0.7071067811865476
vn 0 0.7071067811865476 -0.7071067811865476
vn 0 0.7071067811865476 -0.7071067811865476
vn -0.7071067811865476 0.7071067811865476 0
vn 0 1 0
vn 0 1 0
vn 0 0.7071067811865476 0.7071067811865476
vn 0 0.7071067811865476 0.7071067811865476
vn 0 0.7071067811865476 -0.7071067811865476
vn 0 0.7071067811865476 -0.7071067811865476
usemtl m_3a3f7f58-5664-43a9-d345-b8fc339f5846
f 36/81/21 34/82/21 33/83/21 35/84/21
f 34/85/22 37/86/22 38/87/22 33/88/22
f 37/89/23 29/90/23 30/91/23 38/92/23
f 33/93/24 38/94/24 39/95/24 35/96/24
f 38/97/25 30/98/25 31/99/25 39/100/25
f 36/101/26 40/102/26 37/103/26 34/104/26
f 40/105/27 32/106/27 29/107/27 37/108/27
f 41/109/28 42/110/28 44/111/28 43/112/28
f 46/113/29 45/114/29 42/115/29 41/116/29
f 30/117/30 29/118/30 45/119/30 46/120/30
f 47/121/31 46/122/31 41/123/31 43/124/31
f 31/125/32 30/126/32 46/127/32 47/128/32
f 45/129/33 48/130/33 44/131/33 42/132/33
f 29/133/34 32/134/34 48/135/34 45/136/34
o cube
v -1.625 0.4375 2.875
v -1.625 0.4375 0.625
v -1.625 0.25 2.875
v -1.625 0.25 0.625
v -2.875 0.4375 0.625
v -2.875 0.4375 2.875
v -2.875 0.25 0.625
v -2.875 0.25 2.875
vt 0.4375 0.4765625
vt 0.59375 0.4765625
vt 0.59375 0.453125
vt 0.4375 0.453125
vt 0.4921875 0.7421875
vt 0.7734375 0.7421875
vt 0.7734375 0.71875
vt 0.4921875 0.71875
vt 0.4375 0.4453125
vt 0.59375 0.4453125
vt 0.59375 0.421875
vt 0.4375 0.421875
vt 0.4921875 0.7109375
vt 0.7734375 0.7109375
vt 0.7734375 0.6875
vt 0.4921875 0.6875
vt 0.15625 0.4296875
vt 0 0.4296875
vt 0 0.7109375
vt 0.15625 0.7109375
vt 0.3203125 0.7109375
vt 0.1640625 0.7109375
vt 0.1640625 0.4296875
vt 0.3203125 0.4296875
vn 0 0 -1
vn 1 0 0
vn 0 0 1
vn -1 0 0
vn 0 1 0
vn 0 -1 0
usemtl m_3a3f7f58-5664-43a9-d345-b8fc339f5846
f 52/140/35 55/139/35 53/138/35 50/137/35
f 51/144/36 52/143/36 50/142/36 49/141/36
f 56/148/37 51/147/37 49/146/37 54/145/37
f 55/152/38 56/151/38 54/150/38 53/149/38
f 54/156/39 49/155/39 50/154/39 53/153/39
f 55/160/40 52/159/40 51/158/40 56/157/40
o cube
v -1.625 1.1875 3
v -1.625 1.1875 2.875
v -1.625 0.125 3
v -1.625 0.125 2.875
v -2.875 1.1875 2.875
v -2.875 1.1875 3
v -2.875 0.125 2.875
v -2.875 0.125 3
vt 0.328125 1
vt 0.484375 1
vt 0.484375 0.8671875
vt 0.328125 0.8671875
vt 0.328125 0.40625
vt 0.34375 0.40625
vt 0.34375 0.2734375
vt 0.328125 0.2734375
vt 0.328125 0.859375
vt 0.484375 0.859375
vt 0.484375 0.7265625
vt 0.328125 0.7265625
vt 0.3515625 0.40625
vt 0.3671875 0.40625
vt 0.3671875 0.2734375
vt 0.3515625 0.2734375
vt 0.15625 0.40625
vt 0 0.40625
vt 0 0.421875
vt 0.15625 0.421875
vt 0.3203125 0.421875
vt 0.1640625 0.421875
vt 0.1640625 0.40625
vt 0.3203125 0.40625
vn 0 0 -1
vn 1 0 0
vn 0 0 1
vn -1 0 0
vn 0 1 0
vn 0 -1 0
usemtl m_3a3f7f58-5664-43a9-d345-b8fc339f5846
f 60/164/41 63/163/41 61/162/41 58/161/41
f 59/168/42 60/167/42 58/166/42 57/165/42
f 64/172/43 59/171/43 57/170/43 62/169/43
f 63/176/44 64/175/44 62/174/44 61/173/44
f 62/180/45 57/179/45 58/178/45 61/177/45
f 63/184/46 60/183/46 59/182/46 64/181/46
o cube
v -1.625 0.8125 0.625
v -1.625 0.8125 0.5
v -1.625 0.125 0.625
v -1.625 0.125 0.5
v -2.875 0.8125 0.5
v -2.875 0.8125 0.625
v -2.875 0.125 0.5
v -2.875 0.125 0.625
vt 0.328125 0.71875
vt 0.484375 0.71875
vt 0.484375 0.6328125
vt 0.328125 0.6328125
vt 0.375 0.40625
vt 0.390625 0.40625
vt 0.390625 0.3203125
vt 0.375 0.3203125
vt 0.328125 0.625
vt 0.484375 0.625
vt 0.484375 0.5390625
vt 0.328125 0.5390625
vt 0.3984375 0.40625
vt 0.4140625 0.40625
vt 0.4140625 0.3203125
vt 0.3984375 0.3203125
vt 0.59375 0.3984375
vt 0.4375 0.3984375
vt 0.4375 0.4140625
vt 0.59375 0.4140625
vt 0.75 0.5859375
vt 0.59375 0.5859375
vt 0.59375 0.5703125
vt 0.75 0.5703125
vn 0 0 -1
vn 1 0 0
vn 0 0 1
vn -1 0 0
vn 0 1 0
vn 0 -1 0
usemtl m_3a3f7f58-5664-43a9-d345-b8fc339f5846
f 68/188/47 71/187/47 69/186/47 66/185/47
f 67/192/48 68/191/48 66/190/48 65/189/48
f 72/196/49 67/195/49 65/194/49 70/193/49
f 71/200/50 72/199/50 70/198/50 69/197/50
f 70/204/51 65/203/51 66/202/51 69/201/51
f 71/208/52 68/207/52 67/206/52 72/205/52
o cube
v -1.625 0.625 2.875
v -1.625 0.625 0.625
v -1.625 0.25 2.875
v -1.625 0.25 0.625
v -1.625 0.625 0.625
v -1.625 0.625 2.875
v -1.625 0.25 0.625
v -1.625 0.25 2.875
vt 0.421875 0.40625
vt 0.421875 0.40625
vt 0.421875 0.359375
vt 0.421875 0.359375
vt 0.328125 0.53125
vt 0.609375 0.53125
vt 0.609375 0.484375
vt 0.328125 0.484375
vt 0.4296875 0.40625
vt 0.4296875 0.40625
vt 0.4296875 0.359375
vt 0.4296875 0.359375
vt 0.4921875 1
vt 0.7734375 1
vt 0.7734375 0.953125
vt 0.4921875 0.953125
vt 0.6015625 0.1484375
vt 0.6015625 0.1484375
vt 0.6015625 0.4296875
vt 0.6015625 0.4296875
vt 0.4375 0.390625
vt 0.4375 0.390625
vt 0.4375 0.109375
vt 0.4375 0.109375
vn 0 0 -1
vn 1 0 0
vn 0 0 1
vn -1 0 0
vn 0 1 0
vn 0 -1 0
usemtl m_3a3f7f58-5664-43a9-d345-b8fc339f5846
f 76/212/53 79/211/53 77/210/53 74/209/53
f 75/216/54 76/215/54 74/214/54 73/213/54
f 80/220/55 75/219/55 73/218/55 78/217/55
f 79/224/56 80/223/56 78/222/56 77/221/56
f 78/228/57 73/227/57 74/226/57 77/225/57
f 79/232/58 76/231/58 75/230/58 80/229/58
o cube
v -2.8749375 0.6250625 2.8750625000000003
v -2.8749375 0.6250625 0.6249374999999999
v -2.8749375 0.2499375 2.8750625000000003
v -2.8749375 0.2499375 0.6249374999999999
v -2.8750625 0.6250625 0.6249374999999999
v -2.8750625 0.6250625 2.8750625000000003
v -2.8750625 0.2499375 0.6249374999999999
v -2.8750625 0.2499375 2.8750625000000003
vt 0.4453125 0.390625
vt 0.4453125 0.390625
vt 0.4453125 0.34375
vt 0.4453125 0.34375
vt 0.4921875 0.9453125
vt 0.7734375 0.9453125
vt 0.7734375 0.8984375
vt 0.4921875 0.8984375
vt 0.453125 0.390625
vt 0.453125 0.390625
vt 0.453125 0.34375
vt 0.453125 0.34375
vt 0.4921875 0.890625
vt 0.7734375 0.890625
vt 0.7734375 0.84375
vt 0.4921875 0.84375
vt 0.4609375 0.109375
vt 0.4609375 0.109375
vt 0.4609375 0.390625
vt 0.4609375 0.390625
vt 0.46875 0.390625
vt 0.46875 0.390625
vt 0.46875 0.109375
vt 0.46875 0.109375
vn 0 0 -1
vn 1 0 0
vn 0 0 1
vn -1 0 0
vn 0 1 0
vn 0 -1 0
usemtl m_3a3f7f58-5664-43a9-d345-b8fc339f5846
f 84/236/59 87/235/59 85/234/59 82/233/59
f 83/240/60 84/239/60 82/238/60 81/237/60
f 88/244/61 83/243/61 81/242/61 86/241/61
f 87/248/62 88/247/62 86/246/62 85/245/62
f 86/252/63 81/251/63 82/250/63 85/249/63
f 87/256/64 84/255/64 83/254/64 88/253/64
o cube
v -1.7500625 0.6249375 0.3874375
v -1.7500625 0.6249375 0.3750625
v -1.7500625 0.5438125 0.3874375
v -1.7500625 0.5438125 0.3750625
v -1.8749375 0.6249375 0.3874375
v -1.8749375 0.6249375 0.3750625
v -1.8749375 0.5438125 0.3874375
v -1.8749375 0.5438125 0.3750625
vt 0.58203125 0.29296875
vt 0.58203125 0.3125
vt 0.578125 0.3125
vt 0.578125 0.29296875
vt 0.61328125 0.29296875
vt 0.61328125 0.3125
vt 0.609375 0.3125
vt 0.609375 0.29296875
vt 0.65625 0.5
vt 0.65625 0.49609375
vt 0.6875 0.49609375
vt 0.6875 0.5
vt 0 0.30859375
vt 0 0.3125
vt 0.03125 0.3125
vt 0.03125 0.30859375
vt 0.6875 0.83984375
vt 0.6875 0.859375
vt 0.65625 0.859375
vt 0.65625 0.83984375
vt 0.6875 0.88671875
vt 0.6875 0.90625
vt 0.65625 0.90625
vt 0.65625 0.88671875
vn 1 0 0
vn -1 0 0
vn 0 1 0
vn 0 -1 0
vn 0 0 1
vn 0 0 -1
usemtl m_754732fa-c251-1540-088c-8cf2d347e721
f 92/257/65 90/258/65 89/259/65 91/260/65
f 95/261/66 93/262/66 94/263/66 96/264/66
f 89/265/67 90/266/67 94/267/67 93/268/67
f 92/269/68 91/270/68 95/271/68 96/272/68
f 91/273/69 89/274/69 93/275/69 95/276/69
f 96/277/70 94/278/70 90/279/70 92/280/70
o cube
v -2.6250625 0.6249375 0.3874375
v -2.6250625 0.6249375 0.3750625
v -2.6250625 0.5438125 0.3874375
v -2.6250625 0.5438125 0.3750625
v -2.7499375 0.6249375 0.3874375
v -2.7499375 0.6249375 0.3750625
v -2.7499375 0.5438125 0.3874375
v -2.7499375 0.5438125 0.3750625
vt 0.64453125 0.29296875
vt 0.64453125 0.3125
vt 0.640625 0.3125
vt 0.640625 0.29296875
vt 0.67578125 0.29296875
vt 0.67578125 0.3125
vt 0.671875 0.3125
vt 0.671875 0.29296875
vt 0.046875 0.3125
vt 0.046875 0.30859375
vt 0.078125 0.30859375
vt 0.078125 0.3125
vt 0.09375 0.30859375
vt 0.09375 0.3125
vt 0.125 0.3125
vt 0.125 0.30859375
vt 0.6875 0.74609375
vt 0.6875 0.765625
vt 0.65625 0.765625
vt 0.65625 0.74609375
vt 0.6875 0.79296875
vt 0.6875 0.8125
vt 0.65625 0.8125
vt 0.65625 0.79296875
vn 1 0 0
vn -1 0 0
vn 0 1 0
vn 0 -1 0
vn 0 0 1
vn 0 0 -1
usemtl m_754732fa-c251-1540-088c-8cf2d347e721
f 100/281/71 98/282/71 97/283/71 99/284/71
f 103/285/72 101/286/72 102/287/72 104/288/72
f 97/289/73 98/290/73 102/291/73 101/292/73
f 100/293/74 99/294/74 103/295/74 104/296/74
f 99/297/75 97/298/75 101/299/75 103/300/75
f 104/301/76 102/302/76 98/303/76 100/304/76
o cube
v -2.1875625 0.6124375 -0.37506249999999997
v -2.1875625 0.6124375 -0.39368749999999997
v -2.1875625 0.5000625 -0.37506249999999997
v -2.1875625 0.5000625 -0.39368749999999997
v -2.3124375 0.6124375 -0.37506249999999997
v -2.3124375 0.6124375 -0.39368749999999997
v -2.3124375 0.5000625 -0.37506249999999997
v -2.3124375 0.5000625 -0.39368749999999997
vt 0.51953125 0.28515625
vt 0.51953125 0.3125
vt 0.515625 0.3125
vt 0.515625 0.28515625
vt 0.55078125 0.28515625
vt 0.55078125 0.3125
vt 0.546875 0.3125
vt 0.546875 0.28515625
vt 0.140625 0.3125
vt 0.140625 0.30859375
vt 0.171875 0.30859375
vt 0.171875 0.3125
vt 0.1875 0.30859375
vt 0.1875 0.3125
vt 0.21875 0.3125
vt 0.21875 0.30859375
vt 0.6875 0.92578125
vt 0.6875 0.953125
vt 0.65625 0.953125
vt 0.65625 0.92578125
vt 0.6875 0.97265625
vt 0.6875 1
vt 0.65625 1
vt 0.65625 0.97265625
vn 1 0 0
vn -1 0 0
vn 0 1 0
vn 0 -1 0
vn 0 0 1
vn 0 0 -1
usemtl m_754732fa-c251-1540-088c-8cf2d347e721
f 108/305/77 106/306/77 105/307/77 107/308/77
f 111/309/78 109/310/78 110/311/78 112/312/78
f 105/313/79 106/314/79 110/315/79 109/316/79
f 108/317/80 107/318/80 111/319/80 112/320/80
f 107/321/81 105/322/81 109/323/81 111/324/81
f 112/325/82 110/326/82 106/327/82 108/328/82
o cube
v -1.625 0.625 0.375
v -1.625 0.625 -0.375
v -1.625 0.125 0.375
v -1.625 0.125 -0.375
v -2.875 0.625 0.375
v -2.875 0.625 -0.375
v -2.875 0.125 0.375
v -2.875 0.125 -0.375
vt 0.1875 0.328125
vt 0.1875 0.453125
vt 0 0.453125
vt 0 0.328125
vt 0 1
vt 0 0.8125
vt 0.3125 0.8125
vt 0.3125 1
vt 0 0.609375
vt 0 0.796875
vt 0.3125 0.796875
vt 0.3125 0.609375
vt 0.3125 0.46875
vt 0.3125 0.59375
vt 0 0.59375
vt 0 0.46875
vt 0.390625 0.328125
vt 0.390625 0.453125
vt 0.203125 0.453125
vt 0.203125 0.328125
vt 0.640625 0.46875
vt 0.640625 0.59375
vt 0.328125 0.59375
vt 0.328125 0.46875
vn 1 0 0
vn 0 1 0
vn 0 -1 0
vn 0 0 -1
vn -1 0 0
vn 0 0 1
usemtl m_754732fa-c251-1540-088c-8cf2d347e721
f 116/329/83 114/330/83 113/331/83 115/332/83
f 113/333/84 114/334/84 118/335/84 117/336/84
f 116/337/85 115/338/85 119/339/85 120/340/85
f 120/341/86 118/342/86 114/343/86 116/344/86
f 119/345/87 117/346/87 118/347/87 120/348/87
f 115/349/88 113/350/88 117/351/88 119/352/88
o cube
v -1.75 0.6937500000000001 0.38749999999999996
v -1.75 0.6937500000000001 0.375
v -1.75 0.625 0.38749999999999996
v -1.75 0.625 0.375
v -1.875 0.6937500000000001 0.375
v -1.875 0.6937500000000001 0.38749999999999996
v -1.875 0.625 0.375
v -1.875 0.625 0.38749999999999996
vt 0.65625 0.625
vt 0.6875 0.625
vt 0.6875 0.609375
vt 0.65625 0.609375
vt 0.703125 0.90625
vt 0.70703125 0.90625
vt 0.70703125 0.890625
vt 0.703125 0.890625
vt 0.65625 0.59375
vt 0.6875 0.59375
vt 0.6875 0.578125
vt 0.65625 0.578125
vt 0.703125 0.875
vt 0.70703125 0.875
vt 0.70703125 0.859375
vt 0.703125 0.859375
vt 0.265625 0.30859375
vt 0.234375 0.30859375
vt 0.234375 0.3125
vt 0.265625 0.3125
vt 0.3125 0.3125
vt 0.28125 0.3125
vt 0.28125 0.30859375
vt 0.3125 0.30859375
vn 0 0 -1
vn 1 0 0
vn 0 0 1
vn -1 0 0
vn 0 1 0
vn 0 -1 0
usemtl m_754732fa-c251-1540-088c-8cf2d347e721
f 124/356/89 127/355/89 125/354/89 122/353/89
f 123/360/90 124/359/90 122/358/90 121/357/90
f 128/364/91 123/363/91 121/362/91 126/361/91
f 127/368/92 128/367/92 126/366/92 125/365/92
f 126/372/93 121/371/93 122/370/93 125/369/93
f 127/376/94 124/375/94 123/374/94 128/373/94
o cube
v -2.625 0.6937500000000001 0.38749999999999996
v -2.625 0.6937500000000001 0.375
v -2.625 0.625 0.38749999999999996
v -2.625 0.625 0.375
v -2.75 0.6937500000000001 0.375
v -2.75 0.6937500000000001 0.38749999999999996
v -2.75 0.625 0.375
v -2.75 0.625 0.38749999999999996
vt 0.65625 0.5625
vt 0.6875 0.5625
vt 0.6875 0.546875
vt 0.65625 0.546875
vt 0.703125 0.84375
vt 0.70703125 0.84375
vt 0.70703125 0.828125
vt 0.703125 0.828125
vt 0.65625 0.53125
vt 0.6875 0.53125
vt 0.6875 0.515625
vt 0.65625 0.515625
vt 0.703125 0.8125
vt 0.70703125 0.8125
vt 0.70703125 0.796875
vt 0.703125 0.796875
vt 0.359375 0.30859375
vt 0.328125 0.30859375
vt 0.328125 0.3125
vt 0.359375 0.3125
vt 0.40625 0.3125
vt 0.375 0.3125
vt 0.375 0.30859375
vt 0.40625 0.30859375
vn 0 0 -1
vn 1 0 0
vn 0 0 1
vn -1 0 0
vn 0 1 0
vn 0 -1 0
usemtl m_754732fa-c251-1540-088c-8cf2d347e721
f 132/380/95 135/379/95 133/378/95 130/377/95
f 131/384/96 132/383/96 130/382/96 129/381/96
f 136/388/97 131/387/97 129/386/97 134/385/97
f 135/392/98 136/391/98 134/390/98 133/389/98
f 134/396/99 129/395/99 130/394/99 133/393/99
f 135/400/100 132/399/100 131/398/100 136/397/100
o cube
v -2.1875 0.6937499999999999 -0.375
v -2.1875 0.6937499999999999 -0.39375000000000004
v -2.1875 0.6125 -0.375
v -2.1875 0.6125 -0.39375000000000004
v -2.3125 0.6937499999999999 -0.39375000000000004
v -2.3125 0.6937499999999999 -0.375
v -2.3125 0.6125 -0.39375000000000004
v -2.3125 0.6125 -0.375
vt 0.65625 0.71875
vt 0.6875 0.71875
vt 0.6875 0.69921875
vt 0.65625 0.69921875
vt 0.703125 1
vt 0.70703125 1
vt 0.70703125 0.98046875
vt 0.703125 0.98046875
vt 0.65625 0.671875
vt 0.6875 0.671875
vt 0.6875 0.65234375
vt 0.65625 0.65234375
vt 0.703125 0.953125
vt 0.70703125 0.953125
vt 0.70703125 0.93359375
vt 0.703125 0.93359375
vt 0.453125 0.30859375
vt 0.421875 0.30859375
vt 0.421875 0.3125
vt 0.453125 0.3125
vt 0.5 0.3125
vt 0.46875 0.3125
vt 0.46875 0.30859375
vt 0.5 0.30859375
vn 0 0 -1
vn 1 0 0
vn 0 0 1
vn -1 0 0
vn 0 1 0
vn 0 -1 0
usemtl m_754732fa-c251-1540-088c-8cf2d347e721
f 140/404/101 143/403/101 141/402/101 138/401/101
f 139/408/102 140/407/102 138/406/102 137/405/102
f 144/412/103 139/411/103 137/410/103 142/409/103
f 143/416/104 144/415/104 142/414/104 141/413/104
f 142/420/105 137/419/105 138/418/105 141/417/105
f 143/424/106 140/423/106 139/422/106 144/421/106
o cube
v -1.625 0.75 0.375
v -1.625 0.75 -0.375
v -1.625 0.625 0.375
v -1.625 0.625 -0.375
v -2.875 0.75 -0.375
v -2.875 0.75 0.375
v -2.875 0.625 -0.375
v -2.875 0.625 0.375
vt 0.40625 0.453125
vt 0.71875 0.453125
vt 0.71875 0.421875
vt 0.40625 0.421875
vt 0.40625 0.359375
vt 0.59375 0.359375
vt 0.59375 0.328125
vt 0.40625 0.328125
vt 0.40625 0.40625
vt 0.71875 0.40625
vt 0.71875 0.375
vt 0.40625 0.375
vt 0.609375 0.359375
vt 0.796875 0.359375
vt 0.796875 0.328125
vt 0.609375 0.328125
vt 0.640625 0.8125
vt 0.328125 0.8125
vt 0.328125 1
vt 0.640625 1
vt 0.640625 0.796875
vt 0.328125 0.796875
vt 0.328125 0.609375
vt 0.640625 0.609375
vn 0 0 -1
vn 1 0 0
vn 0 0 1
vn -1 0 0
vn 0 1 0
vn 0 -1 0
usemtl m_754732fa-c251-1540-088c-8cf2d347e721
f 148/428/107 151/427/107 149/426/107 146/425/107
f 147/432/108 148/431/108 146/430/108 145/429/108
f 152/436/109 147/435/109 145/434/109 150/433/109
f 151/440/110 152/439/110 150/438/110 149/437/110
f 150/444/111 145/443/111 146/442/111 149/441/111
f 151/448/112 148/447/112 147/446/112 152/445/112
o cube
v 2.9375 0.3125 -3.375
v 2.9375 0.3125 -4
v 2.9375 0.25 -3.375
v 2.9375 0.25 -4
v 0.4375 0.3125 -4
v 0.4375 0.3125 -3.375
v 0.4375 0.25 -4
v 0.4375 0.25 -3.375
vt 0.390625 0.578125
vt 0.703125 0.578125
vt 0.703125 0.5703125
vt 0.390625 0.5703125
vt 0.4921875 0.640625
vt 0.5703125 0.640625
vt 0.5703125 0.6328125
vt 0.4921875 0.6328125
vt 0.390625 0.5625
vt 0.703125 0.5625
vt 0.703125 0.5546875
vt 0.390625 0.5546875
vt 0.4921875 0.625
vt 0.5703125 0.625
vt 0.5703125 0.6171875
vt 0.4921875 0.6171875
vt 0.3125 0.921875
vt 0 0.921875
vt 0 1
vt 0.3125 1
vt 0.3125 0.9140625
vt 0 0.9140625
vt 0 0.8359375
vt 0.3125 0.8359375
vn 0 0 -1
vn 1 0 0
vn 0 0 1
vn -1 0 0
vn 0 1 0
vn 0 -1 0
usemtl m_512196a9-4ed6-fd8c-2c71-438deb2bfde1
f 156/452/113 159/451/113 157/450/113 154/449/113
f 155/456/114 156/455/114 154/454/114 153/453/114
f 160/460/115 155/459/115 153/458/115 158/457/115
f 159/464/116 160/463/116 158/462/116 157/461/116
f 158/468/117 153/467/117 154/466/117 157/465/117
f 159/472/118 156/471/118 155/470/118 160/469/118
o cube
v 2.9375 0.9375 -3.375
v 2.9375 0.9375 -4
v 2.9375 0.875 -3.375
v 2.9375 0.875 -4
v 0.4375 0.9375 -4
v 0.4375 0.9375 -3.375
v 0.4375 0.875 -4
v 0.4375 0.875 -3.375
vt 0.390625 0.546875
vt 0.703125 0.546875
vt 0.703125 0.5390625
vt 0.390625 0.5390625
vt 0.4921875 0.609375
vt 0.5703125 0.609375
vt 0.5703125 0.6015625
vt 0.4921875 0.6015625
vt 0.390625 0.53125
vt 0.703125 0.53125
vt 0.703125 0.5234375
vt 0.390625 0.5234375
vt 0.4921875 0.59375
vt 0.5703125 0.59375
vt 0.5703125 0.5859375
vt 0.4921875 0.5859375
vt 0.3125 0.75
vt 0 0.75
vt 0 0.828125
vt 0.3125 0.828125
vt 0.3125 0.7421875
vt 0 0.7421875
vt 0 0.6640625
vt 0.3125 0.6640625
vn 0 0 -1
vn 1 0 0
vn 0 0 1
vn -1 0 0
vn 0 1 0
vn 0 -1 0
usemtl m_512196a9-4ed6-fd8c-2c71-438deb2bfde1
f 164/476/119 167/475/119 165/474/119 162/473/119
f 163/480/120 164/479/120 162/478/120 161/477/120
f 168/484/121 163/483/121 161/482/121 166/481/121
f 167/488/122 168/487/122 166/486/122 165/485/122
f 166/492/123 161/491/123 162/490/123 165/489/123
f 167/496/124 164/495/124 163/494/124 168/493/124
o cube
v 2.9375 1.5625 -3.375
v 2.9375 1.5625 -4
v 2.9375 1.5 -3.375
v 2.9375 1.5 -4
v 0.4375 1.5625 -4
v 0.4375 1.5625 -3.375
v 0.4375 1.5 -4
v 0.4375 1.5 -3.375
vt 0.390625 0.515625
vt 0.703125 0.515625
vt 0.703125 0.5078125
vt 0.390625 0.5078125
vt 0.453125 0.5
vt 0.53125 0.5
vt 0.53125 0.4921875
vt 0.453125 0.4921875
vt 0.4921875 0.828125
vt 0.8046875 0.828125
vt 0.8046875 0.8203125
vt 0.4921875 0.8203125
vt 0.515625 0.8125
vt 0.59375 0.8125
vt 0.59375 0.8046875
vt 0.515625 0.8046875
vt 0.6328125 0.921875
vt 0.3203125 0.921875
vt 0.3203125 1
vt 0.6328125 1
vt 0.6328125 0.9140625
vt 0.3203125 0.9140625
vt 0.3203125 0.8359375
vt 0.6328125 0.8359375
vn 0 0 -1
vn 1 0 0
vn 0 0 1
vn -1 0 0
vn 0 1 0
vn 0 -1 0
usemtl m_512196a9-4ed6-fd8c-2c71-438deb2bfde1
f 172/500/125 175/499/125 173/498/125 170/497/125
f 171/504/126 172/503/126 170/502/126 169/501/126
f 176/508/127 171/507/127 169/506/127 174/505/127
f 175/512/128 176/511/128 174/510/128 173/509/128
f 174/516/129 169/515/129 170/514/129 173/513/129
f 175/520/130 172/519/130 171/518/130 176/517/130
o cube
v 0.4375 2.0625 -3.375
v 0.4375 2.0625 -4
v 0.4375 0.125 -3.375
v 0.4375 0.125 -4
v 0.375 2.0625 -4
v 0.375 2.0625 -3.375
v 0.375 0.125 -4
v 0.375 0.125 -3.375
vt 0.390625 0.5
vt 0.3984375 0.5
vt 0.3984375 0.2578125
vt 0.390625 0.2578125
vt 0.3203125 0.828125
vt 0.3984375 0.828125
vt 0.3984375 0.5859375
vt 0.3203125 0.5859375
vt 0.40625 0.5
vt 0.4140625 0.5
vt 0.4140625 0.2578125
vt 0.40625 0.2578125
vt 0 0.65625
vt 0.078125 0.65625
vt 0.078125 0.4140625
vt 0 0.4140625
vt 0.5234375 0.71875
vt 0.515625 0.71875
vt 0.515625 0.796875
vt 0.5234375 0.796875
vt 0.4609375 0.484375
vt 0.453125 0.484375
vt 0.453125 0.40625
vt 0.4609375 0.40625
vn 0 0 -1
vn 1 0 0
vn 0 0 1
vn -1 0 0
vn 0 1 0
vn 0 -1 0
usemtl m_512196a9-4ed6-fd8c-2c71-438deb2bfde1
f 180/524/131 183/523/131 181/522/131 178/521/131
f 179/528/132 180/527/132 178/526/132 177/525/132
f 184/532/133 179/531/133 177/530/133 182/529/133
f 183/536/134 184/535/134 182/534/134 181/533/134
f 182/540/135 177/539/135 178/538/135 181/537/135
f 183/544/136 180/543/136 179/542/136 184/541/136
o cube
v 1.750625 2.063125 -3.374375
v 1.750625 2.063125 -4.000625
v 1.750625 0.12437500000000001 -3.374375
v 1.750625 0.12437500000000001 -4.000625
v 1.624375 2.063125 -4.000625
v 1.624375 2.063125 -3.374375
v 1.624375 0.12437500000000001 -4.000625
v 1.624375 0.12437500000000001 -3.374375
vt 0.34375 0.578125
vt 0.359375 0.578125
vt 0.359375 0.3359375
vt 0.34375 0.3359375
vt 0.0859375 0.65625
vt 0.1640625 0.65625
vt 0.1640625 0.4140625
vt 0.0859375 0.4140625
vt 0.3671875 0.578125
vt 0.3828125 0.578125
vt 0.3828125 0.3359375
vt 0.3671875 0.3359375
vt 0.171875 0.65625
vt 0.25 0.65625
vt 0.25 0.4140625
vt 0.171875 0.4140625
vt 0.5078125 0.734375
vt 0.4921875 0.734375
vt 0.4921875 0.8125
vt 0.5078125 0.8125
vt 0.5078125 0.7265625
vt 0.4921875 0.7265625
vt 0.4921875 0.6484375
vt 0.5078125 0.6484375
vn 0 0 -1
vn 1 0 0
vn 0 0 1
vn -1 0 0
vn 0 1 0
vn 0 -1 0
usemtl m_512196a9-4ed6-fd8c-2c71-438deb2bfde1
f 188/548/137 191/547/137 189/546/137 186/545/137
f 187/552/138 188/551/138 186/550/138 185/549/138
f 192/556/139 187/555/139 185/554/139 190/553/139
f 191/560/140 192/559/140 190/558/140 189/557/140
f 190/564/141 185/563/141 186/562/141 189/561/141
f 191/568/142 188/567/142 187/566/142 192/565/142
o cube
v 3 2.0625 -3.375
v 3 2.0625 -4
v 3 0.125 -3.375
v 3 0.125 -4
v 2.9375 2.0625 -4
v 2.9375 2.0625 -3.375
v 2.9375 0.125 -4
v 2.9375 0.125 -3.375
vt 0.421875 0.5
vt 0.4296875 0.5
vt 0.4296875 0.2578125
vt 0.421875 0.2578125
vt 0.40625 0.828125
vt 0.484375 0.828125
vt 0.484375 0.5859375
vt 0.40625 0.5859375
vt 0.4375 0.5
vt 0.4453125 0.5
vt 0.4453125 0.2578125
vt 0.4375 0.2578125
vt 0.2578125 0.578125
vt 0.3359375 0.578125
vt 0.3359375 0.3359375
vt 0.2578125 0.3359375
vt 0.4765625 0.40625
vt 0.46875 0.40625
vt 0.46875 0.484375
vt 0.4765625 0.484375
vt 0.4921875 0.484375
vt 0.484375 0.484375
vt 0.484375 0.40625
vt 0.4921875 0.40625
vn 0 0 -1
vn 1 0 0
vn 0 0 1
vn -1 0 0
vn 0 1 0
vn 0 -1 0
usemtl m_512196a9-4ed6-fd8c-2c71-438deb2bfde1
f 196/572/143 199/571/143 197/570/143 194/569/143
f 195/576/144 196/575/144 194/574/144 193/573/144
f 200/580/145 195/579/145 193/578/145 198/577/145
f 199/584/146 200/583/146 198/582/146 197/581/146
f 198/588/147 193/587/147 194/586/147 197/585/147
f 199/592/148 196/591/148 195/590/148 200/589/148
o cube
v 2.1875 1 2.9375
v 2.1875 1 2.8125
v 2.1875 0.125 2.9375
v 2.1875 0.125 2.8125
v 2.0625 1 2.8125
v 2.0625 1 2.9375
v 2.0625 0.125 2.8125
v 2.0625 0.125 2.9375
vt 0.2890625 0.515625
vt 0.3046875 0.515625
vt 0.3046875 0.40625
vt 0.2890625 0.40625
vt 0.3125 0.515625
vt 0.328125 0.515625
vt 0.328125 0.40625
vt 0.3125 0.40625
vt 0.390625 0.515625
vt 0.40625 0.515625
vt 0.40625 0.40625
vt 0.390625 0.40625
vt 0.0546875 0.53125
vt 0.0703125 0.53125
vt 0.0703125 0.421875
vt 0.0546875 0.421875
vt 0.296875 0.6328125
vt 0.296875 0.6484375
vt 0.3125 0.6484375
vt 0.3125 0.6328125
vt 0.40625 0.625
vt 0.40625 0.640625
vt 0.390625 0.640625
vt 0.390625 0.625
vn 0 0 -1
vn 1 0 0
vn 0 0 1
vn -1 0 0
vn 0 1 0
vn 0 -1 0
usemtl m_3df7c33e-ca28-ef17-7a88-f5102d1c89c7
f 204/596/149 207/595/149 205/594/149 202/593/149
f 203/600/150 204/599/150 202/598/150 201/597/150
f 208/604/151 203/603/151 201/602/151 206/601/151
f 207/608/152 208/607/152 206/606/152 205/605/152
f 206/612/153 201/611/153 202/610/153 205/609/153
f 207/616/154 204/615/154 203/614/154 208/613/154
o cube
v 2.875 1 2.8125
v 2.75 1 2.8125
v 2.875 0.125 2.8125
v 2.875 1 2.9375
v 2.75 1 2.9375
v 2.875 0.125 2.9375
v 2.75 0.5625 2.9375
v 2.75 0.5625 2.8125
v 2.875 0.5625 2.8125
v 2.875 0.5625 2.9375
v 2.1875 0.5625 2.9375
v 2.1875 0.5625 2.8125
v 2.36486125 0.633471875 2.92736125
v 2.1875 1 2.8125
v 2.1875 1 2.9375
v 2.875 1 1.75
v 2.75 0.5625 1.75
v 2.875 0.5625 1.75
v 2.75 1 1.75
v 2.1875 0.125 2.9375
v 2.1875 0.125 2.8125
v 2.75 0.125 2.8125
v 2.75 0.125 2.9375
v 2.75 0.5625 2.4375
v 2.75 1 2.4375
v 2.875 1 2.4375
v 2.875 0.5625 2.4375
v 2.75 0.598958125 2.4375
v 2.75 0.598958125 2.8125
v 2.1875 0.598958125 2.8125
v 2.1875 0.598958125 2.9375
v 2.75 0.598958125 2.9375
v 2.875 0.598958125 2.9375
v 2.875 0.598958125 2.8125
v 2.875 0.598958125 2.4375
v 2.875 0.598958125 1.75
v 2.75 0.598958125 1.75
v 2.0625 0.598958125 2.4375
v 2.0625 0.598958125 2.8125
v 2.1166525 0.6598237499999999 2.90411125
v 2.2416525 0.6598237499999999 2.90411125
v 2.2416525 0.6598237499999999 2.40411125
v 2.0625 0.5625 2.8125
v 2.0625 0.5625 2.4375
vt 0.453125 0.421875
vt 0.453125 0.42643203124999995
vt 0.4375 0.42643203124999995
vt 0.4375 0.421875
vt 0.2890625 0.59375
vt 0.2890625 0.5983070312500001
vt 0.2734375 0.5983070312500001
vt 0.2734375 0.59375
vt 0.3515625 0.9140625
vt 0.3515625 0.9296875
vt 0.3359375 0.9296875
vt 0.3359375 0.9140625
vt 0.28125 0.453125
vt 0.28125 0.46875
vt 0.265625 0.46875
vt 0.265625 0.453125
vt 0.1875 0.6640625
vt 0.1875 0.6686195312500001
vt 0.171875 0.6686195312500001
vt 0.171875 0.6640625
vt 0.5234375 0.9453125
vt 0.5234375 0.94986953125
vt 0.5078125 0.94986953125
vt 0.5078125 0.9453125
vt 0.4765625 0.421875
vt 0.4765625 0.4765625
vt 0.4609375 0.4765625
vt 0.4609375 0.421875
vt 0.5234375 0.421875
vt 0.5234375 0.4765625
vt 0.5078125 0.4765625
vt 0.5078125 0.421875
vt 0.1875 0.609375
vt 0.1875 0.6640625
vt 0.171875 0.6640625
vt 0.171875 0.609375
vt 0.2890625 0.5390625
vt 0.2890625 0.59375
vt 0.2734375 0.59375
vt 0.2734375 0.5390625
vt 0.3515625 1
vt 0.3359375 1
vt 0.3359375 0.9296875
vt 0.3515625 0.9296875
vt 0.234375 0.6640625
vt 0.234375 0.6686195312500001
vt 0.1875 0.6686195312500001
vt 0.1875 0.6640625
vt 0.328125 0.703125
vt 0.375 0.703125
vt 0.375 0.71875
vt 0.328125 0.71875
vt 0.578125 0.55078125
vt 0.578125 0.5546875
vt 0.53125 0.5546875
vt 0.53125 0.55078125
vt 0.3515625 0.9140625
vt 0.3984375 0.9140625
vt 0.3984375 0.9296875
vt 0.3515625 0.9296875
vt 0.5078125 0.484375
vt 0.5234375 0.484375
vt 0.5234375 0.5546875
vt 0.5078125 0.5546875
vt 0.2734375 0.59375
vt 0.2734375 0.5983070312500001
vt 0.203125 0.5983070312500001
vt 0.203125 0.59375
vt 0.1640625 0.546875
vt 0.1640625 0.5514320312500001
vt 0.09375 0.5514320312500001
vt 0.09375 0.546875
vt 0.5078125 0.890625
vt 0.5234375 0.890625
vt 0.5234375 0.9453125
vt 0.5078125 0.9453125
vt 0.09375 0.4921875
vt 0.1640625 0.4921875
vt 0.1640625 0.546875
vt 0.09375 0.546875
vt 0.53125 0.9453125
vt 0.546875 0.9453125
vt 0.546875 1
vt 0.53125 1
vt 0.203125 0.5390625
vt 0.2734375 0.5390625
vt 0.2734375 0.59375
vt 0.203125 0.59375
vt 0.453125 0.9453125
vt 0.453125 0.94986953125
vt 0.3671875 0.94986953125
vt 0.3671875 0.9453125
vt 0.484375 0.9296875
vt 0.3984375 0.9296875
vt 0.3984375 0.9140625
vt 0.484375 0.9140625
vt 0.3203125 0.6640625
vt 0.3203125 0.6686195312500001
vt 0.234375 0.6686195312500001
vt 0.234375 0.6640625
vt 0.4609375 0.71875
vt 0.375 0.71875
vt 0.375 0.703125
vt 0.4609375 0.703125
vt 0.453125 1
vt 0.453125 0.94986953125
vt 0.5 0.94986953125
vt 0.5 1
vt 0.09375 0.6015625
vt 0.09375 0.5514320312500001
vt 0.1640625 0.5514320312500001
vt 0.1640625 0.6015625
vt 0.5078125 1
vt 0.5078125 0.94986953125
vt 0.5234375 0.94986953125
vt 0.5234375 1
vt 0.203125 0.6484375
vt 0.203125 0.5983070312500001
vt 0.2734375 0.5983070312500001
vt 0.2734375 0.6484375
vt 0.2734375 0.6484375
vt 0.2734375 0.5983070312500001
vt 0.2890625 0.5983070312500001
vt 0.2890625 0.6484375
vt 0.171875 0.71875
vt 0.171875 0.6686195312500001
vt 0.1875 0.6686195312500001
vt 0.1875 0.71875
vt 0.1875 0.71875
vt 0.1875 0.6686195312500001
vt 0.234375 0.6686195312500001
vt 0.234375 0.71875
vt 0.234375 0.71875
vt 0.234375 0.6686195312500001
vt 0.3203125 0.6686195312500001
vt 0.3203125 0.71875
vt 0.4375 0.4765625
vt 0.4375 0.42643203124999995
vt 0.453125 0.42643203124999995
vt 0.453125 0.4765625
vt 0.3671875 1
vt 0.3671875 0.94986953125
vt 0.453125 0.94986953125
vt 0.453125 1
vt 0.53125 0.921875
vt 0.53125 0.91796875
vt 0.6171875 0.91796875
vt 0.6171875 0.921875
vt 0.21875 0.53125
vt 0.171875 0.53125
vt 0.171875 0.4453125
vt 0.21875 0.4453125
vt 0.6171875 0.90234375
vt 0.6171875 0.90625
vt 0.53125 0.90625
vt 0.53125 0.90234375
vt 0.328125 0.6171875
vt 0.375 0.6171875
vt 0.375 0.703125
vt 0.328125 0.703125
vn 0 0 -1
vn 0 0 1
vn 0 1 0
vn 0 -1 0
vn 1 0 0
vn -1 0 0
vn -1 0 0
vn 0 0 -1
vn 1 0 0
vn 0 0 1
vn 0 1 0
vn 1 0 0
vn 0 -1 0
vn -1 0 0
vn 0 1 0
vn 0 -1 0
vn 0 0 1
vn 0 0 -1
vn -1 0 0
vn 0 0 -1
vn 1 0 0
vn 0 0 1
vn -1 0 0
vn 0 1 0
vn 1 0 0
vn 0 -1 0
vn -1 0 0
vn 0 0 -1
vn -1 0 0
vn 0 0 1
vn 0 0 1
vn 1 0 0
vn 1 0 0
vn 1 0 0
vn 0 0 -1
vn -1 0 0
vn 0 0 1
vn 0 1 0
vn 0 0 -1
vn 0 -1 0
usemtl m_3df7c33e-ca28-ef17-7a88-f5102d1c89c7
f 225/617/155 245/618/155 244/619/155 226/620/155
f 218/621/156 241/622/156 240/623/156 215/624/156
f 209/625/157 210/626/157 213/627/157 212/628/157
f 230/629/158 211/630/158 214/631/158 231/632/158
f 217/633/159 242/634/159 241/635/159 218/636/159
f 219/637/160 239/638/160 238/639/160 220/640/160
f 231/641/161 215/642/161 216/643/161 230/644/161
f 230/645/162 216/646/162 217/647/162 211/648/162
f 211/649/163 217/650/163 218/651/163 214/652/163
f 214/653/164 218/654/164 215/655/164 231/656/164
f 222/657/165 223/658/165 213/659/165 210/660/165
f 235/661/166 243/662/166 242/663/166 217/664/166
f 216/665/167 232/666/167 235/667/167 217/668/167
f 251/669/168 247/670/168 246/671/168 252/672/168
f 209/673/169 234/674/169 233/675/169 210/676/169
f 228/677/170 229/678/170 230/679/170 231/680/170
f 215/681/171 240/682/171 239/683/171 219/684/171
f 220/685/172 238/686/172 237/687/172 216/688/172
f 229/689/173 228/690/173 219/691/173 220/692/173
f 230/693/174 229/694/174 220/695/174 216/696/174
f 231/697/175 230/698/175 216/699/175 215/700/175
f 228/701/176 231/702/176 215/703/176 219/704/176
f 232/705/177 236/706/177 245/707/177 225/708/177
f 227/709/178 233/710/178 234/711/178 224/712/178
f 226/713/179 244/714/179 243/715/179 235/716/179
f 226/717/180 235/718/180 232/719/180 225/720/180
f 233/721/181 236/722/181 237/723/181 210/724/181
f 210/725/182 237/726/182 238/727/182 222/728/182
f 222/729/183 238/730/183 239/731/183 223/732/183
f 223/733/184 239/734/184 240/735/184 213/736/184
f 213/737/185 240/738/185 241/739/185 212/740/185
f 212/741/186 241/742/186 242/743/186 209/744/186
f 209/745/187 242/746/187 243/747/187 234/748/187
f 234/749/188 243/750/188 244/751/188 224/752/188
f 224/753/189 244/754/189 245/755/189 227/756/189
f 227/757/190 245/758/190 236/759/190 233/760/190
f 247/761/191 251/762/191 216/763/191 237/764/191
f 246/765/192 247/766/192 237/767/192 236/768/192
f 252/769/193 246/770/193 236/771/193 232/772/193
f 251/773/194 252/774/194 232/775/194 216/776/194
o cube
v 2.875 1 0.4375
v 2.75 1 0.4375
v 2.875 0.125 0.4375
v 2.75 0.125 0.4375
v 2.875 1 0.5625
v 2.75 1 0.5625
v 2.875 0.125 0.5625
v 2.75 0.125 0.5625
v 2.75 0.5625 0.5625
v 2.75 0.5625 0.4375
v 2.875 0.5625 0.4375
v 2.875 0.5625 0.5625
v 2.5 0.5625 0.5625
v 2.5 0.5625 0.4375
v 2.86486125 0.633471875 0.55236125
v 2.5 1 0.4375
v 2.5 1 0.5625
v 2.75 1 1.75
v 2.875 0.5625 1.75
v 2.75 0.5625 1.75
v 2.875 1 1.75
vt 0.4453125 0.90625
vt 0.4453125 0.8515625
vt 0.4609375 0.8515625
vt 0.4609375 0.90625
vt 0.1171875 0.484375
vt 0.1171875 0.4296875
vt 0.1328125 0.4296875
vt 0.1328125 0.484375
vt 0.4609375 0.59375
vt 0.4609375 0.609375
vt 0.4453125 0.609375
vt 0.4453125 0.59375
vt 0.2578125 0.453125
vt 0.2578125 0.46875
vt 0.2421875 0.46875
vt 0.2421875 0.453125
vt 0.1484375 0.71875
vt 0.1484375 0.6640625
vt 0.1640625 0.6640625
vt 0.1640625 0.71875
vt 0.140625 0.484375
vt 0.140625 0.4296875
vt 0.15625 0.4296875
vt 0.15625 0.484375
vt 0.5390625 0.671875
vt 0.5390625 0.7265625
vt 0.5234375 0.7265625
vt 0.5234375 0.671875
vt 0.4609375 0.796875
vt 0.4609375 0.8515625
vt 0.4453125 0.8515625
vt 0.4453125 0.796875
vt 0.1640625 0.609375
vt 0.1640625 0.6640625
vt 0.1484375 0.6640625
vt 0.1484375 0.609375
vt 0.4296875 0.421875
vt 0.4296875 0.4765625
vt 0.4140625 0.4765625
vt 0.4140625 0.421875
vt 0.4921875 0.8515625
vt 0.4921875 0.90625
vt 0.4609375 0.90625
vt 0.4609375 0.8515625
vt 0.1171875 0.6171875
vt 0.1328125 0.6171875
vt 0.1328125 0.6484375
vt 0.1171875 0.6484375
vt 0.4921875 0.8125
vt 0.4921875 0.7578125
vt 0.5234375 0.7578125
vt 0.5234375 0.8125
vt 0.4609375 0.640625
vt 0.4453125 0.640625
vt 0.4453125 0.609375
vt 0.4609375 0.609375
vt 0.484375 0.734375
vt 0.484375 0.7890625
vt 0.3359375 0.7890625
vt 0.3359375 0.734375
vt 0.4765625 0.8359375
vt 0.4765625 0.8203125
vt 0.625 0.8203125
vt 0.625 0.8359375
vt 0 0.71875
vt 0 0.6640625
vt 0.1484375 0.6640625
vt 0.1484375 0.71875
vt 0.296875 0.609375
vt 0.296875 0.59375
vt 0.4453125 0.59375
vt 0.4453125 0.609375
vn 0 0 -1
vn 0 0 1
vn 0 1 0
vn 0 -1 0
vn 1 0 0
vn -1 0 0
vn -1 0 0
vn 0 0 -1
vn 1 0 0
vn 0 0 1
vn 0 0 -1
vn 0 -1 0
vn 0 0 1
vn 0 1 0
vn -1 0 0
vn 0 -1 0
vn 1 0 0
vn 0 1 0
usemtl m_3df7c33e-ca28-ef17-7a88-f5102d1c89c7
f 253/777/195 263/778/195 262/779/195 254/780/195
f 270/781/196 272/782/196 271/783/196 273/784/196
f 253/785/197 254/786/197 258/787/197 257/788/197
f 256/789/198 255/790/198 259/791/198 260/792/198
f 257/793/199 264/794/199 263/795/199 253/796/199
f 268/797/200 266/798/200 265/799/200 269/800/200
f 260/801/201 261/802/201 262/803/201 256/804/201
f 256/805/202 262/806/202 263/807/202 255/808/202
f 255/809/203 263/810/203 264/811/203 259/812/203
f 259/813/204 264/814/204 261/815/204 260/816/204
f 266/817/205 268/818/205 254/819/205 262/820/205
f 265/821/206 266/822/206 262/823/206 261/824/206
f 269/825/207 265/826/207 261/827/207 258/828/207
f 268/829/208 269/830/208 258/831/208 254/832/208
f 272/833/209 270/834/209 258/835/209 261/836/209
f 271/837/210 272/838/210 261/839/210 264/840/210
f 273/841/211 271/842/211 264/843/211 257/844/211
f 270/845/212 273/846/212 257/847/212 258/848/212
o cube
v 2.1875 1 0.4375
v 2.0625 1 0.4375
v 2.1875 0.125 0.4375
v 2.0625 0.125 0.4375
v 2.1875 1 0.5625
v 2.0625 1 0.5625
v 2.1875 0.125 0.5625
v 2.0625 0.125 0.5625
v 2.1875 0.5625 0.4375
v 2.1875 0.5625 0.5625
v 2.0625 0.5625 0.5625
v 2.0625 0.5625 0.4375
v 2.5 0.5625 0.4375
v 2.5 0.5625 0.5625
v 2.32263875 0.633471875 0.55236125
v 2.5 1 0.5625
v 2.5 1 0.4375
vt 0.3359375 0.5859375
vt 0.3359375 0.53125
vt 0.3515625 0.53125
vt 0.3515625 0.5859375
vt 0.359375 0.5859375
vt 0.359375 0.53125
vt 0.375 0.53125
vt 0.375 0.5859375
vt 0.1875 0.5859375
vt 0.1875 0.6015625
vt 0.171875 0.6015625
vt 0.171875 0.5859375
vt 0.4296875 0.625
vt 0.4296875 0.640625
vt 0.4140625 0.640625
vt 0.4140625 0.625
vt 0.5 0.7265625
vt 0.5 0.671875
vt 0.515625 0.671875
vt 0.515625 0.7265625
vt 0.484375 0.5546875
vt 0.484375 0.5
vt 0.5 0.5
vt 0.5 0.5546875
vt 0.109375 0.4296875
vt 0.109375 0.484375
vt 0.09375 0.484375
vt 0.09375 0.4296875
vt 0.375 0.4765625
vt 0.375 0.53125
vt 0.359375 0.53125
vt 0.359375 0.4765625
vt 0.5 0.4453125
vt 0.5 0.5
vt 0.484375 0.5
vt 0.484375 0.4453125
vt 0.3515625 0.4765625
vt 0.3515625 0.53125
vt 0.3359375 0.53125
vt 0.3359375 0.4765625
vt 0.4140625 0.53125
vt 0.4140625 0.5859375
vt 0.375 0.5859375
vt 0.375 0.53125
vt 0.109375 0.6484375
vt 0.09375 0.6484375
vt 0.09375 0.609375
vt 0.109375 0.609375
vt 0.296875 0.5859375
vt 0.296875 0.53125
vt 0.3359375 0.53125
vt 0.3359375 0.5859375
vt 0.171875 0.546875
vt 0.1875 0.546875
vt 0.1875 0.5859375
vt 0.171875 0.5859375
vn 0 0 -1
vn 0 0 1
vn 0 1 0
vn 0 -1 0
vn 1 0 0
vn -1 0 0
vn 1 0 0
vn 0 0 1
vn -1 0 0
vn 0 0 -1
vn 0 0 1
vn 0 -1 0
vn 0 0 -1
vn 0 1 0
usemtl m_3df7c33e-ca28-ef17-7a88-f5102d1c89c7
f 274/849/213 282/850/213 285/851/213 275/852/213
f 279/853/214 284/854/214 283/855/214 278/856/214
f 274/857/215 275/858/215 279/859/215 278/860/215
f 277/861/216 276/862/216 280/863/216 281/864/216
f 289/865/217 287/866/217 286/867/217 290/868/217
f 275/869/218 285/870/218 284/871/218 279/872/218
f 276/873/219 282/874/219 283/875/219 280/876/219
f 280/877/220 283/878/220 284/879/220 281/880/220
f 281/881/221 284/882/221 285/883/221 277/884/221
f 277/885/222 285/886/222 282/887/222 276/888/222
f 287/889/223 289/890/223 278/891/223 283/892/223
f 286/893/224 287/894/224 283/895/224 282/896/224
f 290/897/225 286/898/225 282/899/225 274/900/225
f 289/901/226 290/902/226 274/903/226 278/904/226
o cube
v 3 1.09375 3
v 3 1.09375 0.375
v 3 1 3
v 3 1 0.375
v 1.9375 1.09375 0.375
v 1.9375 1.09375 3
v 1.9375 1 0.375
v 1.9375 1 3
vt 0.4921875 0.75
vt 0.625 0.75
vt 0.625 0.73828125
vt 0.4921875 0.73828125
vt 0.46875 0.640625
vt 0.796875 0.640625
vt 0.796875 0.62890625
vt 0.46875 0.62890625
vt 0.5 0.8828125
vt 0.6328125 0.8828125
vt 0.6328125 0.87109375
vt 0.5 0.87109375
vt 0.390625 0.6640625
vt 0.71875 0.6640625
vt 0.71875 0.65234375
vt 0.390625 0.65234375
vt 0 0.8671875
vt 0 1
vt 0.328125 1
vt 0.328125 0.8671875
vt 0.328125 0.7265625
vt 0.328125 0.859375
vt 0 0.859375
vt 0 0.7265625
vn 0 0 -1
vn 1 0 0
vn 0 0 1
vn -1 0 0
vn 0 1 0
vn 0 -1 0
usemtl m_3df7c33e-ca28-ef17-7a88-f5102d1c89c7
f 294/908/227 297/907/227 295/906/227 292/905/227
f 293/912/228 294/911/228 292/910/228 291/909/228
f 298/916/229 293/915/229 291/914/229 296/913/229
f 297/920/230 298/919/230 296/918/230 295/917/230
f 296/924/231 291/923/231 292/922/231 295/921/231
f 297/928/232 294/927/232 293/926/232 298/925/232
o cube
v 2.75 1 2.375
v 2.0625 1 2.375
v 2.75 0.125 2.375
v 2.0625 0.125 2.375
v 2.75 1 2.4375
v 2.0625 1 2.4375
v 2.75 0.125 2.4375
v 2.75 0.5625 2.375
v 2.75 0.5625 2.4375
v 2.0625 0.5625 2.4375
v 2.0625 0.5625 2.375
v 2.875 0.125 2.375
v 2.875 0.5625 2.375
v 2.875 0.5625 2.4375
v 2.875 0.125 2.4375
v 2.875 0.125 2.8125
v 2.875 0.5625 2.8125
v 2.75 0.5625 2.8125
v 2.75 0.125 2.8125
v 2.75 0.161458125 2.4375
v 2.0625 0.161458125 2.375
v 2.75 0.161458125 2.375
v 2.875 0.161458125 2.375
v 2.875 0.161458125 2.4375
v 2.875 0.161458125 2.8125
v 2.75 0.161458125 2.8125
v 2.0625 0.125 2.8125
v 2.0625 0.161458125 2.8125
v 2.0625 0.161458125 2.4375
v 2.0625 0.125 2.4375
vt 0.3515625 0.90625
vt 0.3515625 0.8515625
vt 0.4375 0.8515625
vt 0.4375 0.90625
vt 0 0.6484375
vt 0 0.59375
vt 0.0859375 0.59375
vt 0.0859375 0.6484375
vt 0.234375 0.3828125
vt 0.234375 0.46875
vt 0.2265625 0.46875
vt 0.2265625 0.3828125
vt 0.4765625 0.484375
vt 0.4765625 0.5703125
vt 0.46875 0.5703125
vt 0.46875 0.484375
vt 0.53125 0.8125
vt 0.53125 0.7578125
vt 0.5390625 0.7578125
vt 0.5390625 0.8125
vt 0.078125 0.53125
vt 0.078125 0.4765625
vt 0.0859375 0.4765625
vt 0.0859375 0.53125
vt 0.2734375 0.53125
vt 0.2734375 0.48111953124999995
vt 0.28125 0.48111953124999995
vt 0.28125 0.53125
vt 0 0.59375
vt 0 0.5436195312500001
vt 0.0859375 0.5436195312500001
vt 0.0859375 0.59375
vt 0.078125 0.4765625
vt 0.078125 0.42643203124999995
vt 0.0859375 0.42643203124999995
vt 0.0859375 0.4765625
vt 0.3515625 0.8515625
vt 0.3515625 0.8014320312500001
vt 0.4375 0.8014320312500001
vt 0.4375 0.8515625
vt 0.3359375 0.8515625
vt 0.3359375 0.8014320312500001
vt 0.3515625 0.8014320312500001
vt 0.3515625 0.8515625
vt 0.546875 0.84375
vt 0.5546875 0.84375
vt 0.5546875 0.859375
vt 0.546875 0.859375
vt 0.4765625 0.7265625
vt 0.4765625 0.6764320312500001
vt 0.4921875 0.6764320312500001
vt 0.4921875 0.7265625
vt 0.4765625 0.5859375
vt 0.46875 0.5859375
vt 0.46875 0.5703125
vt 0.4765625 0.5703125
vt 0.2265625 0.53125
vt 0.2265625 0.48111953124999995
vt 0.2734375 0.48111953124999995
vt 0.2734375 0.53125
vt 0.5 0.859375
vt 0.5 0.84375
vt 0.546875 0.84375
vt 0.546875 0.859375
vt 0.484375 0.6171875
vt 0.484375 0.56640625
vt 0.53125 0.56640625
vt 0.53125 0.6171875
vt 0.421875 0.5859375
vt 0.421875 0.5703125
vt 0.46875 0.5703125
vt 0.46875 0.5859375
vt 0.0859375 0.5390625
vt 0.0859375 0.5436195312500001
vt 0 0.5436195312500001
vt 0 0.5390625
vt 0.0859375 0.421875
vt 0.0859375 0.42643203124999995
vt 0.078125 0.42643203124999995
vt 0.078125 0.421875
vt 0.4375 0.796875
vt 0.4375 0.8014320312500001
vt 0.3515625 0.8014320312500001
vt 0.3515625 0.796875
vt 0.3515625 0.796875
vt 0.3515625 0.8014320312500001
vt 0.3359375 0.8014320312500001
vt 0.3359375 0.796875
vt 0.28125 0.4765625
vt 0.28125 0.48111953124999995
vt 0.2734375 0.48111953124999995
vt 0.2734375 0.4765625
vt 0.2734375 0.4765625
vt 0.2734375 0.48111953124999995
vt 0.2265625 0.48111953124999995
vt 0.2265625 0.4765625
vt 0.4921875 0.671875
vt 0.4921875 0.6764320312500001
vt 0.4765625 0.6764320312500001
vt 0.4765625 0.671875
vt 0.3828125 0.46484375
vt 0.3828125 0.46875
vt 0.3359375 0.46875
vt 0.3359375 0.46484375
vt 0.390625 0.6764320312500001
vt 0.390625 0.671875
vt 0.4765625 0.671875
vt 0.4765625 0.6764320312500001
vt 0.046875 0.53125
vt 0 0.53125
vt 0 0.4453125
vt 0.046875 0.4453125
vt 0.6171875 0.93359375
vt 0.6171875 0.9375
vt 0.53125 0.9375
vt 0.53125 0.93359375
vt 0.421875 0.484375
vt 0.46875 0.484375
vt 0.46875 0.5703125
vt 0.421875 0.5703125
vn 0 0 -1
vn 0 0 1
vn 0 1 0
vn 0 -1 0
vn 1 0 0
vn -1 0 0
vn 1 0 0
vn 0 0 1
vn -1 0 0
vn 0 0 -1
vn 0 0 -1
vn 0 1 0
vn 0 0 1
vn 0 -1 0
vn 1 0 0
vn 0 1 0
vn -1 0 0
vn 0 -1 0
vn 0 0 1
vn -1 0 0
vn 0 0 -1
vn 0 0 -1
vn 1 0 0
vn 1 0 0
vn 0 0 1
vn -1 0 0
vn 0 0 1
vn 0 1 0
vn 0 0 -1
vn 0 -1 0
usemtl m_3df7c33e-ca28-ef17-7a88-f5102d1c89c7
f 299/929/233 306/930/233 309/931/233 300/932/233
f 304/933/234 308/934/234 307/935/234 303/936/234
f 299/937/235 300/938/235 304/939/235 303/940/235
f 302/941/236 301/942/236 305/943/236 328/944/236
f 303/945/237 307/946/237 306/947/237 299/948/237
f 300/949/238 309/950/238 308/951/238 304/952/238
f 312/953/239 322/954/239 321/955/239 311/956/239
f 308/957/240 327/958/240 318/959/240 307/960/240
f 309/961/241 319/962/241 327/963/241 308/964/241
f 306/965/242 320/966/242 319/967/242 309/968/242
f 311/969/243 321/970/243 320/971/243 306/972/243
f 312/973/244 311/974/244 306/975/244 307/976/244
f 316/977/245 324/978/245 323/979/245 315/980/245
f 310/981/246 313/982/246 305/983/246 301/984/246
f 315/985/247 323/986/247 322/987/247 312/988/247
f 316/989/248 315/990/248 312/991/248 307/992/248
f 307/993/249 318/994/249 324/995/249 316/996/249
f 314/997/250 317/998/250 305/999/250 313/1000/250
f 305/1001/251 318/1002/251 327/1003/251 328/1004/251
f 328/1005/252 327/1006/252 319/1007/252 302/1008/252
f 302/1009/253 319/1010/253 320/1011/253 301/1012/253
f 301/1013/254 320/1014/254 321/1015/254 310/1016/254
f 310/1017/255 321/1018/255 322/1019/255 313/1020/255
f 313/1021/256 322/1022/256 323/1023/256 314/1024/256
f 314/1025/257 323/1026/257 324/1027/257 317/1028/257
f 325/1029/258 326/1030/258 327/1031/258 328/1032/258
f 326/1033/259 325/1034/259 317/1035/259 324/1036/259
f 327/1037/260 326/1038/260 324/1039/260 318/1040/260
f 328/1041/261 327/1042/261 318/1043/261 305/1044/261
f 325/1045/262 328/1046/262 305/1047/262 317/1048/262
o cube
v 1.875 0.65625 1.78125
v 1.875 0.65625 1.21875
v 1.875 0.5625 1.78125
v 1.875 0.5625 1.21875
v 1.3125 0.65625 1.21875
v 1.3125 0.65625 1.78125
v 1.3125 0.5625 1.21875
v 1.3125 0.5625 1.78125
vt 0.4375 0.734375
vt 0.578125 0.734375
vt 0.578125 0.7109375
vt 0.4375 0.7109375
vt 0.4375 0.875
vt 0.578125 0.875
vt 0.578125 0.8515625
vt 0.4375 0.8515625
vt 0.4375 0.828125
vt 0.578125 0.828125
vt 0.578125 0.8046875
vt 0.4375 0.8046875
vt 0.4375 0.78125
vt 0.578125 0.78125
vt 0.578125 0.7578125
vt 0.4375 0.7578125
vt 0.140625 1
vt 0.140625 0.859375
vt 0 0.859375
vt 0 1
vt 0 0.84375
vt 0 0.703125
vt 0.140625 0.703125
vt 0.140625 0.84375
vn 0 0 -1
vn 1 0 0
vn 0 0 1
vn -1 0 0
vn 0 1 0
vn 0 -1 0
usemtl m_58e040aa-0df0-e85d-2daf-6f02ccd85619
f 332/1052/263 335/1051/263 333/1050/263 330/1049/263
f 331/1056/264 332/1055/264 330/1054/264 329/1053/264
f 336/1060/265 331/1059/265 329/1058/265 334/1057/265
f 335/1064/266 336/1063/266 334/1062/266 333/1061/266
f 334/1068/267 329/1067/267 330/1066/267 333/1065/267
f 335/1072/268 332/1071/268 331/1070/268 336/1069/268
o cube
v 1.8125 0.5625 1.375
v 1.8125 0.5625 1.25
v 1.8125 0.125 1.375
v 1.8125 0.125 1.25
v 1.6875 0.5625 1.25
v 1.6875 0.5625 1.375
v 1.6875 0.125 1.25
v 1.6875 0.125 1.375
vt 0.328125 1
vt 0.359375 1
vt 0.359375 0.890625
vt 0.328125 0.890625
vt 0 0.6875
vt 0.03125 0.6875
vt 0.03125 0.578125
vt 0 0.578125
vt 0.046875 0.6875
vt 0.078125 0.6875
vt 0.078125 0.578125
vt 0.046875 0.578125
vt 0.09375 0.6875
vt 0.125 0.6875
vt 0.125 0.578125
vt 0.09375 0.578125
vt 0.46875 0.625
vt 0.46875 0.59375
vt 0.4375 0.59375
vt 0.4375 0.625
vt 0.4375 0.578125
vt 0.4375 0.546875
vt 0.46875 0.546875
vt 0.46875 0.578125
vn 0 0 -1
vn 1 0 0
vn 0 0 1
vn -1 0 0
vn 0 1 0
vn 0 -1 0
usemtl m_58e040aa-0df0-e85d-2daf-6f02ccd85619
f 340/1076/269 343/1075/269 341/1074/269 338/1073/269
f 339/1080/270 340/1079/270 338/1078/270 337/1077/270
f 344/1084/271 339/1083/271 337/1082/271 342/1081/271
f 343/1088/272 344/1087/272 342/1086/272 341/1085/272
f 342/1092/273 337/1091/273 338/1090/273 341/1089/273
f 343/1096/274 340/1095/274 339/1094/274 344/1093/274
o cube
v 1.8125 0.5625 1.75
v 1.8125 0.5625 1.625
v 1.8125 0.125 1.75
v 1.8125 0.125 1.625
v 1.6875 0.5625 1.625
v 1.6875 0.5625 1.75
v 1.6875 0.125 1.625
v 1.6875 0.125 1.75
vt 0.34375 0.625
vt 0.375 0.625
vt 0.375 0.515625
vt 0.34375 0.515625
vt 0.34375 0.875
vt 0.375 0.875
vt 0.375 0.765625
vt 0.34375 0.765625
vt 0.34375 0.75
vt 0.375 0.75
vt 0.375 0.640625
vt 0.34375 0.640625
vt 0.375 1
vt 0.40625 1
vt 0.40625 0.890625
vt 0.375 0.890625
vt 0.5 1
vt 0.5 0.96875
vt 0.46875 0.96875
vt 0.46875 1
vt 0.46875 0.953125
vt 0.46875 0.921875
vt 0.5 0.921875
vt 0.5 0.953125
vn 0 0 -1
vn 1 0 0
vn 0 0 1
vn -1 0 0
vn 0 1 0
vn 0 -1 0
usemtl m_58e040aa-0df0-e85d-2daf-6f02ccd85619
f 348/1100/275 351/1099/275 349/1098/275 346/1097/275
f 347/1104/276 348/1103/276 346/1102/276 345/1101/276
f 352/1108/277 347/1107/277 345/1106/277 350/1105/277
f 351/1112/278 352/1111/278 350/1110/278 349/1109/278
f 350/1116/279 345/1115/279 346/1114/279 349/1113/279
f 351/1120/280 348/1119/280 347/1118/280 352/1117/280
o cube
v 1.375 0.5625 1.75
v 1.375 0.5625 1.625
v 1.375 0.125 1.75
v 1.375 0.125 1.625
v 1.25 0.5625 1.625
v 1.25 0.5625 1.75
v 1.25 0.125 1.625
v 1.25 0.125 1.75
vt 0.140625 0.59375
vt 0.171875 0.59375
vt 0.171875 0.484375
vt 0.140625 0.484375
vt 0.390625 0.875
vt 0.421875 0.875
vt 0.421875 0.765625
vt 0.390625 0.765625
vt 0.390625 0.75
vt 0.421875 0.75
vt 0.421875 0.640625
vt 0.390625 0.640625
vt 0.390625 0.625
vt 0.421875 0.625
vt 0.421875 0.515625
vt 0.390625 0.515625
vt 0.46875 0.53125
vt 0.46875 0.5
vt 0.4375 0.5
vt 0.4375 0.53125
vt 0.484375 0.625
vt 0.484375 0.59375
vt 0.515625 0.59375
vt 0.515625 0.625
vn 0 0 -1
vn 1 0 0
vn 0 0 1
vn -1 0 0
vn 0 1 0
vn 0 -1 0
usemtl m_58e040aa-0df0-e85d-2daf-6f02ccd85619
f 356/1124/281 359/1123/281 357/1122/281 354/1121/281
f 355/1128/282 356/1127/282 354/1126/282 353/1125/282
f 360/1132/283 355/1131/283 353/1130/283 358/1129/283
f 359/1136/284 360/1135/284 358/1134/284 357/1133/284
f 358/1140/285 353/1139/285 354/1138/285 357/1137/285
f 359/1144/286 356/1143/286 355/1142/286 360/1141/286
o cube
v 1.375 0.5625 1.375
v 1.375 0.5625 1.25
v 1.375 0.125 1.375
v 1.375 0.125 1.25
v 1.25 0.5625 1.25
v 1.25 0.5625 1.375
v 1.25 0.125 1.25
v 1.25 0.125 1.375
vt 0.421875 1
vt 0.453125 1
vt 0.453125 0.890625
vt 0.421875 0.890625
vt 0.1875 0.59375
vt 0.21875 0.59375
vt 0.21875 0.484375
vt 0.1875 0.484375
vt 0.234375 0.59375
vt 0.265625 0.59375
vt 0.265625 0.484375
vt 0.234375 0.484375
vt 0.28125 0.59375
vt 0.3125 0.59375
vt 0.3125 0.484375
vt 0.28125 0.484375
vt 0.515625 0.578125
vt 0.515625 0.546875
vt 0.484375 0.546875
vt 0.484375 0.578125
vt 0.484375 0.53125
vt 0.484375 0.5
vt 0.515625 0.5
vt 0.515625 0.53125
vn 0 0 -1
vn 1 0 0
vn 0 0 1
vn -1 0 0
vn 0 1 0
vn 0 -1 0
usemtl m_58e040aa-0df0-e85d-2daf-6f02ccd85619
f 364/1148/287 367/1147/287 365/1146/287 362/1145/287
f 363/1152/288 364/1151/288 362/1150/288 361/1149/288
f 368/1156/289 363/1155/289 361/1154/289 366/1153/289
f 367/1160/290 368/1159/290 366/1158/290 365/1157/290
f 366/1164/291 361/1163/291 362/1162/291 365/1161/291
f 367/1168/292 364/1167/292 363/1166/292 368/1165/292
o cube
v 1.3125 1.25 1.375
v 1.3125 1.25 1.25
v 1.3125 0.5625 1.375
v 1.3125 0.5625 1.25
v 1.25 1.25 1.25
v 1.25 1.25 1.375
v 1.25 0.5625 1.25
v 1.25 0.5625 1.375
vt 0.03125 0.5625
vt 0.046875 0.5625
vt 0.046875 0.390625
vt 0.03125 0.390625
vt 0.15625 0.78125
vt 0.1875 0.78125
vt 0.1875 0.609375
vt 0.15625 0.609375
vt 0 0.5625
vt 0.015625 0.5625
vt 0.015625 0.390625
vt 0 0.390625
vt 0.203125 0.78125
vt 0.234375 0.78125
vt 0.234375 0.609375
vt 0.203125 0.609375
vt 0.5 0.90625
vt 0.5 0.890625
vt 0.46875 0.890625
vt 0.46875 0.90625
vt 0.390625 0.5
vt 0.390625 0.484375
vt 0.421875 0.484375
vt 0.421875 0.5
vn 0 0 -1
vn 1 0 0
vn 0 0 1
vn -1 0 0
vn 0 1 0
vn 0 -1 0
usemtl m_58e040aa-0df0-e85d-2daf-6f02ccd85619
f 372/1172/293 375/1171/293 373/1170/293 370/1169/293
f 371/1176/294 372/1175/294 370/1174/294 369/1173/294
f 376/1180/295 371/1179/295 369/1178/295 374/1177/295
f 375/1184/296 376/1183/296 374/1182/296 373/1181/296
f 374/1188/297 369/1187/297 370/1186/297 373/1185/297
f 375/1192/298 372/1191/298 371/1190/298 376/1189/298
o cube
v 1.3125 1.25 1.75
v 1.3125 1.25 1.625
v 1.3125 0.5625 1.75
v 1.3125 0.5625 1.625
v 1.25 1.25 1.625
v 1.25 1.25 1.75
v 1.25 0.5625 1.625
v 1.25 0.5625 1.75
vt 0.09375 0.5625
vt 0.109375 0.5625
vt 0.109375 0.390625
vt 0.09375 0.390625
vt 0.25 0.78125
vt 0.28125 0.78125
vt 0.28125 0.609375
vt 0.25 0.609375
vt 0.0625 0.5625
vt 0.078125 0.5625
vt 0.078125 0.390625
vt 0.0625 0.390625
vt 0.296875 0.78125
vt 0.328125 0.78125
vt 0.328125 0.609375
vt 0.296875 0.609375
vt 0.546875 1
vt 0.546875 0.984375
vt 0.515625 0.984375
vt 0.515625 1
vt 0.515625 0.96875
vt 0.515625 0.953125
vt 0.546875 0.953125
vt 0.546875 0.96875
vn 0 0 -1
vn 1 0 0
vn 0 0 1
vn -1 0 0
vn 0 1 0
vn 0 -1 0
usemtl m_58e040aa-0df0-e85d-2daf-6f02ccd85619
f 380/1196/299 383/1195/299 381/1194/299 378/1193/299
f 379/1200/300 380/1199/300 378/1198/300 377/1197/300
f 384/1204/301 379/1203/301 377/1202/301 382/1201/301
f 383/1208/302 384/1207/302 382/1206/302 381/1205/302
f 382/1212/303 377/1211/303 378/1210/303 381/1209/303
f 383/1216/304 380/1215/304 379/1214/304 384/1213/304
o cube
v 1.34375 1.3125 1.8125
v 1.34375 1.3125 1.1875
v 1.34375 0.9375 1.8125
v 1.34375 0.9375 1.1875
v 1.3125 1.3125 1.1875
v 1.3125 1.3125 1.8125
v 1.3125 0.9375 1.1875
v 1.3125 0.9375 1.8125
vt 0.359375 0.5
vt 0.3671875 0.5
vt 0.3671875 0.40625
vt 0.359375 0.40625
vt 0.15625 1
vt 0.3125 1
vt 0.3125 0.90625
vt 0.15625 0.90625
vt 0.328125 0.5
vt 0.3359375 0.5
vt 0.3359375 0.40625
vt 0.328125 0.40625
vt 0.15625 0.890625
vt 0.3125 0.890625
vt 0.3125 0.796875
vt 0.15625 0.796875
vt 0.59375 0.6875
vt 0.59375 0.6796875
vt 0.4375 0.6796875
vt 0.4375 0.6875
vt 0.4375 0.65625
vt 0.4375 0.6484375
vt 0.59375 0.6484375
vt 0.59375 0.65625
vn 0 0 -1
vn 1 0 0
vn 0 0 1
vn -1 0 0
vn 0 1 0
vn 0 -1 0
usemtl m_58e040aa-0df0-e85d-2daf-6f02ccd85619
f 388/1220/305 391/1219/305 389/1218/305 386/1217/305
f 387/1224/306 388/1223/306 386/1222/306 385/1221/306
f 392/1228/307 387/1227/307 385/1226/307 390/1225/307
f 391/1232/308 392/1231/308 390/1230/308 389/1229/308
f 390/1236/309 385/1235/309 386/1234/309 389/1233/309
f 391/1240/310 388/1239/310 387/1238/310 392/1237/310
o cube
v -3 3.125 3.25
v -3 3.125 3
v -3 0.125 3.25
v -3 0.125 3
v -3.25 3.125 3
v -3.25 3.125 3.25
v -3.25 0.125 3
v -3.25 0.125 3.25
vt 0.41015625 0.904296875
vt 0.41796875 0.904296875
vt 0.41796875 0.810546875
vt 0.41015625 0.810546875
vt 0.41015625 0.80859375
vt 0.41796875 0.80859375
vt 0.41796875 0.71484375
vt 0.41015625 0.71484375
vt 0.029296875 0.587890625
vt 0.037109375 0.587890625
vt 0.037109375 0.494140625
vt 0.029296875 0.494140625
vt 0.0390625 0.587890625
vt 0.046875 0.587890625
vt 0.046875 0.494140625
vt 0.0390625 0.494140625
vt 0.103515625 0.87109375
vt 0.095703125 0.87109375
vt 0.095703125 0.87890625
vt 0.103515625 0.87890625
vt 0.11328125 0.87890625
vt 0.10546875 0.87890625
vt 0.10546875 0.87109375
vt 0.11328125 0.87109375
vn 0 0 -1
vn 1 0 0
vn 0 0 1
vn -1 0 0
vn 0 1 0
vn 0 -1 0
usemtl m_146adc63-d879-fbf3-0d1b-9acf7a20cae0
f 396/1244/311 399/1243/311 397/1242/311 394/1241/311
f 395/1248/312 396/1247/312 394/1246/312 393/1245/312
f 400/1252/313 395/1251/313 393/1250/313 398/1249/313
f 399/1256/314 400/1255/314 398/1254/314 397/1253/314
f 398/1260/315 393/1259/315 394/1258/315 397/1257/315
f 399/1264/316 396/1263/316 395/1262/316 400/1261/316
o cube
v 3.25 3.125 3.25
v 3.25 3.125 3
v 3.25 0.125 3.25
v 3.25 0.125 3
v 3 3.125 3
v 3 3.125 3.25
v 3 0.125 3
v 3 0.125 3.25
vt 0.048828125 0.587890625
vt 0.056640625 0.587890625
vt 0.056640625 0.494140625
vt 0.048828125 0.494140625
vt 0.05859375 0.587890625
vt 0.06640625 0.587890625
vt 0.06640625 0.494140625
vt 0.05859375 0.494140625
vt 0.068359375 0.587890625
vt 0.076171875 0.587890625
vt 0.076171875 0.494140625
vt 0.068359375 0.494140625
vt 0.078125 0.587890625
vt 0.0859375 0.587890625
vt 0.0859375 0.494140625
vt 0.078125 0.494140625
vt 0.103515625 0.861328125
vt 0.095703125 0.861328125
vt 0.095703125 0.869140625
vt 0.103515625 0.869140625
vt 0.11328125 0.869140625
vt 0.10546875 0.869140625
vt 0.10546875 0.861328125
vt 0.11328125 0.861328125
vn 0 0 -1
vn 1 0 0
vn 0 0 1
vn -1 0 0
vn 0 1 0
vn 0 -1 0
usemtl m_146adc63-d879-fbf3-0d1b-9acf7a20cae0
f 404/1268/317 407/1267/317 405/1266/317 402/1265/317
f 403/1272/318 404/1271/318 402/1270/318 401/1269/318
f 408/1276/319 403/1275/319 401/1274/319 406/1273/319
f 407/1280/320 408/1279/320 406/1278/320 405/1277/320
f 406/1284/321 401/1283/321 402/1282/321 405/1281/321
f 407/1288/322 404/1287/322 403/1286/322 408/1285/322
o cube
v 3.25 3.125 3
v 3.25 3.125 -4
v 3.25 0.125 3
v 3.25 0.125 -4
v 3 3.125 3
v 3 3.125 -4
v 3 0.125 3
v 3 0.125 -4
v 3 1.1875 3
v 3 1.1875 -4
v 3.25 1.1875 -4
v 3.25 1.1875 3
v 3 2.4375 -4
v 3 2.4375 3
v 3.25 2.4375 3
v 3.25 2.4375 -4
v 3 2.4375 -0.3125
v 3 1.1875 -0.3125
v 3 0.125 -0.3125
v 3.25 0.125 -0.3125
v 3.25 1.1875 -0.3125
v 3.25 2.4375 -0.3125
v 3.25 3.125 -0.3125
v 3 3.125 -0.3125
v 3 1.1875 -2.6875
v 3 2.4375 -2.6875
v 3 3.125 -2.6875
v 3.25 3.125 -2.6875
v 3.25 2.4375 -2.6875
v 3.25 1.1875 -2.6875
v 3.25 0.125 -2.6875
v 3 0.125 -2.6875
v 3.0625 2.4375 -0.3125
v 3.0625 1.1875 -2.6875
v 3.0625 2.4375 -2.6875
v 3.0625 1.1875 -0.3125
vt 0.103515625 0.939453125
vt 0.177734375 0.939453125
vt 0.177734375 0.978515625
vt 0.103515625 0.978515625
vt 0.453125 0.6328125
vt 0.37890625 0.6328125
vt 0.37890625 0.59375
vt 0.453125 0.59375
vt 0.0078125 0.501953125
vt 0.0078125 0.576171875
vt 0 0.576171875
vt 0 0.501953125
vt 0.009765625 0.513671875
vt 0.009765625 0.439453125
vt 0.017578125 0.439453125
vt 0.017578125 0.513671875
vt 0.095703125 0.52734375
vt 0.095703125 0.56640625
vt 0.087890625 0.56640625
vt 0.087890625 0.52734375
vt 0.10546875 0.52734375
vt 0.10546875 0.56640625
vt 0.09765625 0.56640625
vt 0.09765625 0.52734375
vt 0.115234375 0.84375
vt 0.041015625 0.84375
vt 0.041015625 0.810546875
vt 0.115234375 0.810546875
vt 0.10546875 0.494140625
vt 0.10546875 0.52734375
vt 0.09765625 0.52734375
vt 0.09765625 0.494140625
vt 0.103515625 0.90625
vt 0.177734375 0.90625
vt 0.177734375 0.939453125
vt 0.103515625 0.939453125
vt 0.095703125 0.494140625
vt 0.095703125 0.52734375
vt 0.087890625 0.52734375
vt 0.087890625 0.494140625
vt 0.115234375 0.904296875
vt 0.041015625 0.904296875
vt 0.041015625 0.8828125
vt 0.115234375 0.8828125
vt 0.087890625 0.587890625
vt 0.087890625 0.56640625
vt 0.095703125 0.56640625
vt 0.095703125 0.587890625
vt 0.103515625 0.978515625
vt 0.177734375 0.978515625
vt 0.177734375 1
vt 0.103515625 1
vt 0.09765625 0.587890625
vt 0.09765625 0.56640625
vt 0.10546875 0.56640625
vt 0.10546875 0.587890625
vt 0.21875 0.8828125
vt 0.115234375 0.8828125
vt 0.115234375 0.84375
vt 0.21875 0.84375
vt 0.21875 0.84375
vt 0.115234375 0.84375
vt 0.115234375 0.810546875
vt 0.21875 0.810546875
vt 0.009765625 0.6171875
vt 0.009765625 0.513671875
vt 0.017578125 0.513671875
vt 0.017578125 0.6171875
vt 0 0.90625
vt 0.103515625 0.90625
vt 0.103515625 0.939453125
vt 0 0.939453125
vt 0 0.939453125
vt 0.103515625 0.939453125
vt 0.103515625 0.978515625
vt 0 0.978515625
vt 0 0.978515625
vt 0.103515625 0.978515625
vt 0.103515625 1
vt 0 1
vt 0.0078125 0.3984375
vt 0.0078125 0.501953125
vt 0 0.501953125
vt 0 0.3984375
vt 0.21875 0.904296875
vt 0.115234375 0.904296875
vt 0.115234375 0.8828125
vt 0.21875 0.8828125
vt 0 0.84375
vt 0.041015625 0.84375
vt 0.041015625 0.8828125
vt 0 0.8828125
vt 0 0.8828125
vt 0.041015625 0.8828125
vt 0.041015625 0.904296875
vt 0 0.904296875
vt 0 0.6171875
vt 0 0.576171875
vt 0.0078125 0.576171875
vt 0.0078125 0.6171875
vt 0.21875 1
vt 0.177734375 1
vt 0.177734375 0.978515625
vt 0.21875 0.978515625
vt 0.21875 0.978515625
vt 0.177734375 0.978515625
vt 0.177734375 0.939453125
vt 0.21875 0.939453125
vt 0.21875 0.939453125
vt 0.177734375 0.939453125
vt 0.177734375 0.90625
vt 0.21875 0.90625
vt 0.017578125 0.3984375
vt 0.017578125 0.439453125
vt 0.009765625 0.439453125
vt 0.009765625 0.3984375
vt 0 0.810546875
vt 0.041015625 0.810546875
vt 0.041015625 0.84375
vt 0 0.84375
vt 0.18359375 0.71484375
vt 0.18359375 0.7890625
vt 0.181640625 0.7890625
vt 0.181640625 0.71484375
vt 0.203125 0.75
vt 0.203125 0.7890625
vt 0.201171875 0.7890625
vt 0.201171875 0.75
vt 0.1875 0.71484375
vt 0.1875 0.7890625
vt 0.185546875 0.7890625
vt 0.185546875 0.71484375
vt 0.255859375 0.58203125
vt 0.255859375 0.54296875
vt 0.2578125 0.54296875
vt 0.2578125 0.58203125
vn 1 0 0
vn -1 0 0
vn 0 1 0
vn 0 -1 0
vn 0 0 1
vn 0 0 -1
vn -1 0 0
vn 0 0 -1
vn 1 0 0
vn 0 0 1
vn -1 0 0
vn 0 0 1
vn 1 0 0
vn 0 0 -1
vn -1 0 0
vn -1 0 0
vn 0 -1 0
vn 1 0 0
vn 1 0 0
vn 1 0 0
vn 0 1 0
vn -1 0 0
vn -1 0 0
vn -1 0 0
vn 0 1 0
vn 1 0 0
vn 1 0 0
vn 1 0 0
vn 0 -1 0
vn -1 0 0
vn 0 -1 0
vn 0 0 1
vn 0 1 0
vn 0 0 -1
usemtl m_146adc63-d879-fbf3-0d1b-9acf7a20cae0
f 429/1289/323 438/1290/323 437/1291/323 430/1292/323
f 441/1293/324 443/1294/324 442/1295/324 444/1296/324
f 431/1297/325 436/1298/325 435/1299/325 432/1300/325
f 427/1301/326 440/1302/326 439/1303/326 428/1304/326
f 420/1305/327 423/1306/327 422/1307/327 417/1308/327
f 418/1309/328 421/1310/328 424/1311/328 419/1312/328
f 426/1313/329 433/1314/329 440/1315/329 427/1316/329
f 416/1317/330 418/1318/330 419/1319/330 412/1320/330
f 428/1321/331 439/1322/331 438/1323/331 429/1324/331
f 411/1325/332 420/1326/332 417/1327/332 415/1328/332
f 432/1329/333 435/1330/333 434/1331/333 425/1332/333
f 413/1333/334 422/1334/334 423/1335/334 409/1336/334
f 430/1337/335 437/1338/335 436/1339/335 431/1340/335
f 410/1341/336 424/1342/336 421/1343/336 414/1344/336
f 422/1345/337 425/1346/337 426/1347/337 417/1348/337
f 417/1349/338 426/1350/338 427/1351/338 415/1352/338
f 415/1353/339 427/1354/339 428/1355/339 411/1356/339
f 411/1357/340 428/1358/340 429/1359/340 420/1360/340
f 420/1361/341 429/1362/341 430/1363/341 423/1364/341
f 423/1365/342 430/1366/342 431/1367/342 409/1368/342
f 409/1369/343 431/1370/343 432/1371/343 413/1372/343
f 413/1373/344 432/1374/344 425/1375/344 422/1376/344
f 418/1377/345 433/1378/345 434/1379/345 421/1380/345
f 421/1381/346 434/1382/346 435/1383/346 414/1384/346
f 414/1385/347 435/1386/347 436/1387/347 410/1388/347
f 410/1389/348 436/1390/348 437/1391/348 424/1392/348
f 424/1393/349 437/1394/349 438/1395/349 419/1396/349
f 419/1397/350 438/1398/350 439/1399/350 412/1400/350
f 412/1401/351 439/1402/351 440/1403/351 416/1404/351
f 416/1405/352 440/1406/352 433/1407/352 418/1408/352
f 443/1409/353 441/1410/353 425/1411/353 434/1412/353
f 442/1413/354 443/1414/354 434/1415/354 433/1416/354
f 444/1417/355 442/1418/355 433/1419/355 426/1420/355
f 441/1421/356 444/1422/356 426/1423/356 425/1424/356
o cube
v 3.25 3.125 -4
v 3.25 3.125 -4.25
v 3.25 0.125 -4
v 3.25 0.125 -4.25
v 3 3.125 -4.25
v 3 3.125 -4
v 3 0.125 -4.25
v 3 0.125 -4
vt 0.107421875 0.587890625
vt 0.115234375 0.587890625
vt 0.115234375 0.494140625
vt 0.107421875 0.494140625
vt 0.1171875 0.587890625
vt 0.125 0.587890625
vt 0.125 0.494140625
vt 0.1171875 0.494140625
vt 0.126953125 0.587890625
vt 0.134765625 0.587890625
vt 0.134765625 0.494140625
vt 0.126953125 0.494140625
vt 0.13671875 0.587890625
vt 0.14453125 0.587890625
vt 0.14453125 0.494140625
vt 0.13671875 0.494140625
vt 0.052734375 0.859375
vt 0.044921875 0.859375
vt 0.044921875 0.8671875
vt 0.052734375 0.8671875
vt 0.0625 0.8671875
vt 0.0546875 0.8671875
vt 0.0546875 0.859375
vt 0.0625 0.859375
vn 0 0 -1
vn 1 0 0
vn 0 0 1
vn -1 0 0
vn 0 1 0
vn 0 -1 0
usemtl m_146adc63-d879-fbf3-0d1b-9acf7a20cae0
f 448/1428/357 451/1427/357 449/1426/357 446/1425/357
f 447/1432/358 448/1431/358 446/1430/358 445/1429/358
f 452/1436/359 447/1435/359 445/1434/359 450/1433/359
f 451/1440/360 452/1439/360 450/1438/360 449/1437/360
f 450/1444/361 445/1443/361 446/1442/361 449/1441/361
f 451/1448/362 448/1447/362 447/1446/362 452/1445/362
o cube
v 3 3.125 -4
v 3 3.125 -4.25
v 3 0.125 -4
v 3 0.125 -4.25
v -3 3.125 -4.25
v -3 3.125 -4
v -3 0.125 -4.25
v -3 0.125 -4
vt 0.220703125 0.904296875
vt 0.408203125 0.904296875
vt 0.408203125 0.810546875
vt 0.220703125 0.810546875
vt 0.146484375 0.587890625
vt 0.154296875 0.587890625
vt 0.154296875 0.494140625
vt 0.146484375 0.494140625
vt 0.220703125 0.80859375
vt 0.408203125 0.80859375
vt 0.408203125 0.71484375
vt 0.220703125 0.71484375
vt 0.15625 0.587890625
vt 0.1640625 0.587890625
vt 0.1640625 0.494140625
vt 0.15625 0.494140625
vt 0.216796875 0.609375
vt 0.029296875 0.609375
vt 0.029296875 0.6171875
vt 0.216796875 0.6171875
vt 0.216796875 0.607421875
vt 0.029296875 0.607421875
vt 0.029296875 0.599609375
vt 0.216796875 0.599609375
vn 0 0 -1
vn 1 0 0
vn 0 0 1
vn -1 0 0
vn 0 1 0
vn 0 -1 0
usemtl m_146adc63-d879-fbf3-0d1b-9acf7a20cae0
f 456/1452/363 459/1451/363 457/1450/363 454/1449/363
f 455/1456/364 456/1455/364 454/1454/364 453/1453/364
f 460/1460/365 455/1459/365 453/1458/365 458/1457/365
f 459/1464/366 460/1463/366 458/1462/366 457/1461/366
f 458/1468/367 453/1467/367 454/1466/367 457/1465/367
f 459/1472/368 456/1471/368 455/1470/368 460/1469/368
o cube
v 3 3.125 3.25
v 3 3.125 3
v 3 0.125 3.25
v 3 0.125 3
v -3 3.125 3
v -3 3.125 3.25
v -3 0.125 3
v -3 0.125 3.25
vt 0 0.712890625
vt 0.1875 0.712890625
vt 0.1875 0.619140625
vt 0 0.619140625
vt 0.166015625 0.587890625
vt 0.173828125 0.587890625
vt 0.173828125 0.494140625
vt 0.166015625 0.494140625
vt 0.189453125 0.712890625
vt 0.376953125 0.712890625
vt 0.376953125 0.619140625
vt 0.189453125 0.619140625
vt 0.17578125 0.587890625
vt 0.18359375 0.587890625
vt 0.18359375 0.494140625
vt 0.17578125 0.494140625
vt 0.216796875 0.58984375
vt 0.029296875 0.58984375
vt 0.029296875 0.59765625
vt 0.216796875 0.59765625
vt 0.40625 0.591796875
vt 0.21875 0.591796875
vt 0.21875 0.583984375
vt 0.40625 0.583984375
vn 0 0 -1
vn 1 0 0
vn 0 0 1
vn -1 0 0
vn 0 1 0
vn 0 -1 0
usemtl m_146adc63-d879-fbf3-0d1b-9acf7a20cae0
f 464/1476/369 467/1475/369 465/1474/369 462/1473/369
f 463/1480/370 464/1479/370 462/1478/370 461/1477/370
f 468/1484/371 463/1483/371 461/1482/371 466/1481/371
f 467/1488/372 468/1487/372 466/1486/372 465/1485/372
f 466/1492/373 461/1491/373 462/1490/373 465/1489/373
f 467/1496/374 464/1495/374 463/1494/374 468/1493/374
o cube
v -3 3.125 -4
v -3 3.125 -4.25
v -3 0.125 -4
v -3 0.125 -4.25
v -3.25 3.125 -4.25
v -3.25 3.125 -4
v -3.25 0.125 -4.25
v -3.25 0.125 -4
vt 0.185546875 0.587890625
vt 0.193359375 0.587890625
vt 0.193359375 0.494140625
vt 0.185546875 0.494140625
vt 0.1953125 0.587890625
vt 0.203125 0.587890625
vt 0.203125 0.494140625
vt 0.1953125 0.494140625
vt 0.205078125 0.587890625
vt 0.212890625 0.587890625
vt 0.212890625 0.494140625
vt 0.205078125 0.494140625
vt 0.21484375 0.58203125
vt 0.22265625 0.58203125
vt 0.22265625 0.48828125
vt 0.21484375 0.48828125
vt 0.072265625 0.859375
vt 0.064453125 0.859375
vt 0.064453125 0.8671875
vt 0.072265625 0.8671875
vt 0.08203125 0.8671875
vt 0.07421875 0.8671875
vt 0.07421875 0.859375
vt 0.08203125 0.859375
vn 0 0 -1
vn 1 0 0
vn 0 0 1
vn -1 0 0
vn 0 1 0
vn 0 -1 0
usemtl m_146adc63-d879-fbf3-0d1b-9acf7a20cae0
f 472/1500/375 475/1499/375 473/1498/375 470/1497/375
f 471/1504/376 472/1503/376 470/1502/376 469/1501/376
f 476/1508/377 471/1507/377 469/1506/377 474/1505/377
f 475/1512/378 476/1511/378 474/1510/378 473/1509/378
f 474/1516/379 469/1515/379 470/1514/379 473/1513/379
f 475/1520/380 472/1519/380 471/1518/380 476/1517/380
o cube
v -3 3.125 3
v -3 3.125 -4
v -3 0.125 3
v -3 0.125 -4
v -3.25 3.125 3
v -3.25 3.125 -4
v -3.25 0.125 3
v -3.25 0.125 -4
v -3 3.125 -2.375
v -3 0.125 -2.375
v -3.25 0.125 -2.375
v -3.25 3.125 -2.375
v -3 3.125 -3.625
v -3 0.125 -3.625
v -3.25 0.125 -3.625
v -3.25 3.125 -3.625
v -3 2.625 -3.625
v -3 2.625 -2.375
v -3 2.625 3
v -3.25 2.625 3
v -3.25 2.625 -2.375
v -3.25 2.625 -3.625
v -3.25 2.625 -4
v -3 2.625 -4
v -3.09375 0.125 -3.625
v -3.09375 2.625 -3.625
v -3.09375 2.625 -2.375
v -3.09375 0.125 -2.375
v -3.25 0.25 -2.375
v -3 0.25 -3.625
v -3.25 0.25 -3.625
v -3 0.25 -2.375
vt 0 0.80859375
vt 0 0.79296875
vt 0.16796875 0.79296875
vt 0.16796875 0.80859375
vt 0.271484375 1
vt 0.271484375 0.984375
vt 0.439453125 0.984375
vt 0.439453125 1
vt 0.02734375 0.3984375
vt 0.02734375 0.56640625
vt 0.01953125 0.56640625
vt 0.01953125 0.3984375
vt 0.408203125 0.591796875
vt 0.408203125 0.423828125
vt 0.416015625 0.423828125
vt 0.416015625 0.591796875
vt 0.224609375 0.58203125
vt 0.224609375 0.56640625
vt 0.232421875 0.56640625
vt 0.232421875 0.58203125
vt 0.234375 0.58203125
vt 0.234375 0.56640625
vt 0.2421875 0.56640625
vt 0.2421875 0.58203125
vt 0.16796875 0.80859375
vt 0.16796875 0.79296875
vt 0.20703125 0.79296875
vt 0.20703125 0.80859375
vt 0.171875 0.7890625
vt 0.171875 0.75
vt 0.1796875 0.75
vt 0.1796875 0.7890625
vt 0.232421875 1
vt 0.232421875 0.984375
vt 0.271484375 0.984375
vt 0.271484375 1
vt 0.02734375 0.56640625
vt 0.02734375 0.60546875
vt 0.01953125 0.60546875
vt 0.01953125 0.56640625
vt 0.20703125 0.80859375
vt 0.20703125 0.79296875
vt 0.21875 0.79296875
vt 0.21875 0.80859375
vt 0.09375 0.8671875
vt 0.09375 0.87890625
vt 0.0859375 0.87890625
vt 0.0859375 0.8671875
vt 0.220703125 1
vt 0.220703125 0.984375
vt 0.232421875 0.984375
vt 0.232421875 1
vt 0.01953125 0.6171875
vt 0.01953125 0.60546875
vt 0.02734375 0.60546875
vt 0.02734375 0.6171875
vt 0.16796875 0.71484375
vt 0.16796875 0.79296875
vt 0 0.79296875
vt 0 0.71484375
vt 0.232421875 0.48828125
vt 0.232421875 0.56640625
vt 0.224609375 0.56640625
vt 0.224609375 0.48828125
vt 0.439453125 0.90625
vt 0.439453125 0.984375
vt 0.271484375 0.984375
vt 0.271484375 0.90625
vt 0.271484375 0.90625
vt 0.271484375 0.984375
vt 0.232421875 0.984375
vt 0.232421875 0.90625
vt 0.232421875 0.90625
vt 0.232421875 0.984375
vt 0.220703125 0.984375
vt 0.220703125 0.90625
vt 0.2421875 0.48828125
vt 0.2421875 0.56640625
vt 0.234375 0.56640625
vt 0.234375 0.48828125
vt 0.21875 0.71484375
vt 0.21875 0.79296875
vt 0.20703125 0.79296875
vt 0.20703125 0.71484375
vt 0.244140625 0.58203125
vt 0.244140625 0.50390625
vt 0.2470703125 0.50390625
vt 0.2470703125 0.58203125
vt 0.189453125 0.7890625
vt 0.189453125 0.75
vt 0.1923828125 0.75
vt 0.1923828125 0.7890625
vt 0.2529296875 0.50390625
vt 0.2529296875 0.58203125
vt 0.25 0.58203125
vt 0.25 0.50390625
vt 0.1953125 0.7890625
vt 0.1953125 0.75
vt 0.1982421875 0.75
vt 0.1982421875 0.7890625
vt 0.41796875 0.634765625
vt 0.41796875 0.712890625
vt 0.37890625 0.712890625
vt 0.37890625 0.634765625
vt 0.083984375 0.87890625
vt 0.044921875 0.87890625
vt 0.044921875 0.875
vt 0.083984375 0.875
vt 0.091796875 0.865234375
vt 0.083984375 0.865234375
vt 0.083984375 0.861328125
vt 0.091796875 0.861328125
vt 0.083984375 0.873046875
vt 0.044921875 0.873046875
vt 0.044921875 0.869140625
vt 0.083984375 0.869140625
vt 0.091796875 0.859375
vt 0.083984375 0.859375
vt 0.083984375 0.85546875
vt 0.091796875 0.85546875
vn 1 0 0
vn -1 0 0
vn 0 1 0
vn 0 -1 0
vn 0 0 1
vn 0 0 -1
vn 1 0 0
vn 0 -1 0
vn -1 0 0
vn 0 1 0
vn 1 0 0
vn 0 -1 0
vn -1 0 0
vn 0 1 0
vn 1 0 0
vn 0 0 1
vn -1 0 0
vn -1 0 0
vn -1 0 0
vn 0 0 -1
vn 1 0 0
vn 0 0 1
vn 0 -1 0
vn 0 0 -1
vn 0 1 0
vn 1 0 0
vn 1 0 0
vn 0 0 1
vn -1 0 0
vn 0 0 -1
usemtl m_146adc63-d879-fbf3-0d1b-9acf7a20cae0
f 477/1521/381 495/1522/381 494/1523/381 485/1524/381
f 488/1525/382 497/1526/382 496/1527/382 481/1528/382
f 477/1529/383 485/1530/383 488/1531/383 481/1532/383
f 483/1533/384 487/1534/384 486/1535/384 479/1536/384
f 481/1537/385 496/1538/385 495/1539/385 477/1540/385
f 478/1541/386 500/1542/386 499/1543/386 482/1544/386
f 485/1545/387 494/1546/387 493/1547/387 489/1548/387
f 505/1549/388 507/1550/388 506/1551/388 508/1552/388
f 492/1553/389 498/1554/389 497/1555/389 488/1556/389
f 485/1557/390 489/1558/390 492/1559/390 488/1560/390
f 489/1561/391 493/1562/391 500/1563/391 478/1564/391
f 480/1565/392 490/1566/392 491/1567/392 484/1568/392
f 482/1569/393 499/1570/393 498/1571/393 492/1572/393
f 482/1573/394 492/1574/394 489/1575/394 478/1576/394
f 486/1577/395 494/1578/395 495/1579/395 479/1580/395
f 479/1581/396 495/1582/396 496/1583/396 483/1584/396
f 483/1585/397 496/1586/397 497/1587/397 487/1588/397
f 487/1589/398 497/1590/398 498/1591/398 491/1592/398
f 491/1593/399 498/1594/399 499/1595/399 484/1596/399
f 484/1597/400 499/1598/400 500/1599/400 480/1600/400
f 480/1601/401 500/1602/401 493/1603/401 490/1604/401
f 502/1605/402 501/1606/402 490/1607/402 493/1608/402
f 503/1609/403 502/1610/403 493/1611/403 494/1612/403
f 504/1613/404 503/1614/404 494/1615/404 486/1616/404
f 501/1617/405 504/1618/405 486/1619/405 490/1620/405
f 501/1621/406 502/1622/406 503/1623/406 504/1624/406
f 507/1625/407 505/1626/407 487/1627/407 491/1628/407
f 506/1629/408 507/1630/408 491/1631/408 490/1632/408
f 508/1633/409 506/1634/409 490/1635/409 486/1636/409
f 505/1637/410 508/1638/410 486/1639/410 487/1640/410
o cube
v 3 0.125 3
v 3 0.125 -4
v 3 0 3
v 3 0 -4
v -3 0.125 3
v -3 0.125 -4
v -3 0 3
v -3 0 -4
vt 0.4375 0.55078125
vt 0.4375 0.55859375
vt 0 0.55859375
vt 0 0.55078125
vt 0.87890625 0.55078125
vt 0.87890625 0.55859375
vt 0.44140625 0.55859375
vt 0.44140625 0.55078125
vt 0.375 1
vt 0 1
vt 0 0.5625
vt 0.375 0.5625
vt 0.75390625 0.5390625
vt 0.75390625 0.546875
vt 0.37890625 0.546875
vt 0.37890625 0.5390625
vt 0.375 0.5390625
vt 0.375 0.546875
vt 0 0.546875
vt 0 0.5390625
vt 0.37890625 0.5625
vt 0.37890625 1
vt 0.75390625 1
vt 0.75390625 0.5625
vn 1 0 0
vn -1 0 0
vn 0 1 0
vn 0 0 1
vn 0 0 -1
vn 0 -1 0
usemtl m_901abd15-3b77-6d37-228f-cdb122a3af5f
f 512/1641/411 510/1642/411 509/1643/411 511/1644/411
f 515/1645/412 513/1646/412 514/1647/412 516/1648/412
f 510/1649/413 514/1650/413 513/1651/413 509/1652/413
f 511/1653/414 509/1654/414 513/1655/414 515/1656/414
f 516/1657/415 514/1658/415 510/1659/415 512/1660/415
f 512/1661/416 511/1662/416 515/1663/416 516/1664/416
o plane
v 0.875 0.13125 2.875
v 0.875 0.13125 -0.125
v -1.375 0.13125 2.875
v -1.375 0.13125 -0.125
vt 0.5625 0.25
vt 0.5625 1
vt 0 1
vt 0 0.25
vn 0 1 0
usemtl m_db10e72c-993d-8a35-c2a3-7550a5137105
f 517/1665/417 518/1666/417 520/1667/417 519/1668/417
o circle
v 0.18750000000000003 0.13124999999999998 -1.8125
v 0.5726769641197389 0.13124999999999998 -0.3124999999999998
v 1.239823035880261 0.13124999999999998 -0.7144237886466835
v 1.6250000000000002 0.13124999999999998 -1.410576211353316
v 1.6250000000000002 0.13124999999999998 -2.214423788646684
v 1.2398230358802615 0.13124999999999998 -2.910576211353316
v 0.5726769641197393 0.13124999999999998 -3.3125
v -0.19767696411973823 0.13124999999999998 -3.3125
v -0.8648230358802611 0.13124999999999998 -2.9105762113533165
v -1.25 0.13124999999999998 -2.214423788646684
v -1.2500000000000002 0.13124999999999998 -1.4105762113533167
v -0.8648230358802615 0.13124999999999998 -0.714423788646684
v -0.19767696411973879 0.13124999999999998 -0.3124999999999998
vt 0.6224562499999999 0.3504812500000001
vt 0.71875 0.52451875
vt 0.359375 0.625
vt 0.71875 0.52451875
vt 0.71875 0.72548125
vt 0.359375 0.625
vt 0.71875 0.72548125
vt 0.6224562499999999 0.8995187499999999
vt 0.359375 0.625
vt 0.6224562499999999 0.8995187499999999
vt 0.45566875 1
vt 0.359375 0.625
vt 0.45566875 1
vt 0.26308125000000004 1
vt 0.359375 0.625
vt 0.26308125000000004 1
vt 0.09629375000000001 0.8995187499999999
vt 0.359375 0.625
vt 0.09629375000000001 0.8995187499999999
vt 0 0.72548125
vt 0.359375 0.625
vt 0 0.72548125
vt 0 0.52451875
vt 0.359375 0.625
vt 0 0.52451875
vt 0.09629375000000001 0.3504812500000001
vt 0.359375 0.625
vt 0.09629375000000001 0.3504812500000001
vt 0.26308125000000004 0.25
vt 0.359375 0.625
vt 0.26308125000000004 0.25
vt 0.45566875 0.25
vt 0.359375 0.625
vt 0.45566875 0.25
vt 0.6224562499999999 0.3504812500000001
vt 0.359375 0.625
vn 0 1 0
vn 0 1 0
vn 0 1 0
vn 0 1 0
vn 0 1 0
vn 0 1 0
vn 0 1 0
vn 0 1 0
vn 0 1 0
vn 0 1 0
vn 0 1 0
vn 0 1 0
usemtl m_5cdf01e4-f05c-1731-1ff2-9da15e51b650
f 523/1669/418 524/1670/418 521/1671/418
f 524/1672/419 525/1673/419 521/1674/419
f 525/1675/420 526/1676/420 521/1677/420
f 526/1678/421 527/1679/421 521/1680/421
f 527/1681/422 528/1682/422 521/1683/422
f 528/1684/423 529/1685/423 521/1686/423
f 529/1687/424 530/1688/424 521/1689/424
f 530/1690/425 531/1691/425 521/1692/425
f 531/1693/426 532/1694/426 521/1695/426
f 532/1696/427 533/1697/427 521/1698/427
f 533/1699/428 522/1700/428 521/1701/428
f 522/1702/429 523/1703/429 521/1704/429
o cube
v 0.375 0.6875 -3.375
v 0.375 0.6875 -4
v 0.375 0.1875 -3.375
v 0.375 0.1875 -4
v -1 0.6875 -3.375
v -1 0.6875 -4
v -1 0.1875 -3.375
v -1 0.1875 -4
v 0.375 0.1875 -3.84375
v -1 0.1875 -3.84375
v 0.375 0.1875 -3.6875
v -1 0.1875 -3.6875
v 0.375 0.1875 -3.53125
v -1 0.1875 -3.53125
v -1 0.6875 -3.84375
v -1 0.6875 -3.6875
v -1 0.6875 -3.53125
v 0.375 0.6875 -3.84375
v 0.375 0.6875 -3.6875
v 0.375 0.6875 -3.53125
v -0.875 0.1875 -3.84375
v -0.875 0.1875 -4
v -0.875 0.6875 -4
v -0.875 0.6875 -3.84375
v -0.875 0.6875 -3.6875
v -0.875 0.6875 -3.53125
v -0.875 0.6875 -3.375
v -0.875 0.1875 -3.375
v -0.875 0.1875 -3.53125
v -0.875 0.1875 -3.6875
v 0.25 0.1875 -3.84375
v 0.25 0.1875 -4
v 0.25 0.6875 -4
v 0.25 0.6875 -3.84375
v 0.25 0.6875 -3.6875
v 0.25 0.6875 -3.53125
v 0.25 0.6875 -3.375
v 0.25 0.1875 -3.375
v 0.25 0.1875 -3.53125
v 0.25 0.1875 -3.6875
v -1 0.125 -3.53125
v -0.875 0.125 -3.375
v -0.875 0.125 -3.53125
v -1 0.125 -3.375
v -1 0.125 -4
v -0.875 0.125 -3.84375
v -0.875 0.125 -4
v -1 0.125 -3.84375
v 0.375 0.125 -3.84375
v 0.25 0.125 -3.84375
v 0.25 0.125 -4
v 0.375 0.125 -4
v 0.375 0.125 -3.375
v 0.25 0.125 -3.375
v 0.25 0.125 -3.53125
v 0.375 0.125 -3.53125
v 0.25 0.625 -3.375
v -0.875 0.625 -3.375
v -1 0.625 -3.375
v -1 0.625 -3.53125
v -1 0.625 -3.6875
v -1 0.625 -3.84375
v -1 0.625 -4
v -0.875 0.625 -4
v 0.25 0.625 -4
v 0.375 0.625 -4
v 0.375 0.625 -3.84375
v 0.375 0.625 -3.6875
v 0.375 0.625 -3.53125
v 0.375 0.625 -3.375
v 0.25 0.25 -3.375
v -0.875 0.25 -3.375
v -1 0.25 -3.375
v -1 0.25 -3.53125
v -1 0.25 -3.6875
v -1 0.25 -3.84375
v -1 0.25 -4
v -0.875 0.25 -4
v 0.25 0.25 -4
v 0.375 0.25 -4
v 0.375 0.25 -3.84375
v 0.375 0.25 -3.6875
v 0.375 0.25 -3.53125
v 0.375 0.25 -3.375
v -0.875 0.625 -3.34375
v 0.25 0.25 -3.34375
v -0.875 0.25 -3.34375
v 0.25 0.625 -3.34375
vt 0.359375 0.734375
vt 0.359375 0.71875
vt 0.3984375 0.71875
vt 0.3984375 0.734375
vt 0.4765625 0.578125
vt 0.4765625 0.5625
vt 0.515625 0.5625
vt 0.515625 0.578125
vt 0 0.84375
vt 0.03125 0.84375
vt 0.03125 0.8828125
vt 0 0.8828125
vt 0.0625 0.5703125
vt 0.09375 0.5703125
vt 0.09375 0.609375
vt 0.0625 0.609375
vt 0 0.65625
vt 0 0.640625
vt 0.03125 0.640625
vt 0.03125 0.65625
vt 0.671875 1
vt 0.671875 0.984375
vt 0.703125 0.984375
vt 0.703125 1
vt 0.109375 0.5703125
vt 0.140625 0.5703125
vt 0.140625 0.609375
vt 0.109375 0.609375
vt 0 0.7109375
vt 0.03125 0.7109375
vt 0.03125 0.75
vt 0 0.75
vt 0 0.75
vt 0.03125 0.75
vt 0.03125 0.7890625
vt 0 0.7890625
vt 0.359375 0.578125
vt 0.359375 0.5625
vt 0.3984375 0.5625
vt 0.3984375 0.578125
vt 0.3984375 0.578125
vt 0.3984375 0.5625
vt 0.4375 0.5625
vt 0.4375 0.578125
vt 0.4375 0.578125
vt 0.4375 0.5625
vt 0.4765625 0.5625
vt 0.4765625 0.578125
vt 0 0.9609375
vt 0.03125 0.9609375
vt 0.03125 1
vt 0 1
vt 0 0.921875
vt 0.03125 0.921875
vt 0.03125 0.9609375
vt 0 0.9609375
vt 0 0.8828125
vt 0.03125 0.8828125
vt 0.03125 0.921875
vt 0 0.921875
vt 0.4765625 0.734375
vt 0.4765625 0.71875
vt 0.515625 0.71875
vt 0.515625 0.734375
vt 0.4375 0.734375
vt 0.4375 0.71875
vt 0.4765625 0.71875
vt 0.4765625 0.734375
vt 0.3984375 0.734375
vt 0.3984375 0.71875
vt 0.4375 0.71875
vt 0.4375 0.734375
vt 0.03125 0.671875
vt 0.3125 0.671875
vt 0.3125 0.7109375
vt 0.03125 0.7109375
vt 0.390625 1
vt 0.390625 0.984375
vt 0.671875 0.984375
vt 0.671875 1
vt 0.03125 0.9609375
vt 0.3125 0.9609375
vt 0.3125 1
vt 0.03125 1
vt 0.03125 0.921875
vt 0.3125 0.921875
vt 0.3125 0.9609375
vt 0.03125 0.9609375
vt 0.03125 0.8828125
vt 0.3125 0.8828125
vt 0.3125 0.921875
vt 0.03125 0.921875
vt 0.03125 0.84375
vt 0.3125 0.84375
vt 0.3125 0.8828125
vt 0.03125 0.8828125
vt 0.03125 0.65625
vt 0.03125 0.640625
vt 0.3125 0.640625
vt 0.3125 0.65625
vt 0.03125 0.7890625
vt 0.3125 0.7890625
vt 0.3125 0.828125
vt 0.03125 0.828125
vt 0.03125 0.75
vt 0.3125 0.75
vt 0.3125 0.7890625
vt 0.03125 0.7890625
vt 0.03125 0.7109375
vt 0.3125 0.7109375
vt 0.3125 0.75
vt 0.03125 0.75
vt 0.1875 0.609375
vt 0.15625 0.609375
vt 0.15625 0.5703125
vt 0.1875 0.5703125
vt 0.359375 1
vt 0.359375 0.984375
vt 0.390625 0.984375
vt 0.390625 1
vt 0.34375 1
vt 0.3125 1
vt 0.3125 0.9609375
vt 0.34375 0.9609375
vt 0.34375 0.9609375
vt 0.3125 0.9609375
vt 0.3125 0.921875
vt 0.34375 0.921875
vt 0.34375 0.921875
vt 0.3125 0.921875
vt 0.3125 0.8828125
vt 0.34375 0.8828125
vt 0.34375 0.8828125
vt 0.3125 0.8828125
vt 0.3125 0.84375
vt 0.34375 0.84375
vt 0.3125 0.65625
vt 0.3125 0.640625
vt 0.34375 0.640625
vt 0.34375 0.65625
vt 0.234375 0.609375
vt 0.203125 0.609375
vt 0.203125 0.5703125
vt 0.234375 0.5703125
vt 0.34375 0.7890625
vt 0.3125 0.7890625
vt 0.3125 0.75
vt 0.34375 0.75
vt 0.34375 0.75
vt 0.3125 0.75
vt 0.3125 0.7109375
vt 0.34375 0.7109375
vt 0.53125 0.65625
vt 0.5625 0.65625
vt 0.5625 0.671875
vt 0.53125 0.671875
vt 0.25 0.59375
vt 0.2890625 0.59375
vt 0.2890625 0.609375
vt 0.25 0.609375
vt 0 0.515625
vt 0.03125 0.515625
vt 0.03125 0.53125
vt 0 0.53125
vt 0.4765625 0.4375
vt 0.515625 0.4375
vt 0.515625 0.453125
vt 0.4765625 0.453125
vt 0.671875 0.859375
vt 0.703125 0.859375
vt 0.703125 0.875
vt 0.671875 0.875
vt 0.25 0.5625
vt 0.2890625 0.5625
vt 0.2890625 0.578125
vt 0.25 0.578125
vt 0.53125 0.625
vt 0.5625 0.625
vt 0.5625 0.640625
vt 0.53125 0.640625
vt 0.35937500000000006 0.4375
vt 0.39843750000000006 0.4375
vt 0.39843750000000006 0.453125
vt 0.35937500000000006 0.453125
vt 0.53125 0.59375
vt 0.5625 0.59375
vt 0.5625 0.609375
vt 0.53125 0.609375
vt 0.53125 0.71875
vt 0.5703125 0.71875
vt 0.5703125 0.734375
vt 0.53125 0.734375
vt 0.359375 0.859375
vt 0.390625 0.859375
vt 0.390625 0.875
vt 0.359375 0.875
vt 0.4765625 0.59375
vt 0.515625 0.59375
vt 0.515625 0.609375
vt 0.4765625 0.609375
vt 0.3125 0.515625
vt 0.34375 0.515625
vt 0.34375 0.53125
vt 0.3125 0.53125
vt 0.53125 0.6875
vt 0.5703125 0.6875
vt 0.5703125 0.703125
vt 0.53125 0.703125
vt 0.53125 0.5625
vt 0.5625 0.5625
vt 0.5625 0.578125
vt 0.53125 0.578125
vt 0.359375 0.59375
vt 0.3984375 0.59375
vt 0.3984375 0.609375
vt 0.359375 0.609375
vt 0.359375 0.84375
vt 0.359375 0.75
vt 0.640625 0.75
vt 0.640625 0.84375
vt 0 0.640625
vt 0 0.546875
vt 0.03125 0.546875
vt 0.03125 0.640625
vt 0.4765625 0.5625
vt 0.4765625 0.46875
vt 0.515625 0.46875
vt 0.515625 0.5625
vt 0.4375 0.5625
vt 0.4375 0.46875
vt 0.4765625 0.46875
vt 0.4765625 0.5625
vt 0.3984375 0.5625
vt 0.39843750000000006 0.46875
vt 0.43750000000000006 0.46875
vt 0.4375 0.5625
vt 0.359375 0.5625
vt 0.35937500000000006 0.46875
vt 0.39843750000000006 0.46875
vt 0.3984375 0.5625
vt 0.671875 0.984375
vt 0.671875 0.890625
vt 0.703125 0.890625
vt 0.703125 0.984375
vt 0.390625 0.984375
vt 0.390625 0.890625
vt 0.671875 0.890625
vt 0.671875 0.984375
vt 0.359375 0.984375
vt 0.359375 0.890625
vt 0.390625 0.890625
vt 0.390625 0.984375
vt 0.4765625 0.71875
vt 0.4765625 0.625
vt 0.515625 0.625
vt 0.515625 0.71875
vt 0.4375 0.71875
vt 0.4375 0.625
vt 0.4765625 0.625
vt 0.4765625 0.71875
vt 0.3984375 0.71875
vt 0.3984375 0.625
vt 0.4375 0.625
vt 0.4375 0.71875
vt 0.359375 0.71875
vt 0.359375 0.625
vt 0.3984375 0.625
vt 0.3984375 0.71875
vt 0.3125 0.640625
vt 0.3125 0.546875
vt 0.34375 0.546875
vt 0.34375 0.640625
vt 0.3125 0.53125
vt 0.3125 0.546875
vt 0.03125 0.546875
vt 0.03125 0.53125
vt 0.03125 0.53125
vt 0.03125 0.546875
vt 0 0.546875
vt 0 0.53125
vt 0.515625 0.453125
vt 0.515625 0.46875
vt 0.4765625 0.46875
vt 0.4765625 0.453125
vt 0.4765625 0.453125
vt 0.4765625 0.46875
vt 0.4375 0.46875
vt 0.4375 0.453125
vt 0.43750000000000006 0.453125
vt 0.43750000000000006 0.46875
vt 0.39843750000000006 0.46875
vt 0.39843750000000006 0.453125
vt 0.39843750000000006 0.453125
vt 0.39843750000000006 0.46875
vt 0.35937500000000006 0.46875
vt 0.35937500000000006 0.453125
vt 0.703125 0.875
vt 0.703125 0.890625
vt 0.671875 0.890625
vt 0.671875 0.875
vt 0.671875 0.875
vt 0.671875 0.890625
vt 0.390625 0.890625
vt 0.390625 0.875
vt 0.390625 0.875
vt 0.390625 0.890625
vt 0.359375 0.890625
vt 0.359375 0.875
vt 0.515625 0.609375
vt 0.515625 0.625
vt 0.4765625 0.625
vt 0.4765625 0.609375
vt 0.4765625 0.609375
vt 0.4765625 0.625
vt 0.4375 0.625
vt 0.4375 0.609375
vt 0.4375 0.609375
vt 0.4375 0.625
vt 0.3984375 0.625
vt 0.3984375 0.609375
vt 0.3984375 0.609375
vt 0.3984375 0.625
vt 0.359375 0.625
vt 0.359375 0.609375
vt 0.34375 0.53125
vt 0.34375 0.546875
vt 0.3125 0.546875
vt 0.3125 0.53125
vt 0.3046875 0.40625
vt 0.3046875 0.5
vt 0.296875 0.5
vt 0.296875 0.40625
vt 0.28125 0.5
vt 0 0.5
vt 0 0.4921875
vt 0.28125 0.4921875
vt 0.328125 0.5
vt 0.328125 0.40625
vt 0.3359375 0.40625
vt 0.3359375 0.5
vt 0 0.4609375
vt 0.28125 0.4609375
vt 0.28125 0.46875
vt 0 0.46875
vn 1 0 0
vn -1 0 0
vn 0 1 0
vn 0 -1 0
vn 0 0 1
vn 0 0 -1
vn 0 -1 0
vn 0 -1 0
vn 0 -1 0
vn -1 0 0
vn -1 0 0
vn -1 0 0
vn 0 1 0
vn 0 1 0
vn 0 1 0
vn 1 0 0
vn 1 0 0
vn 1 0 0
vn 0 -1 0
vn 0 0 -1
vn 0 1 0
vn 0 1 0
vn 0 1 0
vn 0 1 0
vn 0 0 1
vn 0 -1 0
vn 0 -1 0
vn 0 -1 0
vn 0 -1 0
vn 0 0 -1
vn 0 1 0
vn 0 1 0
vn 0 1 0
vn 0 1 0
vn 0 0 1
vn 0 -1 0
vn 0 -1 0
vn 0 -1 0
vn 0 0 -1
vn 1 0 0
vn 0 0 1
vn -1 0 0
vn 0 0 -1
vn 1 0 0
vn 0 0 1
vn -1 0 0
vn 0 0 1
vn -1 0 0
vn 0 0 -1
vn 1 0 0
vn 0 0 1
vn -1 0 0
vn 0 0 -1
vn 1 0 0
vn 0 0 1
vn 0 0 1
vn -1 0 0
vn -1 0 0
vn -1 0 0
vn -1 0 0
vn 0 0 -1
vn 0 0 -1
vn 0 0 -1
vn 1 0 0
vn 1 0 0
vn 1 0 0
vn 1 0 0
vn 0 0 1
vn 0 0 1
vn 0 0 1
vn -1 0 0
vn -1 0 0
vn -1 0 0
vn -1 0 0
vn 0 0 -1
vn 0 0 -1
vn 0 0 -1
vn 1 0 0
vn 1 0 0
vn 1 0 0
vn 1 0 0
vn 0 0 1
vn -1 0 0
vn 0 -1 0
vn 1 0 0
vn 0 1 0
usemtl m_cfad69d0-5fe6-6b5f-491a-1eb37ae73e32
f 534/1705/430 603/1706/430 602/1707/430 553/1708/430
f 550/1709/431 593/1710/431 592/1711/431 538/1712/431
f 538/1713/432 560/1714/432 559/1715/432 550/1716/432
f 574/1717/433 576/1718/433 575/1719/433 577/1720/433
f 538/1721/434 592/1722/434 591/1723/434 560/1724/434
f 556/1725/435 597/1726/435 596/1727/435 539/1728/435
f 578/1729/436 580/1730/436 579/1731/436 581/1732/436
f 543/1733/437 554/1734/437 563/1735/437 545/1736/437
f 545/1737/438 563/1738/438 562/1739/438 547/1740/438
f 539/1741/439 596/1742/439 595/1743/439 548/1744/439
f 548/1745/440 595/1746/440 594/1747/440 549/1748/440
f 549/1749/441 594/1750/441 593/1751/441 550/1752/441
f 548/1753/442 557/1754/442 556/1755/442 539/1756/442
f 549/1757/443 558/1758/443 557/1759/443 548/1760/443
f 550/1761/444 559/1762/444 558/1763/444 549/1764/444
f 551/1765/445 600/1766/445 599/1767/445 535/1768/445
f 552/1769/446 601/1770/446 600/1771/446 551/1772/446
f 553/1773/447 602/1774/447 601/1775/447 552/1776/447
f 555/1777/448 565/1778/448 564/1779/448 554/1780/448
f 566/1781/449 598/1782/449 597/1783/449 556/1784/449
f 557/1785/450 567/1786/450 566/1787/450 556/1788/450
f 558/1789/451 568/1790/451 567/1791/451 557/1792/451
f 559/1793/452 569/1794/452 568/1795/452 558/1796/452
f 560/1797/453 570/1798/453 569/1799/453 559/1800/453
f 560/1801/454 591/1802/454 590/1803/454 570/1804/454
f 562/1805/455 572/1806/455 571/1807/455 561/1808/455
f 563/1809/456 573/1810/456 572/1811/456 562/1812/456
f 554/1813/457 564/1814/457 573/1815/457 563/1816/457
f 582/1817/458 583/1818/458 584/1819/458 585/1820/458
f 535/1821/459 599/1822/459 598/1823/459 566/1824/459
f 535/1825/460 566/1826/460 567/1827/460 551/1828/460
f 551/1829/461 567/1830/461 568/1831/461 552/1832/461
f 552/1833/462 568/1834/462 569/1835/462 553/1836/462
f 553/1837/463 569/1838/463 570/1839/463 534/1840/463
f 570/1841/464 590/1842/464 603/1843/464 534/1844/464
f 586/1845/465 587/1846/465 588/1847/465 589/1848/465
f 546/1849/466 572/1850/466 573/1851/466 544/1852/466
f 544/1853/467 573/1854/467 564/1855/467 542/1856/467
f 576/1857/468 574/1858/468 547/1859/468 562/1860/468
f 575/1861/469 576/1862/469 562/1863/469 561/1864/469
f 577/1865/470 575/1866/470 561/1867/470 540/1868/470
f 574/1869/471 577/1870/471 540/1871/471 547/1872/471
f 580/1873/472 578/1874/472 541/1875/472 555/1876/472
f 579/1877/473 580/1878/473 555/1879/473 554/1880/473
f 581/1881/474 579/1882/474 554/1883/474 543/1884/474
f 578/1885/475 581/1886/475 543/1887/475 541/1888/475
f 583/1889/476 582/1890/476 542/1891/476 564/1892/476
f 584/1893/477 583/1894/477 564/1895/477 565/1896/477
f 585/1897/478 584/1898/478 565/1899/478 537/1900/478
f 582/1901/479 585/1902/479 537/1903/479 542/1904/479
f 587/1905/480 586/1906/480 536/1907/480 571/1908/480
f 588/1909/481 587/1910/481 571/1911/481 572/1912/481
f 589/1913/482 588/1914/482 572/1915/482 546/1916/482
f 586/1917/483 589/1918/483 546/1919/483 536/1920/483
f 618/1921/484 620/1922/484 619/1923/484 621/1924/484
f 592/1925/485 606/1926/485 605/1927/485 591/1928/485
f 593/1929/486 607/1930/486 606/1931/486 592/1932/486
f 594/1933/487 608/1934/487 607/1935/487 593/1936/487
f 595/1937/488 609/1938/488 608/1939/488 594/1940/488
f 596/1941/489 610/1942/489 609/1943/489 595/1944/489
f 597/1945/490 611/1946/490 610/1947/490 596/1948/490
f 598/1949/491 612/1950/491 611/1951/491 597/1952/491
f 599/1953/492 613/1954/492 612/1955/492 598/1956/492
f 600/1957/493 614/1958/493 613/1959/493 599/1960/493
f 601/1961/494 615/1962/494 614/1963/494 600/1964/494
f 602/1965/495 616/1966/495 615/1967/495 601/1968/495
f 603/1969/496 617/1970/496 616/1971/496 602/1972/496
f 590/1973/497 604/1974/497 617/1975/497 603/1976/497
f 571/1977/498 604/1978/498 605/1979/498 561/1980/498
f 561/1981/499 605/1982/499 606/1983/499 540/1984/499
f 540/1985/500 606/1986/500 607/1987/500 547/1988/500
f 547/1989/501 607/1990/501 608/1991/501 545/1992/501
f 545/1993/502 608/1994/502 609/1995/502 543/1996/502
f 543/1997/503 609/1998/503 610/1999/503 541/2000/503
f 541/2001/504 610/2002/504 611/2003/504 555/2004/504
f 555/2005/505 611/2006/505 612/2007/505 565/2008/505
f 565/2009/506 612/2010/506 613/2011/506 537/2012/506
f 537/2013/507 613/2014/507 614/2015/507 542/2016/507
f 542/2017/508 614/2018/508 615/2019/508 544/2020/508
f 544/2021/509 615/2022/509 616/2023/509 546/2024/509
f 546/2025/510 616/2026/510 617/2027/510 536/2028/510
f 536/2029/511 617/2030/511 604/2031/511 571/2032/511
f 620/2033/512 618/2034/512 591/2035/512 605/2036/512
f 619/2037/513 620/2038/513 605/2039/513 604/2040/513
f 621/2041/514 619/2042/514 604/2043/514 590/2044/514
f 618/2045/515 621/2046/515 590/2047/515 591/2048/515