# Made in Blockbench 5.1.6
mtllib bedroom_empty.mtl

o cube
v -3 3.125 3.25
v -3 3.125 3
v -3 0.125 3.25
v -3 0.125 3
v -3.25 3.125 3
v -3.25 3.125 3.25
v -3.25 0.125 3
v -3.25 0.125 3.25
vt 0.41015625 0.904296875
vt 0.41796875 0.904296875
vt 0.41796875 0.810546875
vt 0.41015625 0.810546875
vt 0.41015625 0.80859375
vt 0.41796875 0.80859375
vt 0.41796875 0.71484375
vt 0.41015625 0.71484375
vt 0.029296875 0.587890625
vt 0.037109375 0.587890625
vt 0.037109375 0.494140625
vt 0.029296875 0.494140625
vt 0.0390625 0.587890625
vt 0.046875 0.587890625
vt 0.046875 0.494140625
vt 0.0390625 0.494140625
vt 0.103515625 0.87109375
vt 0.095703125 0.87109375
vt 0.095703125 0.87890625
vt 0.103515625 0.87890625
vt 0.11328125 0.87890625
vt 0.10546875 0.87890625
vt 0.10546875 0.87109375
vt 0.11328125 0.87109375
vn 0 0 -1
vn 1 0 0
vn 0 0 1
vn -1 0 0
vn 0 1 0
vn 0 -1 0
usemtl m_146adc63-d879-fbf3-0d1b-9acf7a20cae0
f 4/4/1 7/3/1 5/2/1 2/1/1
f 3/8/2 4/7/2 2/6/2 1/5/2
f 8/12/3 3/11/3 1/10/3 6/9/3
f 7/16/4 8/15/4 6/14/4 5/13/4
f 6/20/5 1/19/5 2/18/5 5/17/5
f 7/24/6 4/23/6 3/22/6 8/21/6
o cube
v 3.25 3.125 3.25
v 3.25 3.125 3
v 3.25 0.125 3.25
v 3.25 0.125 3
v 3 3.125 3
v 3 3.125 3.25
v 3 0.125 3
v 3 0.125 3.25
vt 0.048828125 0.587890625
vt 0.056640625 0.587890625
vt 0.056640625 0.494140625
vt 0.048828125 0.494140625
vt 0.05859375 0.587890625
vt 0.06640625 0.587890625
vt 0.06640625 0.494140625
vt 0.05859375 0.494140625
vt 0.068359375 0.587890625
vt 0.076171875 0.587890625
vt 0.076171875 0.494140625
vt 0.068359375 0.494140625
vt 0.078125 0.587890625
vt 0.0859375 0.587890625
vt 0.0859375 0.494140625
vt 0.078125 0.494140625
vt 0.103515625 0.861328125
vt 0.095703125 0.861328125
vt 0.095703125 0.869140625
vt 0.103515625 0.869140625
vt 0.11328125 0.869140625
vt 0.10546875 0.869140625
vt 0.10546875 0.861328125
vt 0.11328125 0.861328125
vn 0 0 -1
vn 1 0 0
vn 0 0 1
vn -1 0 0
vn 0 1 0
vn 0 -1 0
usemtl m_146adc63-d879-fbf3-0d1b-9acf7a20cae0
f 12/28/7 15/27/7 13/26/7 10/25/7
f 11/32/8 12/31/8 10/30/8 9/29/8
f 16/36/9 11/35/9 9/34/9 14/33/9
f 15/40/10 16/39/10 14/38/10 13/37/10
f 14/44/11 9/43/11 10/42/11 13/41/11
f 15/48/12 12/47/12 11/46/12 16/45/12
o cube
v 3.25 3.125 3
v 3.25 3.125 -4
v 3.25 0.125 3
v 3.25 0.125 -4
v 3 3.125 3
v 3 3.125 -4
v 3 0.125 3
v 3 0.125 -4
v 3 1.1875 3
v 3 1.1875 -4
v 3.25 1.1875 -4
v 3.25 1.1875 3
v 3 2.4375 -4
v 3 2.4375 3
v 3.25 2.4375 3
v 3.25 2.4375 -4
v 3 2.4375 -0.3125
v 3 1.1875 -0.3125
v 3 0.125 -0.3125
v 3.25 0.125 -0.3125
v 3.25 1.1875 -0.3125
v 3.25 2.4375 -0.3125
v 3.25 3.125 -0.3125
v 3 3.125 -0.3125
v 3 1.1875 -2.6875
v 3 2.4375 -2.6875
v 3 3.125 -2.6875
v 3.25 3.125 -2.6875
v 3.25 2.4375 -2.6875
v 3.25 1.1875 -2.6875
v 3.25 0.125 -2.6875
v 3 0.125 -2.6875
v 3.0625 2.4375 -0.3125
v 3.0625 1.1875 -2.6875
v 3.0625 2.4375 -2.6875
v 3.0625 1.1875 -0.3125
vt 0.103515625 0.939453125
vt 0.177734375 0.939453125
vt 0.177734375 0.978515625
vt 0.103515625 0.978515625
vt 0.453125 0.6328125
vt 0.37890625 0.6328125
vt 0.37890625 0.59375
vt 0.453125 0.59375
vt 0.0078125 0.501953125
vt 0.0078125 0.576171875
vt 0 0.576171875
vt 0 0.501953125
vt 0.009765625 0.513671875
vt 0.009765625 0.439453125
vt 0.017578125 0.439453125
vt 0.017578125 0.513671875
vt 0.095703125 0.52734375
vt 0.095703125 0.56640625
vt 0.087890625 0.56640625
vt 0.087890625 0.52734375
vt 0.10546875 0.52734375
vt 0.10546875 0.56640625
vt 0.09765625 0.56640625
vt 0.09765625 0.52734375
vt 0.115234375 0.84375
vt 0.041015625 0.84375
vt 0.041015625 0.810546875
vt 0.115234375 0.810546875
vt 0.10546875 0.494140625
vt 0.10546875 0.52734375
vt 0.09765625 0.52734375
vt 0.09765625 0.494140625
vt 0.103515625 0.90625
vt 0.177734375 0.90625
vt 0.177734375 0.939453125
vt 0.103515625 0.939453125
vt 0.095703125 0.494140625
vt 0.095703125 0.52734375
vt 0.087890625 0.52734375
vt 0.087890625 0.494140625
vt 0.115234375 0.904296875
vt 0.041015625 0.904296875
vt 0.041015625 0.8828125
vt 0.115234375 0.8828125
vt 0.087890625 0.587890625
vt 0.087890625 0.56640625
vt 0.095703125 0.56640625
vt 0.095703125 0.587890625
vt 0.103515625 0.978515625
vt 0.177734375 0.978515625
vt 0.177734375 1
vt 0.103515625 1
vt 0.09765625 0.587890625
vt 0.09765625 0.56640625
vt 0.10546875 0.56640625
vt 0.10546875 0.587890625
vt 0.21875 0.8828125
vt 0.115234375 0.8828125
vt 0.115234375 0.84375
vt 0.21875 0.84375
vt 0.21875 0.84375
vt 0.115234375 0.84375
vt 0.115234375 0.810546875
vt 0.21875 0.810546875
vt 0.009765625 0.6171875
vt 0.009765625 0.513671875
vt 0.017578125 0.513671875
vt 0.017578125 0.6171875
vt 0 0.90625
vt 0.103515625 0.90625
vt 0.103515625 0.939453125
vt 0 0.939453125
vt 0 0.939453125
vt 0.103515625 0.939453125
vt 0.103515625 0.978515625
vt 0 0.978515625
vt 0 0.978515625
vt 0.103515625 0.978515625
vt 0.103515625 1
vt 0 1
vt 0.0078125 0.3984375
vt 0.0078125 0.501953125
vt 0 0.501953125
vt 0 0.3984375
vt 0.21875 0.904296875
vt 0.115234375 0.904296875
vt 0.115234375 0.8828125
vt 0.21875 0.8828125
vt 0 0.84375
vt 0.041015625 0.84375
vt 0.041015625 0.8828125
vt 0 0.8828125
vt 0 0.8828125
vt 0.041015625 0.8828125
vt 0.041015625 0.904296875
vt 0 0.904296875
vt 0 0.6171875
vt 0 0.576171875
vt 0.0078125 0.576171875
vt 0.0078125 0.6171875
vt 0.21875 1
vt 0.177734375 1
vt 0.177734375 0.978515625
vt 0.21875 0.978515625
vt 0.21875 0.978515625
vt 0.177734375 0.978515625
vt 0.177734375 0.939453125
vt 0.21875 0.939453125
vt 0.21875 0.939453125
vt 0.177734375 0.939453125
vt 0.177734375 0.90625
vt 0.21875 0.90625
vt 0.017578125 0.3984375
vt 0.017578125 0.439453125
vt 0.009765625 0.439453125
vt 0.009765625 0.3984375
vt 0 0.810546875
vt 0.041015625 0.810546875
vt 0.041015625 0.84375
vt 0 0.84375
vt 0.18359375 0.71484375
vt 0.18359375 0.7890625
vt 0.181640625 0.7890625
vt 0.181640625 0.71484375
vt 0.203125 0.75
vt 0.203125 0.7890625
vt 0.201171875 0.7890625
vt 0.201171875 0.75
vt 0.1875 0.71484375
vt 0.1875 0.7890625
vt 0.185546875 0.7890625
vt 0.185546875 0.71484375
vt 0.255859375 0.58203125
vt 0.255859375 0.54296875
vt 0.2578125 0.54296875
vt 0.2578125 0.58203125
vn 1 0 0
vn -1 0 0
vn 0 1 0
vn 0 -1 0
vn 0 0 1
vn 0 0 -1
vn -1 0 0
vn 0 0 -1
vn 1 0 0
vn 0 0 1
vn -1 0 0
vn 0 0 1
vn 1 0 0
vn 0 0 -1
vn -1 0 0
vn -1 0 0
vn 0 -1 0
vn 1 0 0
vn 1 0 0
vn 1 0 0
vn 0 1 0
vn -1 0 0
vn -1 0 0
vn -1 0 0
vn 0 1 0
vn 1 0 0
vn 1 0 0
vn 1 0 0
vn 0 -1 0
vn -1 0 0
vn 0 -1 0
vn 0 0 1
vn 0 1 0
vn 0 0 -1
usemtl m_146adc63-d879-fbf3-0d1b-9acf7a20cae0
f 37/49/13 46/50/13 45/51/13 38/52/13
f 49/53/14 51/54/14 50/55/14 52/56/14
f 39/57/15 44/58/15 43/59/15 40/60/15
f 35/61/16 48/62/16 47/63/16 36/64/16
f 28/65/17 31/66/17 30/67/17 25/68/17
f 26/69/18 29/70/18 32/71/18 27/72/18
f 34/73/19 41/74/19 48/75/19 35/76/19
f 24/77/20 26/78/20 27/79/20 20/80/20
f 36/81/21 47/82/21 46/83/21 37/84/21
f 19/85/22 28/86/22 25/87/22 23/88/22
f 40/89/23 43/90/23 42/91/23 33/92/23
f 21/93/24 30/94/24 31/95/24 17/96/24
f 38/97/25 45/98/25 44/99/25 39/100/25
f 18/101/26 32/102/26 29/103/26 22/104/26
f 30/105/27 33/106/27 34/107/27 25/108/27
f 25/109/28 34/110/28 35/111/28 23/112/28
f 23/113/29 35/114/29 36/115/29 19/116/29
f 19/117/30 36/118/30 37/119/30 28/120/30
f 28/121/31 37/122/31 38/123/31 31/124/31
f 31/125/32 38/126/32 39/127/32 17/128/32
f 17/129/33 39/130/33 40/131/33 21/132/33
f 21/133/34 40/134/34 33/135/34 30/136/34
f 26/137/35 41/138/35 42/139/35 29/140/35
f 29/141/36 42/142/36 43/143/36 22/144/36
f 22/145/37 43/146/37 44/147/37 18/148/37
f 18/149/38 44/150/38 45/151/38 32/152/38
f 32/153/39 45/154/39 46/155/39 27/156/39
f 27/157/40 46/158/40 47/159/40 20/160/40
f 20/161/41 47/162/41 48/163/41 24/164/41
f 24/165/42 48/166/42 41/167/42 26/168/42
f 51/169/43 49/170/43 33/171/43 42/172/43
f 50/173/44 51/174/44 42/175/44 41/176/44
f 52/177/45 50/178/45 41/179/45 34/180/45
f 49/181/46 52/182/46 34/183/46 33/184/46
o cube
v 3.25 3.125 -4
v 3.25 3.125 -4.25
v 3.25 0.125 -4
v 3.25 0.125 -4.25
v 3 3.125 -4.25
v 3 3.125 -4
v 3 0.125 -4.25
v 3 0.125 -4
vt 0.107421875 0.587890625
vt 0.115234375 0.587890625
vt 0.115234375 0.494140625
vt 0.107421875 0.494140625
vt 0.1171875 0.587890625
vt 0.125 0.587890625
vt 0.125 0.494140625
vt 0.1171875 0.494140625
vt 0.126953125 0.587890625
vt 0.134765625 0.587890625
vt 0.134765625 0.494140625
vt 0.126953125 0.494140625
vt 0.13671875 0.587890625
vt 0.14453125 0.587890625
vt 0.14453125 0.494140625
vt 0.13671875 0.494140625
vt 0.052734375 0.859375
vt 0.044921875 0.859375
vt 0.044921875 0.8671875
vt 0.052734375 0.8671875
vt 0.0625 0.8671875
vt 0.0546875 0.8671875
vt 0.0546875 0.859375
vt 0.0625 0.859375
vn 0 0 -1
vn 1 0 0
vn 0 0 1
vn -1 0 0
vn 0 1 0
vn 0 -1 0
usemtl m_146adc63-d879-fbf3-0d1b-9acf7a20cae0
f 56/188/47 59/187/47 57/186/47 54/185/47
f 55/192/48 56/191/48 54/190/48 53/189/48
f 60/196/49 55/195/49 53/194/49 58/193/49
f 59/200/50 60/199/50 58/198/50 57/197/50
f 58/204/51 53/203/51 54/202/51 57/201/51
f 59/208/52 56/207/52 55/206/52 60/205/52
o cube
v 3 3.125 -4
v 3 3.125 -4.25
v 3 0.125 -4
v 3 0.125 -4.25
v -3 3.125 -4.25
v -3 3.125 -4
v -3 0.125 -4.25
v -3 0.125 -4
vt 0.220703125 0.904296875
vt 0.408203125 0.904296875
vt 0.408203125 0.810546875
vt 0.220703125 0.810546875
vt 0.146484375 0.587890625
vt 0.154296875 0.587890625
vt 0.154296875 0.494140625
vt 0.146484375 0.494140625
vt 0.220703125 0.80859375
vt 0.408203125 0.80859375
vt 0.408203125 0.71484375
vt 0.220703125 0.71484375
vt 0.15625 0.587890625
vt 0.1640625 0.587890625
vt 0.1640625 0.494140625
vt 0.15625 0.494140625
vt 0.216796875 0.609375
vt 0.029296875 0.609375
vt 0.029296875 0.6171875
vt 0.216796875 0.6171875
vt 0.216796875 0.607421875
vt 0.029296875 0.607421875
vt 0.029296875 0.599609375
vt 0.216796875 0.599609375
vn 0 0 -1
vn 1 0 0
vn 0 0 1
vn -1 0 0
vn 0 1 0
vn 0 -1 0
usemtl m_146adc63-d879-fbf3-0d1b-9acf7a20cae0
f 64/212/53 67/211/53 65/210/53 62/209/53
f 63/216/54 64/215/54 62/214/54 61/213/54
f 68/220/55 63/219/55 61/218/55 66/217/55
f 67/224/56 68/223/56 66/222/56 65/221/56
f 66/228/57 61/227/57 62/226/57 65/225/57
f 67/232/58 64/231/58 63/230/58 68/229/58
o cube
v 3 3.125 3.25
v 3 3.125 3
v 3 0.125 3.25
v 3 0.125 3
v -3 3.125 3
v -3 3.125 3.25
v -3 0.125 3
v -3 0.125 3.25
vt 0 0.712890625
vt 0.1875 0.712890625
vt 0.1875 0.619140625
vt 0 0.619140625
vt 0.166015625 0.587890625
vt 0.173828125 0.587890625
vt 0.173828125 0.494140625
vt 0.166015625 0.494140625
vt 0.189453125 0.712890625
vt 0.376953125 0.712890625
vt 0.376953125 0.619140625
vt 0.189453125 0.619140625
vt 0.17578125 0.587890625
vt 0.18359375 0.587890625
vt 0.18359375 0.494140625
vt 0.17578125 0.494140625
vt 0.216796875 0.58984375
vt 0.029296875 0.58984375
vt 0.029296875 0.59765625
vt 0.216796875 0.59765625
vt 0.40625 0.591796875
vt 0.21875 0.591796875
vt 0.21875 0.583984375
vt 0.40625 0.583984375
vn 0 0 -1
vn 1 0 0
vn 0 0 1
vn -1 0 0
vn 0 1 0
vn 0 -1 0
usemtl m_146adc63-d879-fbf3-0d1b-9acf7a20cae0
f 72/236/59 75/235/59 73/234/59 70/233/59
f 71/240/60 72/239/60 70/238/60 69/237/60
f 76/244/61 71/243/61 69/242/61 74/241/61
f 75/248/62 76/247/62 74/246/62 73/245/62
f 74/252/63 69/251/63 70/250/63 73/249/63
f 75/256/64 72/255/64 71/254/64 76/253/64
o cube
v -3 3.125 -4
v -3 3.125 -4.25
v -3 0.125 -4
v -3 0.125 -4.25
v -3.25 3.125 -4.25
v -3.25 3.125 -4
v -3.25 0.125 -4.25
v -3.25 0.125 -4
vt 0.185546875 0.587890625
vt 0.193359375 0.587890625
vt 0.193359375 0.494140625
vt 0.185546875 0.494140625
vt 0.1953125 0.587890625
vt 0.203125 0.587890625
vt 0.203125 0.494140625
vt 0.1953125 0.494140625
vt 0.205078125 0.587890625
vt 0.212890625 0.587890625
vt 0.212890625 0.494140625
vt 0.205078125 0.494140625
vt 0.21484375 0.58203125
vt 0.22265625 0.58203125
vt 0.22265625 0.48828125
vt 0.21484375 0.48828125
vt 0.072265625 0.859375
vt 0.064453125 0.859375
vt 0.064453125 0.8671875
vt 0.072265625 0.8671875
vt 0.08203125 0.8671875
vt 0.07421875 0.8671875
vt 0.07421875 0.859375
vt 0.08203125 0.859375
vn 0 0 -1
vn 1 0 0
vn 0 0 1
vn -1 0 0
vn 0 1 0
vn 0 -1 0
usemtl m_146adc63-d879-fbf3-0d1b-9acf7a20cae0
f 80/260/65 83/259/65 81/258/65 78/257/65
f 79/264/66 80/263/66 78/262/66 77/261/66
f 84/268/67 79/267/67 77/266/67 82/265/67
f 83/272/68 84/271/68 82/270/68 81/269/68
f 82/276/69 77/275/69 78/274/69 81/273/69
f 83/280/70 80/279/70 79/278/70 84/277/70
o cube
v -3 3.125 3
v -3 3.125 -4
v -3 0.125 3
v -3 0.125 -4
v -3.25 3.125 3
v -3.25 3.125 -4
v -3.25 0.125 3
v -3.25 0.125 -4
v -3 3.125 -2.375
v -3 0.125 -2.375
v -3.25 0.125 -2.375
v -3.25 3.125 -2.375
v -3 3.125 -3.625
v -3 0.125 -3.625
v -3.25 0.125 -3.625
v -3.25 3.125 -3.625
v -3 2.625 -3.625
v -3 2.625 -2.375
v -3 2.625 3
v -3.25 2.625 3
v -3.25 2.625 -2.375
v -3.25 2.625 -3.625
v -3.25 2.625 -4
v -3 2.625 -4
v -3.09375 0.125 -3.625
v -3.09375 2.625 -3.625
v -3.09375 2.625 -2.375
v -3.09375 0.125 -2.375
v -3.25 0.25 -2.375
v -3 0.25 -3.625
v -3.25 0.25 -3.625
v -3 0.25 -2.375
vt 0 0.80859375
vt 0 0.79296875
vt 0.16796875 0.79296875
vt 0.16796875 0.80859375
vt 0.271484375 1
vt 0.271484375 0.984375
vt 0.439453125 0.984375
vt 0.439453125 1
vt 0.02734375 0.3984375
vt 0.02734375 0.56640625
vt 0.01953125 0.56640625
vt 0.01953125 0.3984375
vt 0.408203125 0.591796875
vt 0.408203125 0.423828125
vt 0.416015625 0.423828125
vt 0.416015625 0.591796875
vt 0.224609375 0.58203125
vt 0.224609375 0.56640625
vt 0.232421875 0.56640625
vt 0.232421875 0.58203125
vt 0.234375 0.58203125
vt 0.234375 0.56640625
vt 0.2421875 0.56640625
vt 0.2421875 0.58203125
vt 0.16796875 0.80859375
vt 0.16796875 0.79296875
vt 0.20703125 0.79296875
vt 0.20703125 0.80859375
vt 0.171875 0.7890625
vt 0.171875 0.75
vt 0.1796875 0.75
vt 0.1796875 0.7890625
vt 0.232421875 1
vt 0.232421875 0.984375
vt 0.271484375 0.984375
vt 0.271484375 1
vt 0.02734375 0.56640625
vt 0.02734375 0.60546875
vt 0.01953125 0.60546875
vt 0.01953125 0.56640625
vt 0.20703125 0.80859375
vt 0.20703125 0.79296875
vt 0.21875 0.79296875
vt 0.21875 0.80859375
vt 0.09375 0.8671875
vt 0.09375 0.87890625
vt 0.0859375 0.87890625
vt 0.0859375 0.8671875
vt 0.220703125 1
vt 0.220703125 0.984375
vt 0.232421875 0.984375
vt 0.232421875 1
vt 0.01953125 0.6171875
vt 0.01953125 0.60546875
vt 0.02734375 0.60546875
vt 0.02734375 0.6171875
vt 0.16796875 0.71484375
vt 0.16796875 0.79296875
vt 0 0.79296875
vt 0 0.71484375
vt 0.232421875 0.48828125
vt 0.232421875 0.56640625
vt 0.224609375 0.56640625
vt 0.224609375 0.48828125
vt 0.439453125 0.90625
vt 0.439453125 0.984375
vt 0.271484375 0.984375
vt 0.271484375 0.90625
vt 0.271484375 0.90625
vt 0.271484375 0.984375
vt 0.232421875 0.984375
vt 0.232421875 0.90625
vt 0.232421875 0.90625
vt 0.232421875 0.984375
vt 0.220703125 0.984375
vt 0.220703125 0.90625
vt 0.2421875 0.48828125
vt 0.2421875 0.56640625
vt 0.234375 0.56640625
vt 0.234375 0.48828125
vt 0.21875 0.71484375
vt 0.21875 0.79296875
vt 0.20703125 0.79296875
vt 0.20703125 0.71484375
vt 0.244140625 0.58203125
vt 0.244140625 0.50390625
vt 0.2470703125 0.50390625
vt 0.2470703125 0.58203125
vt 0.189453125 0.7890625
vt 0.189453125 0.75
vt 0.1923828125 0.75
vt 0.1923828125 0.7890625
vt 0.2529296875 0.50390625
vt 0.2529296875 0.58203125
vt 0.25 0.58203125
vt 0.25 0.50390625
vt 0.1953125 0.7890625
vt 0.1953125 0.75
vt 0.1982421875 0.75
vt 0.1982421875 0.7890625
vt 0.41796875 0.634765625
vt 0.41796875 0.712890625
vt 0.37890625 0.712890625
vt 0.37890625 0.634765625
vt 0.083984375 0.87890625
vt 0.044921875 0.87890625
vt 0.044921875 0.875
vt 0.083984375 0.875
vt 0.091796875 0.865234375
vt 0.083984375 0.865234375
vt 0.083984375 0.861328125
vt 0.091796875 0.861328125
vt 0.083984375 0.873046875
vt 0.044921875 0.873046875
vt 0.044921875 0.869140625
vt 0.083984375 0.869140625
vt 0.091796875 0.859375
vt 0.083984375 0.859375
vt 0.083984375 0.85546875
vt 0.091796875 0.85546875
vn 1 0 0
vn -1 0 0
vn 0 1 0
vn 0 -1 0
vn 0 0 1
vn 0 0 -1
vn 1 0 0
vn 0 -1 0
vn -1 0 0
vn 0 1 0
vn 1 0 0
vn 0 -1 0
vn -1 0 0
vn 0 1 0
vn 1 0 0
vn 0 0 1
vn -1 0 0
vn -1 0 0
vn -1 0 0
vn 0 0 -1
vn 1 0 0
vn 0 0 1
vn 0 -1 0
vn 0 0 -1
vn 0 1 0
vn 1 0 0
vn 1 0 0
vn 0 0 1
vn -1 0 0
vn 0 0 -1
usemtl m_146adc63-d879-fbf3-0d1b-9acf7a20cae0
f 85/281/71 103/282/71 102/283/71 93/284/71
f 96/285/72 105/286/72 104/287/72 89/288/72
f 85/289/73 93/290/73 96/291/73 89/292/73
f 91/293/74 95/294/74 94/295/74 87/296/74
f 89/297/75 104/298/75 103/299/75 85/300/75
f 86/301/76 108/302/76 107/303/76 90/304/76
f 93/305/77 102/306/77 101/307/77 97/308/77
f 113/309/78 115/310/78 114/311/78 116/312/78
f 100/313/79 106/314/79 105/315/79 96/316/79
f 93/317/80 97/318/80 100/319/80 96/320/80
f 97/321/81 101/322/81 108/323/81 86/324/81
f 88/325/82 98/326/82 99/327/82 92/328/82
f 90/329/83 107/330/83 106/331/83 100/332/83
f 90/333/84 100/334/84 97/335/84 86/336/84
f 94/337/85 102/338/85 103/339/85 87/340/85
f 87/341/86 103/342/86 104/343/86 91/344/86
f 91/345/87 104/346/87 105/347/87 95/348/87
f 95/349/88 105/350/88 106/351/88 99/352/88
f 99/353/89 106/354/89 107/355/89 92/356/89
f 92/357/90 107/358/90 108/359/90 88/360/90
f 88/361/91 108/362/91 101/363/91 98/364/91
f 110/365/92 109/366/92 98/367/92 101/368/92
f 111/369/93 110/370/93 101/371/93 102/372/93
f 112/373/94 111/374/94 102/375/94 94/376/94
f 109/377/95 112/378/95 94/379/95 98/380/95
f 109/381/96 110/382/96 111/383/96 112/384/96
f 115/385/97 113/386/97 95/387/97 99/388/97
f 114/389/98 115/390/98 99/391/98 98/392/98
f 116/393/99 114/394/99 98/395/99 94/396/99
f 113/397/100 116/398/100 94/399/100 95/400/100
o cube
v 3 0.125 3
v 3 0.125 -4
v 3 0 3
v 3 0 -4
v -3 0.125 3
v -3 0.125 -4
v -3 0 3
v -3 0 -4
vt 0.4375 0.55078125
vt 0.4375 0.55859375
vt 0 0.55859375
vt 0 0.55078125
vt 0.87890625 0.55078125
vt 0.87890625 0.55859375
vt 0.44140625 0.55859375
vt 0.44140625 0.55078125
vt 0.375 1
vt 0 1
vt 0 0.5625
vt 0.375 0.5625
vt 0.75390625 0.5390625
vt 0.75390625 0.546875
vt 0.37890625 0.546875
vt 0.37890625 0.5390625
vt 0.375 0.5390625
vt 0.375 0.546875
vt 0 0.546875
vt 0 0.5390625
vt 0.37890625 0.5625
vt 0.37890625 1
vt 0.75390625 1
vt 0.75390625 0.5625
vn 1 0 0
vn -1 0 0
vn 0 1 0
vn 0 0 1
vn 0 0 -1
vn 0 -1 0
usemtl m_901abd15-3b77-6d37-228f-cdb122a3af5f
f 120/401/101 118/402/101 117/403/101 119/404/101
f 123/405/102 121/406/102 122/407/102 124/408/102
f 118/409/103 122/410/103 121/411/103 117/412/103
f 119/413/104 117/414/104 121/415/104 123/416/104
f 124/417/105 122/418/105 118/419/105 120/420/105
f 120/421/106 119/422/106 123/423/106 124/424/106