# Made in Blockbench 5.1.6
mtllib small_cabinet.mtl

o cube
v 0.6875 0.6875 0.3125
v 0.6875 0.6875 -0.3125
v 0.6875 0.1875 0.3125
v 0.6875 0.1875 -0.3125
v -0.6875 0.6875 0.3125
v -0.6875 0.6875 -0.3125
v -0.6875 0.1875 0.3125
v -0.6875 0.1875 -0.3125
v 0.6875 0.1875 -0.15625
v -0.6875 0.1875 -0.15625
v 0.6875 0.1875 0
v -0.6875 0.1875 0
v 0.6875 0.1875 0.15625
v -0.6875 0.1875 0.15625
v -0.6875 0.6875 -0.15625
v -0.6875 0.6875 0
v -0.6875 0.6875 0.15625
v 0.6875 0.6875 -0.15625
v 0.6875 0.6875 0
v 0.6875 0.6875 0.15625
v -0.5625 0.1875 -0.15625
v -0.5625 0.1875 -0.3125
v -0.5625 0.6875 -0.3125
v -0.5625 0.6875 -0.15625
v -0.5625 0.6875 0
v -0.5625 0.6875 0.15625
v -0.5625 0.6875 0.3125
v -0.5625 0.1875 0.3125
v -0.5625 0.1875 0.15625
v -0.5625 0.1875 0
v 0.5625 0.1875 -0.15625
v 0.5625 0.1875 -0.3125
v 0.5625 0.6875 -0.3125
v 0.5625 0.6875 -0.15625
v 0.5625 0.6875 0
v 0.5625 0.6875 0.15625
v 0.5625 0.6875 0.3125
v 0.5625 0.1875 0.3125
v 0.5625 0.1875 0.15625
v 0.5625 0.1875 0
v -0.6875 0.125 0.15625
v -0.5625 0.125 0.3125
v -0.5625 0.125 0.15625
v -0.6875 0.125 0.3125
v -0.6875 0.125 -0.3125
v -0.5625 0.125 -0.15625
v -0.5625 0.125 -0.3125
v -0.6875 0.125 -0.15625
v 0.6875 0.125 -0.15625
v 0.5625 0.125 -0.15625
v 0.5625 0.125 -0.3125
v 0.6875 0.125 -0.3125
v 0.6875 0.125 0.3125
v 0.5625 0.125 0.3125
v 0.5625 0.125 0.15625
v 0.6875 0.125 0.15625
v 0.5625 0.625 0.3125
v -0.5625 0.625 0.3125
v -0.6875 0.625 0.3125
v -0.6875 0.625 0.15625
v -0.6875 0.625 0
v -0.6875 0.625 -0.15625
v -0.6875 0.625 -0.3125
v -0.5625 0.625 -0.3125
v 0.5625 0.625 -0.3125
v 0.6875 0.625 -0.3125
v 0.6875 0.625 -0.15625
v 0.6875 0.625 0
v 0.6875 0.625 0.15625
v 0.6875 0.625 0.3125
v 0.5625 0.25 0.3125
v -0.5625 0.25 0.3125
v -0.6875 0.25 0.3125
v -0.6875 0.25 0.15625
v -0.6875 0.25 0
v -0.6875 0.25 -0.15625
v -0.6875 0.25 -0.3125
v -0.5625 0.25 -0.3125
v 0.5625 0.25 -0.3125
v 0.6875 0.25 -0.3125
v 0.6875 0.25 -0.15625
v 0.6875 0.25 0
v 0.6875 0.25 0.15625
v 0.6875 0.25 0.3125
v -0.5625 0.625 0.34375
v 0.5625 0.25 0.34375
v -0.5625 0.25 0.34375
v 0.5625 0.625 0.34375
vt 0.359375 0.734375
vt 0.359375 0.71875
vt 0.3984375 0.71875
vt 0.3984375 0.734375
vt 0.4765625 0.578125
vt 0.4765625 0.5625
vt 0.515625 0.5625
vt 0.515625 0.578125
vt 0 0.84375
vt 0.03125 0.84375
vt 0.03125 0.8828125
vt 0 0.8828125
vt 0.0625 0.5703125
vt 0.09375 0.5703125
vt 0.09375 0.609375
vt 0.0625 0.609375
vt 0 0.65625
vt 0 0.640625
vt 0.03125 0.640625
vt 0.03125 0.65625
vt 0.671875 1
vt 0.671875 0.984375
vt 0.703125 0.984375
vt 0.703125 1
vt 0.109375 0.5703125
vt 0.140625 0.5703125
vt 0.140625 0.609375
vt 0.109375 0.609375
vt 0 0.7109375
vt 0.03125 0.7109375
vt 0.03125 0.75
vt 0 0.75
vt 0 0.75
vt 0.03125 0.75
vt 0.03125 0.7890625
vt 0 0.7890625
vt 0.359375 0.578125
vt 0.359375 0.5625
vt 0.3984375 0.5625
vt 0.3984375 0.578125
vt 0.3984375 0.578125
vt 0.3984375 0.5625
vt 0.4375 0.5625
vt 0.4375 0.578125
vt 0.4375 0.578125
vt 0.4375 0.5625
vt 0.4765625 0.5625
vt 0.4765625 0.578125
vt 0 0.9609375
vt 0.03125 0.9609375
vt 0.03125 1
vt 0 1
vt 0 0.921875
vt 0.03125 0.921875
vt 0.03125 0.9609375
vt 0 0.9609375
vt 0 0.8828125
vt 0.03125 0.8828125
vt 0.03125 0.921875
vt 0 0.921875
vt 0.4765625 0.734375
vt 0.4765625 0.71875
vt 0.515625 0.71875
vt 0.515625 0.734375
vt 0.4375 0.734375
vt 0.4375 0.71875
vt 0.4765625 0.71875
vt 0.4765625 0.734375
vt 0.3984375 0.734375
vt 0.3984375 0.71875
vt 0.4375 0.71875
vt 0.4375 0.734375
vt 0.03125 0.671875
vt 0.3125 0.671875
vt 0.3125 0.7109375
vt 0.03125 0.7109375
vt 0.390625 1
vt 0.390625 0.984375
vt 0.671875 0.984375
vt 0.671875 1
vt 0.03125 0.9609375
vt 0.3125 0.9609375
vt 0.3125 1
vt 0.03125 1
vt 0.03125 0.921875
vt 0.3125 0.921875
vt 0.3125 0.9609375
vt 0.03125 0.9609375
vt 0.03125 0.8828125
vt 0.3125 0.8828125
vt 0.3125 0.921875
vt 0.03125 0.921875
vt 0.03125 0.84375
vt 0.3125 0.84375
vt 0.3125 0.8828125
vt 0.03125 0.8828125
vt 0.03125 0.65625
vt 0.03125 0.640625
vt 0.3125 0.640625
vt 0.3125 0.65625
vt 0.03125 0.7890625
vt 0.3125 0.7890625
vt 0.3125 0.828125
vt 0.03125 0.828125
vt 0.03125 0.75
vt 0.3125 0.75
vt 0.3125 0.7890625
vt 0.03125 0.7890625
vt 0.03125 0.7109375
vt 0.3125 0.7109375
vt 0.3125 0.75
vt 0.03125 0.75
vt 0.1875 0.609375
vt 0.15625 0.609375
vt 0.15625 0.5703125
vt 0.1875 0.5703125
vt 0.359375 1
vt 0.359375 0.984375
vt 0.390625 0.984375
vt 0.390625 1
vt 0.34375 1
vt 0.3125 1
vt 0.3125 0.9609375
vt 0.34375 0.9609375
vt 0.34375 0.9609375
vt 0.3125 0.9609375
vt 0.3125 0.921875
vt 0.34375 0.921875
vt 0.34375 0.921875
vt 0.3125 0.921875
vt 0.3125 0.8828125
vt 0.34375 0.8828125
vt 0.34375 0.8828125
vt 0.3125 0.8828125
vt 0.3125 0.84375
vt 0.34375 0.84375
vt 0.3125 0.65625
vt 0.3125 0.640625
vt 0.34375 0.640625
vt 0.34375 0.65625
vt 0.234375 0.609375
vt 0.203125 0.609375
vt 0.203125 0.5703125
vt 0.234375 0.5703125
vt 0.34375 0.7890625
vt 0.3125 0.7890625
vt 0.3125 0.75
vt 0.34375 0.75
vt 0.34375 0.75
vt 0.3125 0.75
vt 0.3125 0.7109375
vt 0.34375 0.7109375
vt 0.53125 0.65625
vt 0.5625 0.65625
vt 0.5625 0.671875
vt 0.53125 0.671875
vt 0.25 0.59375
vt 0.2890625 0.59375
vt 0.2890625 0.609375
vt 0.25 0.609375
vt 0 0.515625
vt 0.03125 0.515625
vt 0.03125 0.53125
vt 0 0.53125
vt 0.4765625 0.4375
vt 0.515625 0.4375
vt 0.515625 0.453125
vt 0.4765625 0.453125
vt 0.671875 0.859375
vt 0.703125 0.859375
vt 0.703125 0.875
vt 0.671875 0.875
vt 0.25 0.5625
vt 0.2890625 0.5625
vt 0.2890625 0.578125
vt 0.25 0.578125
vt 0.53125 0.625
vt 0.5625 0.625
vt 0.5625 0.640625
vt 0.53125 0.640625
vt 0.35937500000000006 0.4375
vt 0.39843750000000006 0.4375
vt 0.39843750000000006 0.453125
vt 0.35937500000000006 0.453125
vt 0.53125 0.59375
vt 0.5625 0.59375
vt 0.5625 0.609375
vt 0.53125 0.609375
vt 0.53125 0.71875
vt 0.5703125 0.71875
vt 0.5703125 0.734375
vt 0.53125 0.734375
vt 0.359375 0.859375
vt 0.390625 0.859375
vt 0.390625 0.875
vt 0.359375 0.875
vt 0.4765625 0.59375
vt 0.515625 0.59375
vt 0.515625 0.609375
vt 0.4765625 0.609375
vt 0.3125 0.515625
vt 0.34375 0.515625
vt 0.34375 0.53125
vt 0.3125 0.53125
vt 0.53125 0.6875
vt 0.5703125 0.6875
vt 0.5703125 0.703125
vt 0.53125 0.703125
vt 0.53125 0.5625
vt 0.5625 0.5625
vt 0.5625 0.578125
vt 0.53125 0.578125
vt 0.359375 0.59375
vt 0.3984375 0.59375
vt 0.3984375 0.609375
vt 0.359375 0.609375
vt 0.359375 0.84375
vt 0.359375 0.75
vt 0.640625 0.75
vt 0.640625 0.84375
vt 0 0.640625
vt 0 0.546875
vt 0.03125 0.546875
vt 0.03125 0.640625
vt 0.4765625 0.5625
vt 0.4765625 0.46875
vt 0.515625 0.46875
vt 0.515625 0.5625
vt 0.4375 0.5625
vt 0.4375 0.46875
vt 0.4765625 0.46875
vt 0.4765625 0.5625
vt 0.3984375 0.5625
vt 0.39843750000000006 0.46875
vt 0.43750000000000006 0.46875
vt 0.4375 0.5625
vt 0.359375 0.5625
vt 0.35937500000000006 0.46875
vt 0.39843750000000006 0.46875
vt 0.3984375 0.5625
vt 0.671875 0.984375
vt 0.671875 0.890625
vt 0.703125 0.890625
vt 0.703125 0.984375
vt 0.390625 0.984375
vt 0.390625 0.890625
vt 0.671875 0.890625
vt 0.671875 0.984375
vt 0.359375 0.984375
vt 0.359375 0.890625
vt 0.390625 0.890625
vt 0.390625 0.984375
vt 0.4765625 0.71875
vt 0.4765625 0.625
vt 0.515625 0.625
vt 0.515625 0.71875
vt 0.4375 0.71875
vt 0.4375 0.625
vt 0.4765625 0.625
vt 0.4765625 0.71875
vt 0.3984375 0.71875
vt 0.3984375 0.625
vt 0.4375 0.625
vt 0.4375 0.71875
vt 0.359375 0.71875
vt 0.359375 0.625
vt 0.3984375 0.625
vt 0.3984375 0.71875
vt 0.3125 0.640625
vt 0.3125 0.546875
vt 0.34375 0.546875
vt 0.34375 0.640625
vt 0.3125 0.53125
vt 0.3125 0.546875
vt 0.03125 0.546875
vt 0.03125 0.53125
vt 0.03125 0.53125
vt 0.03125 0.546875
vt 0 0.546875
vt 0 0.53125
vt 0.515625 0.453125
vt 0.515625 0.46875
vt 0.4765625 0.46875
vt 0.4765625 0.453125
vt 0.4765625 0.453125
vt 0.4765625 0.46875
vt 0.4375 0.46875
vt 0.4375 0.453125
vt 0.43750000000000006 0.453125
vt 0.43750000000000006 0.46875
vt 0.39843750000000006 0.46875
vt 0.39843750000000006 0.453125
vt 0.39843750000000006 0.453125
vt 0.39843750000000006 0.46875
vt 0.35937500000000006 0.46875
vt 0.35937500000000006 0.453125
vt 0.703125 0.875
vt 0.703125 0.890625
vt 0.671875 0.890625
vt 0.671875 0.875
vt 0.671875 0.875
vt 0.671875 0.890625
vt 0.390625 0.890625
vt 0.390625 0.875
vt 0.390625 0.875
vt 0.390625 0.890625
vt 0.359375 0.890625
vt 0.359375 0.875
vt 0.515625 0.609375
vt 0.515625 0.625
vt 0.4765625 0.625
vt 0.4765625 0.609375
vt 0.4765625 0.609375
vt 0.4765625 0.625
vt 0.4375 0.625
vt 0.4375 0.609375
vt 0.4375 0.609375
vt 0.4375 0.625
vt 0.3984375 0.625
vt 0.3984375 0.609375
vt 0.3984375 0.609375
vt 0.3984375 0.625
vt 0.359375 0.625
vt 0.359375 0.609375
vt 0.34375 0.53125
vt 0.34375 0.546875
vt 0.3125 0.546875
vt 0.3125 0.53125
vt 0.3046875 0.40625
vt 0.3046875 0.5
vt 0.296875 0.5
vt 0.296875 0.40625
vt 0.28125 0.5
vt 0 0.5
vt 0 0.4921875
vt 0.28125 0.4921875
vt 0.328125 0.5
vt 0.328125 0.40625
vt 0.3359375 0.40625
vt 0.3359375 0.5
vt 0 0.4609375
vt 0.28125 0.4609375
vt 0.28125 0.46875
vt 0 0.46875
vn 1 0 0
vn -1 0 0
vn 0 1 0
vn 0 -1 0
vn 0 0 1
vn 0 0 -1
vn 0 -1 0
vn 0 -1 0
vn 0 -1 0
vn -1 0 0
vn -1 0 0
vn -1 0 0
vn 0 1 0
vn 0 1 0
vn 0 1 0
vn 1 0 0
vn 1 0 0
vn 1 0 0
vn 0 -1 0
vn 0 0 -1
vn 0 1 0
vn 0 1 0
vn 0 1 0
vn 0 1 0
vn 0 0 1
vn 0 -1 0
vn 0 -1 0
vn 0 -1 0
vn 0 -1 0
vn 0 0 -1
vn 0 1 0
vn 0 1 0
vn 0 1 0
vn 0 1 0
vn 0 0 1
vn 0 -1 0
vn 0 -1 0
vn 0 -1 0
vn 0 0 -1
vn 1 0 0
vn 0 0 1
vn -1 0 0
vn 0 0 -1
vn 1 0 0
vn 0 0 1
vn -1 0 0
vn 0 0 1
vn -1 0 0
vn 0 0 -1
vn 1 0 0
vn 0 0 1
vn -1 0 0
vn 0 0 -1
vn 1 0 0
vn 0 0 1
vn 0 0 1
vn -1 0 0
vn -1 0 0
vn -1 0 0
vn -1 0 0
vn 0 0 -1
vn 0 0 -1
vn 0 0 -1
vn 1 0 0
vn 1 0 0
vn 1 0 0
vn 1 0 0
vn 0 0 1
vn 0 0 1
vn 0 0 1
vn -1 0 0
vn -1 0 0
vn -1 0 0
vn -1 0 0
vn 0 0 -1
vn 0 0 -1
vn 0 0 -1
vn 1 0 0
vn 1 0 0
vn 1 0 0
vn 1 0 0
vn 0 0 1
vn -1 0 0
vn 0 -1 0
vn 1 0 0
vn 0 1 0
usemtl m_24fa7227-d58b-5c16-e7cc-ffdb9f362070
f 1/1/1 70/2/1 69/3/1 20/4/1
f 17/5/2 60/6/2 59/7/2 5/8/2
f 5/9/3 27/10/3 26/11/3 17/12/3
f 41/13/4 43/14/4 42/15/4 44/16/4
f 5/17/5 59/18/5 58/19/5 27/20/5
f 23/21/6 64/22/6 63/23/6 6/24/6
f 45/25/7 47/26/7 46/27/7 48/28/7
f 10/29/8 21/30/8 30/31/8 12/32/8
f 12/33/9 30/34/9 29/35/9 14/36/9
f 6/37/10 63/38/10 62/39/10 15/40/10
f 15/41/11 62/42/11 61/43/11 16/44/11
f 16/45/12 61/46/12 60/47/12 17/48/12
f 15/49/13 24/50/13 23/51/13 6/52/13
f 16/53/14 25/54/14 24/55/14 15/56/14
f 17/57/15 26/58/15 25/59/15 16/60/15
f 18/61/16 67/62/16 66/63/16 2/64/16
f 19/65/17 68/66/17 67/67/17 18/68/17
f 20/69/18 69/70/18 68/71/18 19/72/18
f 22/73/19 32/74/19 31/75/19 21/76/19
f 33/77/20 65/78/20 64/79/20 23/80/20
f 24/81/21 34/82/21 33/83/21 23/84/21
f 25/85/22 35/86/22 34/87/22 24/88/22
f 26/89/23 36/90/23 35/91/23 25/92/23
f 27/93/24 37/94/24 36/95/24 26/96/24
f 27/97/25 58/98/25 57/99/25 37/100/25
f 29/101/26 39/102/26 38/103/26 28/104/26
f 30/105/27 40/106/27 39/107/27 29/108/27
f 21/109/28 31/110/28 40/111/28 30/112/28
f 49/113/29 50/114/29 51/115/29 52/116/29
f 2/117/30 66/118/30 65/119/30 33/120/30
f 2/121/31 33/122/31 34/123/31 18/124/31
f 18/125/32 34/126/32 35/127/32 19/128/32
f 19/129/33 35/130/33 36/131/33 20/132/33
f 20/133/34 36/134/34 37/135/34 1/136/34
f 37/137/35 57/138/35 70/139/35 1/140/35
f 53/141/36 54/142/36 55/143/36 56/144/36
f 13/145/37 39/146/37 40/147/37 11/148/37
f 11/149/38 40/150/38 31/151/38 9/152/38
f 43/153/39 41/154/39 14/155/39 29/156/39
f 42/157/40 43/158/40 29/159/40 28/160/40
f 44/161/41 42/162/41 28/163/41 7/164/41
f 41/165/42 44/166/42 7/167/42 14/168/42
f 47/169/43 45/170/43 8/171/43 22/172/43
f 46/173/44 47/174/44 22/175/44 21/176/44
f 48/177/45 46/178/45 21/179/45 10/180/45
f 45/181/46 48/182/46 10/183/46 8/184/46
f 50/185/47 49/186/47 9/187/47 31/188/47
f 51/189/48 50/190/48 31/191/48 32/192/48
f 52/193/49 51/194/49 32/195/49 4/196/49
f 49/197/50 52/198/50 4/199/50 9/200/50
f 54/201/51 53/202/51 3/203/51 38/204/51
f 55/205/52 54/206/52 38/207/52 39/208/52
f 56/209/53 55/210/53 39/211/53 13/212/53
f 53/213/54 56/214/54 13/215/54 3/216/54
f 85/217/55 87/218/55 86/219/55 88/220/55
f 59/221/56 73/222/56 72/223/56 58/224/56
f 60/225/57 74/226/57 73/227/57 59/228/57
f 61/229/58 75/230/58 74/231/58 60/232/58
f 62/233/59 76/234/59 75/235/59 61/236/59
f 63/237/60 77/238/60 76/239/60 62/240/60
f 64/241/61 78/242/61 77/243/61 63/244/61
f 65/245/62 79/246/62 78/247/62 64/248/62
f 66/249/63 80/250/63 79/251/63 65/252/63
f 67/253/64 81/254/64 80/255/64 66/256/64
f 68/257/65 82/258/65 81/259/65 67/260/65
f 69/261/66 83/262/66 82/263/66 68/264/66
f 70/265/67 84/266/67 83/267/67 69/268/67
f 57/269/68 71/270/68 84/271/68 70/272/68
f 38/273/69 71/274/69 72/275/69 28/276/69
f 28/277/70 72/278/70 73/279/70 7/280/70
f 7/281/71 73/282/71 74/283/71 14/284/71
f 14/285/72 74/286/72 75/287/72 12/288/72
f 12/289/73 75/290/73 76/291/73 10/292/73
f 10/293/74 76/294/74 77/295/74 8/296/74
f 8/297/75 77/298/75 78/299/75 22/300/75
f 22/301/76 78/302/76 79/303/76 32/304/76
f 32/305/77 79/306/77 80/307/77 4/308/77
f 4/309/78 80/310/78 81/311/78 9/312/78
f 9/313/79 81/314/79 82/315/79 11/316/79
f 11/317/80 82/318/80 83/319/80 13/320/80
f 13/321/81 83/322/81 84/323/81 3/324/81
f 3/325/82 84/326/82 71/327/82 38/328/82
f 87/329/83 85/330/83 58/331/83 72/332/83
f 86/333/84 87/334/84 72/335/84 71/336/84
f 88/337/85 86/338/85 71/339/85 57/340/85
f 85/341/86 88/342/86 57/343/86 58/344/86