# Made in Blockbench 5.1.6
mtllib bed.mtl

o cube
v 0 0.6625000000000001 0.625
v 0 0.6625000000000001 1.125
v 0 0.625 1.10625
v 0 0.625 0.64375
v 0.4375 0.6625000000000001 1.125
v 0.4375 0.6625000000000001 0.625
v 0.4 0.625 1.10625
v 0.4 0.625 0.64375
v 0.21875 0.6625000000000001 0.625
v 0.21875 0.6625000000000001 1.125
v 0.21875 0.625 1.10625
v 0.21875 0.625 0.64375
v -0.4375 0.6625000000000001 1.125
v -0.4375 0.6625000000000001 0.625
v -0.4 0.625 1.10625
v -0.4 0.625 0.64375
v -0.21875 0.6625000000000001 0.625
v -0.21875 0.6625000000000001 1.125
v -0.21875 0.625 1.10625
v -0.21875 0.625 0.64375
vt 0.31796875 0.392578125
vt 0.3203125 0.3984375
vt 0.2578125 0.3984375
vt 0.26015625 0.392578125
vt 0.7109375 0.47594375
vt 0.68359375 0.47594375
vt 0.68359375 0.470703125
vt 0.70625 0.470703125
vt 0.68359375 0.47594375
vt 0.65625 0.47594375
vt 0.65625 0.470703125
vt 0.68359375 0.470703125
vt 0.42890625 0.47578125000000004
vt 0.40625 0.47578125000000004
vt 0.40625 0.41796875
vt 0.42890625 0.41796875
vt 0.40625 0.47578125000000004
vt 0.37890625 0.47578125000000004
vt 0.37890625 0.41796875
vt 0.40625 0.41796875
vt 0.60625 0.455078125
vt 0.62890625 0.455078125
vt 0.62890625 0.46031875
vt 0.6015625 0.46031875
vt 0.62890625 0.455078125
vt 0.65625 0.455078125
vt 0.65625 0.46031875
vt 0.62890625 0.46031875
vt 0.6640625 0.4453125
vt 0.6015625 0.4453125
vt 0.60390625 0.439453125
vt 0.66171875 0.439453125
vt 0.62890625 0.470703125
vt 0.62890625 0.47594375
vt 0.6015625 0.47594375
vt 0.60625 0.470703125
vt 0.65625 0.470703125
vt 0.65625 0.47594375
vt 0.62890625 0.47594375
vt 0.62890625 0.470703125
vt 0.3515625 0.41796875
vt 0.3515625 0.47578125000000004
vt 0.32890625 0.47578125000000004
vt 0.32890625 0.41796875
vt 0.37890625 0.41796875
vt 0.37890625 0.47578125000000004
vt 0.3515625 0.47578125000000004
vt 0.3515625 0.41796875
vt 0.68359375 0.46031875
vt 0.68359375 0.455078125
vt 0.70625 0.455078125
vt 0.7109375 0.46031875
vt 0.65625 0.46031875
vt 0.65625 0.455078125
vt 0.68359375 0.455078125
vt 0.68359375 0.46031875
vn 0.7071067811865478 -0.7071067811865474 0
vn 0 -0.44721359549995765 0.8944271909999161
vn 0 -0.44721359549995765 0.8944271909999161
vn 0 -1 0
vn 0 -1 0
vn 0 -0.44721359549995804 -0.8944271909999161
vn 0 -0.44721359549995804 -0.8944271909999161
vn -0.7071067811865478 -0.7071067811865474 0
vn 0 -0.44721359549995765 0.8944271909999161
vn 0 -0.44721359549995765 0.8944271909999161
vn 0 -1 0
vn 0 -1 0
vn 0 -0.44721359549995804 -0.8944271909999161
vn 0 -0.44721359549995804 -0.8944271909999161
usemtl m_3a3f7f58-5664-43a9-d345-b8fc339f5846
f 8/1/1 6/2/1 5/3/1 7/4/1
f 5/5/2 10/6/2 11/7/2 7/8/2
f 10/9/3 2/10/3 3/11/3 11/12/3
f 7/13/4 11/14/4 12/15/4 8/16/4
f 11/17/5 3/18/5 4/19/5 12/20/5
f 8/21/6 12/22/6 9/23/6 6/24/6
f 12/25/7 4/26/7 1/27/7 9/28/7
f 13/29/8 14/30/8 16/31/8 15/32/8
f 19/33/9 18/34/9 13/35/9 15/36/9
f 3/37/10 2/38/10 18/39/10 19/40/10
f 20/41/11 19/42/11 15/43/11 16/44/11
f 4/45/12 3/46/12 19/47/12 20/48/12
f 17/49/13 20/50/13 16/51/13 14/52/13
f 1/53/14 4/54/14 20/55/14 17/56/14
o cube
v 0 0.725 0.6875
v 0 0.725 1.0625
v 0 0.6625 1.125
v 0 0.6625 0.625
v 0.375 0.725 1.0625
v 0.375 0.725 0.6875
v 0.4375 0.6625 1.125
v 0.4375 0.6625 0.625
v 0.1875 0.725 0.6875
v 0.1875 0.725 1.0625
v 0.21875 0.6625 1.125
v 0.21875 0.6625 0.625
v -0.375 0.725 1.0625
v -0.375 0.725 0.6875
v -0.4375 0.6625 1.125
v -0.4375 0.6625 0.625
v -0.1875 0.725 0.6875
v -0.1875 0.725 1.0625
v -0.21875 0.6625 1.125
v -0.21875 0.6625 0.625
vt 0.1796875 0.38671875
vt 0.171875 0.3984375
vt 0.125 0.3984375
vt 0.1171875 0.38671875
vt 0.5859375 0.5859375
vt 0.5625 0.5859375
vt 0.5625 0.5390625
vt 0.5859375 0.5390625
vt 0.5625 0.5859375
vt 0.5390625 0.5859375
vt 0.5390625 0.5390625
vt 0.5625 0.5390625
vt 0.6953125 0.5625
vt 0.671875 0.5625
vt 0.67578125 0.5514515625
vt 0.703125 0.5514515625
vt 0.671875 0.5625
vt 0.6484375 0.5625
vt 0.6484375 0.5514515625
vt 0.67578125 0.5514515625
vt 0 0.38738906250000005
vt 0.02734375 0.38738906250000005
vt 0.03125 0.3984375
vt 0.0078125 0.3984375
vt 0.02734375 0.38738906250000005
vt 0.0546875 0.38738906250000005
vt 0.0546875 0.3984375
vt 0.03125 0.3984375
vt 0.2421875 0.3984375
vt 0.1953125 0.3984375
vt 0.1875 0.38671875
vt 0.25 0.38671875
vt 0.515625 0.5390625
vt 0.515625 0.5859375
vt 0.4921875 0.5859375
vt 0.4921875 0.5390625
vt 0.5390625 0.5390625
vt 0.5390625 0.5859375
vt 0.515625 0.5859375
vt 0.515625 0.5390625
vt 0.62109375 0.5514515625
vt 0.625 0.5625
vt 0.6015625 0.5625
vt 0.59375 0.5514515625
vt 0.6484375 0.5514515625
vt 0.6484375 0.5625
vt 0.625 0.5625
vt 0.62109375 0.5514515625
vt 0.078125 0.3984375
vt 0.08203125 0.38738906250000005
vt 0.109375 0.38738906250000005
vt 0.1015625 0.3984375
vt 0.0546875 0.3984375
vt 0.0546875 0.38738906250000005
vt 0.08203125 0.38738906250000005
vt 0.078125 0.3984375
vn 0.7071067811865476 0.7071067811865476 0
vn 0 1 0
vn 0 1 0
vn 0 0.7071067811865476 0.7071067811865476
vn 0 0.7071067811865476 0.7071067811865476
vn 0 0.7071067811865476 -0.7071067811865476
vn 0 0.7071067811865476 -0.7071067811865476
vn -0.7071067811865476 0.7071067811865476 0
vn 0 1 0
vn 0 1 0
vn 0 0.7071067811865476 0.7071067811865476
vn 0 0.7071067811865476 0.7071067811865476
vn 0 0.7071067811865476 -0.7071067811865476
vn 0 0.7071067811865476 -0.7071067811865476
usemtl m_3a3f7f58-5664-43a9-d345-b8fc339f5846
f 28/57/15 26/58/15 25/59/15 27/60/15
f 26/61/16 29/62/16 30/63/16 25/64/16
f 29/65/17 21/66/17 22/67/17 30/68/17
f 25/69/18 30/70/18 31/71/18 27/72/18
f 30/73/19 22/74/19 23/75/19 31/76/19
f 28/77/20 32/78/20 29/79/20 26/80/20
f 32/81/21 24/82/21 21/83/21 29/84/21
f 33/85/22 34/86/22 36/87/22 35/88/22
f 38/89/23 37/90/23 34/91/23 33/92/23
f 22/93/24 21/94/24 37/95/24 38/96/24
f 39/97/25 38/98/25 33/99/25 35/100/25
f 23/101/26 22/102/26 38/103/26 39/104/26
f 37/105/27 40/106/27 36/107/27 34/108/27
f 21/109/28 24/110/28 40/111/28 37/112/28
o cube
v 0.625 0.3125 1.125
v 0.625 0.3125 -1.125
v 0.625 0.125 1.125
v 0.625 0.125 -1.125
v -0.625 0.3125 -1.125
v -0.625 0.3125 1.125
v -0.625 0.125 -1.125
v -0.625 0.125 1.125
vt 0.4375 0.4765625
vt 0.59375 0.4765625
vt 0.59375 0.453125
vt 0.4375 0.453125
vt 0.4921875 0.7421875
vt 0.7734375 0.7421875
vt 0.7734375 0.71875
vt 0.4921875 0.71875
vt 0.4375 0.4453125
vt 0.59375 0.4453125
vt 0.59375 0.421875
vt 0.4375 0.421875
vt 0.4921875 0.7109375
vt 0.7734375 0.7109375
vt 0.7734375 0.6875
vt 0.4921875 0.6875
vt 0.15625 0.4296875
vt 0 0.4296875
vt 0 0.7109375
vt 0.15625 0.7109375
vt 0.3203125 0.7109375
vt 0.1640625 0.7109375
vt 0.1640625 0.4296875
vt 0.3203125 0.4296875
vn 0 0 -1
vn 1 0 0
vn 0 0 1
vn -1 0 0
vn 0 1 0
vn 0 -1 0
usemtl m_3a3f7f58-5664-43a9-d345-b8fc339f5846
f 44/116/29 47/115/29 45/114/29 42/113/29
f 43/120/30 44/119/30 42/118/30 41/117/30
f 48/124/31 43/123/31 41/122/31 46/121/31
f 47/128/32 48/127/32 46/126/32 45/125/32
f 46/132/33 41/131/33 42/130/33 45/129/33
f 47/136/34 44/135/34 43/134/34 48/133/34
o cube
v 0.625 1.0625 1.25
v 0.625 1.0625 1.125
v 0.625 0 1.25
v 0.625 0 1.125
v -0.625 1.0625 1.125
v -0.625 1.0625 1.25
v -0.625 0 1.125
v -0.625 0 1.25
vt 0.328125 1
vt 0.484375 1
vt 0.484375 0.8671875
vt 0.328125 0.8671875
vt 0.328125 0.40625
vt 0.34375 0.40625
vt 0.34375 0.2734375
vt 0.328125 0.2734375
vt 0.328125 0.859375
vt 0.484375 0.859375
vt 0.484375 0.7265625
vt 0.328125 0.7265625
vt 0.3515625 0.40625
vt 0.3671875 0.40625
vt 0.3671875 0.2734375
vt 0.3515625 0.2734375
vt 0.15625 0.40625
vt 0 0.40625
vt 0 0.421875
vt 0.15625 0.421875
vt 0.3203125 0.421875
vt 0.1640625 0.421875
vt 0.1640625 0.40625
vt 0.3203125 0.40625
vn 0 0 -1
vn 1 0 0
vn 0 0 1
vn -1 0 0
vn 0 1 0
vn 0 -1 0
usemtl m_3a3f7f58-5664-43a9-d345-b8fc339f5846
f 52/140/35 55/139/35 53/138/35 50/137/35
f 51/144/36 52/143/36 50/142/36 49/141/36
f 56/148/37 51/147/37 49/146/37 54/145/37
f 55/152/38 56/151/38 54/150/38 53/149/38
f 54/156/39 49/155/39 50/154/39 53/153/39
f 55/160/40 52/159/40 51/158/40 56/157/40
o cube
v 0.625 0.6875 -1.125
v 0.625 0.6875 -1.25
v 0.625 0 -1.125
v 0.625 0 -1.25
v -0.625 0.6875 -1.25
v -0.625 0.6875 -1.125
v -0.625 0 -1.25
v -0.625 0 -1.125
vt 0.328125 0.71875
vt 0.484375 0.71875
vt 0.484375 0.6328125
vt 0.328125 0.6328125
vt 0.375 0.40625
vt 0.390625 0.40625
vt 0.390625 0.3203125
vt 0.375 0.3203125
vt 0.328125 0.625
vt 0.484375 0.625
vt 0.484375 0.5390625
vt 0.328125 0.5390625
vt 0.3984375 0.40625
vt 0.4140625 0.40625
vt 0.4140625 0.3203125
vt 0.3984375 0.3203125
vt 0.59375 0.3984375
vt 0.4375 0.3984375
vt 0.4375 0.4140625
vt 0.59375 0.4140625
vt 0.75 0.5859375
vt 0.59375 0.5859375
vt 0.59375 0.5703125
vt 0.75 0.5703125
vn 0 0 -1
vn 1 0 0
vn 0 0 1
vn -1 0 0
vn 0 1 0
vn 0 -1 0
usemtl m_3a3f7f58-5664-43a9-d345-b8fc339f5846
f 60/164/41 63/163/41 61/162/41 58/161/41
f 59/168/42 60/167/42 58/166/42 57/165/42
f 64/172/43 59/171/43 57/170/43 62/169/43
f 63/176/44 64/175/44 62/174/44 61/173/44
f 62/180/45 57/179/45 58/178/45 61/177/45
f 63/184/46 60/183/46 59/182/46 64/181/46
o cube
v 0.625 0.5 1.125
v 0.625 0.5 -1.125
v 0.625 0.125 1.125
v 0.625 0.125 -1.125
v 0.625 0.5 -1.125
v 0.625 0.5 1.125
v 0.625 0.125 -1.125
v 0.625 0.125 1.125
vt 0.421875 0.40625
vt 0.421875 0.40625
vt 0.421875 0.359375
vt 0.421875 0.359375
vt 0.328125 0.53125
vt 0.609375 0.53125
vt 0.609375 0.484375
vt 0.328125 0.484375
vt 0.4296875 0.40625
vt 0.4296875 0.40625
vt 0.4296875 0.359375
vt 0.4296875 0.359375
vt 0.4921875 1
vt 0.7734375 1
vt 0.7734375 0.953125
vt 0.4921875 0.953125
vt 0.6015625 0.1484375
vt 0.6015625 0.1484375
vt 0.6015625 0.4296875
vt 0.6015625 0.4296875
vt 0.4375 0.390625
vt 0.4375 0.390625
vt 0.4375 0.109375
vt 0.4375 0.109375
vn 0 0 -1
vn 1 0 0
vn 0 0 1
vn -1 0 0
vn 0 1 0
vn 0 -1 0
usemtl m_3a3f7f58-5664-43a9-d345-b8fc339f5846
f 68/188/47 71/187/47 69/186/47 66/185/47
f 67/192/48 68/191/48 66/190/48 65/189/48
f 72/196/49 67/195/49 65/194/49 70/193/49
f 71/200/50 72/199/50 70/198/50 69/197/50
f 70/204/51 65/203/51 66/202/51 69/201/51
f 71/208/52 68/207/52 67/206/52 72/205/52
o cube
v -0.6249375 0.5000625 1.1250625
v -0.6249375 0.5000625 -1.1250625
v -0.6249375 0.1249375 1.1250625
v -0.6249375 0.1249375 -1.1250625
v -0.6250625 0.5000625 -1.1250625
v -0.6250625 0.5000625 1.1250625
v -0.6250625 0.1249375 -1.1250625
v -0.6250625 0.1249375 1.1250625
vt 0.4453125 0.390625
vt 0.4453125 0.390625
vt 0.4453125 0.34375
vt 0.4453125 0.34375
vt 0.4921875 0.9453125
vt 0.7734375 0.9453125
vt 0.7734375 0.8984375
vt 0.4921875 0.8984375
vt 0.453125 0.390625
vt 0.453125 0.390625
vt 0.453125 0.34375
vt 0.453125 0.34375
vt 0.4921875 0.890625
vt 0.7734375 0.890625
vt 0.7734375 0.84375
vt 0.4921875 0.84375
vt 0.4609375 0.109375
vt 0.4609375 0.109375
vt 0.4609375 0.390625
vt 0.4609375 0.390625
vt 0.46875 0.390625
vt 0.46875 0.390625
vt 0.46875 0.109375
vt 0.46875 0.109375
vn 0 0 -1
vn 1 0 0
vn 0 0 1
vn -1 0 0
vn 0 1 0
vn 0 -1 0
usemtl m_3a3f7f58-5664-43a9-d345-b8fc339f5846
f 76/212/53 79/211/53 77/210/53 74/209/53
f 75/216/54 76/215/54 74/214/54 73/213/54
f 80/220/55 75/219/55 73/218/55 78/217/55
f 79/224/56 80/223/56 78/222/56 77/221/56
f 78/228/57 73/227/57 74/226/57 77/225/57
f 79/232/58 76/231/58 75/230/58 80/229/58
o cube
v 0.625 0.625 1.125
v 0.625 0.625 -1.125
v 0.625 0.3125 1.125
v 0.625 0.3125 -1.125
v -0.625 0.625 -1.125
v -0.625 0.625 1.125
v -0.625 0.3125 -1.125
v -0.625 0.3125 1.125
vt 0.4921875 0.6796875
vt 0.6484375 0.6796875
vt 0.6484375 0.640625
vt 0.4921875 0.640625
vt 0.4921875 0.8359375
vt 0.7734375 0.8359375
vt 0.7734375 0.796875
vt 0.4921875 0.796875
vt 0.4921875 0.6328125
vt 0.6484375 0.6328125
vt 0.6484375 0.59375
vt 0.4921875 0.59375
vt 0.4921875 0.7890625
vt 0.7734375 0.7890625
vt 0.7734375 0.75
vt 0.4921875 0.75
vt 0.15625 0.71875
vt 0 0.71875
vt 0 1
vt 0.15625 1
vt 0.3203125 1
vt 0.1640625 1
vt 0.1640625 0.71875
vt 0.3203125 0.71875
vn 0 0 -1
vn 1 0 0
vn 0 0 1
vn -1 0 0
vn 0 1 0
vn 0 -1 0
usemtl m_3a3f7f58-5664-43a9-d345-b8fc339f5846
f 84/236/59 87/235/59 85/234/59 82/233/59
f 83/240/60 84/239/60 82/238/60 81/237/60
f 88/244/61 83/243/61 81/242/61 86/241/61
f 87/248/62 88/247/62 86/246/62 85/245/62
f 86/252/63 81/251/63 82/250/63 85/249/63
f 87/256/64 84/255/64 83/254/64 88/253/64