# Made in Blockbench 5.1.6
mtllib carpet_circle.mtl

o circle
v 0.18750000000000003 0.13124999999999998 1.665334536937735e-17
v 0.5726769641197389 0.13124999999999998 1.5000000000000002
v 1.239823035880261 0.13124999999999998 1.0980762113533165
v 1.6250000000000002 0.13124999999999998 0.40192378864668404
v 1.6250000000000002 0.13124999999999998 -0.4019237886466842
v 1.2398230358802615 0.13124999999999998 -1.098076211353316
v 0.5726769641197393 0.13124999999999998 -1.5
v -0.19767696411973823 0.13124999999999998 -1.5000000000000002
v -0.8648230358802611 0.13124999999999998 -1.0980762113533165
v -1.25 0.13124999999999998 -0.40192378864668377
v -1.2500000000000002 0.13124999999999998 0.4019237886466834
v -0.8648230358802615 0.13124999999999998 1.098076211353316
v -0.19767696411973879 0.13124999999999998 1.5000000000000002
vt 0.6224562499999999 0.3504812500000001
vt 0.71875 0.52451875
vt 0.359375 0.625
vt 0.71875 0.52451875
vt 0.71875 0.72548125
vt 0.359375 0.625
vt 0.71875 0.72548125
vt 0.6224562499999999 0.8995187499999999
vt 0.359375 0.625
vt 0.6224562499999999 0.8995187499999999
vt 0.45566875 1
vt 0.359375 0.625
vt 0.45566875 1
vt 0.26308125000000004 1
vt 0.359375 0.625
vt 0.26308125000000004 1
vt 0.09629375000000001 0.8995187499999999
vt 0.359375 0.625
vt 0.09629375000000001 0.8995187499999999
vt 0 0.72548125
vt 0.359375 0.625
vt 0 0.72548125
vt 0 0.52451875
vt 0.359375 0.625
vt 0 0.52451875
vt 0.09629375000000001 0.3504812500000001
vt 0.359375 0.625
vt 0.09629375000000001 0.3504812500000001
vt 0.26308125000000004 0.25
vt 0.359375 0.625
vt 0.26308125000000004 0.25
vt 0.45566875 0.25
vt 0.359375 0.625
vt 0.45566875 0.25
vt 0.6224562499999999 0.3504812500000001
vt 0.359375 0.625
vn 0 1 0
vn 0 1 0
vn 0 1 0
vn 0 1 0
vn 0 1 0
vn 0 1 0
vn 0 1 0
vn 0 1 0
vn 0 1 0
vn 0 1 0
vn 0 1 0
vn 0 1 0
usemtl m_b0762acb-1a24-5a34-0e68-288be39da377
f 3/1/1 4/2/1 1/3/1
f 4/4/2 5/5/2 1/6/2
f 5/7/3 6/8/3 1/9/3
f 6/10/4 7/11/4 1/12/4
f 7/13/5 8/14/5 1/15/5
f 8/16/6 9/17/6 1/18/6
f 9/19/7 10/20/7 1/21/7
f 10/22/8 11/23/8 1/24/8
f 11/25/9 12/26/9 1/27/9
f 12/28/10 13/29/10 1/30/10
f 13/31/11 2/32/11 1/33/11
f 2/34/12 3/35/12 1/36/12