# Made in Blockbench 5.1.6
mtllib table.mtl

o cube
v -1.125 0.875 -0.25
v -1.125 0.875 -0.375
v -1.125 0 -0.25
v -1.125 0 -0.375
v -1.25 0.875 -0.375
v -1.25 0.875 -0.25
v -1.25 0 -0.375
v -1.25 0 -0.25
vt 0.0546875 0.53125
vt 0.0703125 0.53125
vt 0.0703125 0.421875
vt 0.0546875 0.421875
vt 0.2890625 0.515625
vt 0.3046875 0.515625
vt 0.3046875 0.40625
vt 0.2890625 0.40625
vt 0.3125 0.515625
vt 0.328125 0.515625
vt 0.328125 0.40625
vt 0.3125 0.40625
vt 0.390625 0.515625
vt 0.40625 0.515625
vt 0.40625 0.40625
vt 0.390625 0.40625
vt 0.3125 0.6328125
vt 0.296875 0.6328125
vt 0.296875 0.6484375
vt 0.3125 0.6484375
vt 0.40625 0.640625
vt 0.390625 0.640625
vt 0.390625 0.625
vt 0.40625 0.625
vn 0 0 -1
vn 1 0 0
vn 0 0 1
vn -1 0 0
vn 0 1 0
vn 0 -1 0
usemtl m_3df7c33e-ca28-ef17-7a88-f5102d1c89c7
f 4/4/1 7/3/1 5/2/1 2/1/1
f 3/8/2 4/7/2 2/6/2 1/5/2
f 8/12/3 3/11/3 1/10/3 6/9/3
f 7/16/4 8/15/4 6/14/4 5/13/4
f 6/20/5 1/19/5 2/18/5 5/17/5
f 7/24/6 4/23/6 3/22/6 8/21/6
o cube
v -1.125 0.875 0.4375
v -1.125 0.875 0.3125
v -1.125 0 0.4375
v -1.25 0.875 0.4375
v -1.25 0.875 0.3125
v -1.25 0 0.4375
v -1.25 0.4375 0.3125
v -1.125 0.4375 0.3125
v -1.125 0.4375 0.4375
v -1.25 0.4375 0.4375
v -1.25 0.4375 -0.25
v -1.125 0.4375 -0.25
v -1.23986125 0.508471875 -0.07263874999999997
v -1.125 0.875 -0.25
v -1.25 0.875 -0.25
v -0.0625 0.875 0.4375
v -0.0625 0.4375 0.3125
v -0.0625 0.4375 0.4375
v -0.0625 0.875 0.3125
v -1.25 0 -0.25
v -1.125 0 -0.25
v -1.125 0 0.3125
v -1.25 0 0.3125
v -0.75 0.4375 0.3125
v -0.75 0.875 0.3125
v -0.75 0.875 0.4375
v -0.75 0.4375 0.4375
v -0.75 0.473958125 0.3125
v -1.125 0.473958125 0.3125
v -1.125 0.473958125 -0.25
v -1.25 0.473958125 -0.25
v -1.25 0.473958125 0.3125
v -1.25 0.473958125 0.4375
v -1.125 0.473958125 0.4375
v -0.75 0.473958125 0.4375
v -0.0625 0.473958125 0.4375
v -0.0625 0.473958125 0.3125
v -0.75 0.473958125 -0.375
v -1.125 0.473958125 -0.375
v -1.21661125 0.5348237499999999 -0.32084749999999995
v -1.21661125 0.5348237499999999 -0.19584749999999995
v -0.7166112499999999 0.5348237499999999 -0.19584749999999995
v -1.125 0.4375 -0.375
v -0.75 0.4375 -0.375
vt 0.453125 0.421875
vt 0.453125 0.42643203124999995
vt 0.4375 0.42643203124999995
vt 0.4375 0.421875
vt 0.2890625 0.59375
vt 0.2890625 0.5983070312500001
vt 0.2734375 0.5983070312500001
vt 0.2734375 0.59375
vt 0.3515625 0.9140625
vt 0.3515625 0.9296875
vt 0.3359375 0.9296875
vt 0.3359375 0.9140625
vt 0.28125 0.453125
vt 0.28125 0.46875
vt 0.265625 0.46875
vt 0.265625 0.453125
vt 0.1875 0.6640625
vt 0.1875 0.6686195312500001
vt 0.171875 0.6686195312500001
vt 0.171875 0.6640625
vt 0.5234375 0.9453125
vt 0.5234375 0.94986953125
vt 0.5078125 0.94986953125
vt 0.5078125 0.9453125
vt 0.4765625 0.421875
vt 0.4765625 0.4765625
vt 0.4609375 0.4765625
vt 0.4609375 0.421875
vt 0.5234375 0.421875
vt 0.5234375 0.4765625
vt 0.5078125 0.4765625
vt 0.5078125 0.421875
vt 0.1875 0.609375
vt 0.1875 0.6640625
vt 0.171875 0.6640625
vt 0.171875 0.609375
vt 0.2890625 0.5390625
vt 0.2890625 0.59375
vt 0.2734375 0.59375
vt 0.2734375 0.5390625
vt 0.3515625 1
vt 0.3359375 1
vt 0.3359375 0.9296875
vt 0.3515625 0.9296875
vt 0.234375 0.6640625
vt 0.234375 0.6686195312500001
vt 0.1875 0.6686195312500001
vt 0.1875 0.6640625
vt 0.328125 0.703125
vt 0.375 0.703125
vt 0.375 0.71875
vt 0.328125 0.71875
vt 0.578125 0.55078125
vt 0.578125 0.5546875
vt 0.53125 0.5546875
vt 0.53125 0.55078125
vt 0.3515625 0.9140625
vt 0.3984375 0.9140625
vt 0.3984375 0.9296875
vt 0.3515625 0.9296875
vt 0.5078125 0.484375
vt 0.5234375 0.484375
vt 0.5234375 0.5546875
vt 0.5078125 0.5546875
vt 0.2734375 0.59375
vt 0.2734375 0.5983070312500001
vt 0.203125 0.5983070312500001
vt 0.203125 0.59375
vt 0.1640625 0.546875
vt 0.1640625 0.5514320312500001
vt 0.09375 0.5514320312500001
vt 0.09375 0.546875
vt 0.5078125 0.890625
vt 0.5234375 0.890625
vt 0.5234375 0.9453125
vt 0.5078125 0.9453125
vt 0.09375 0.4921875
vt 0.1640625 0.4921875
vt 0.1640625 0.546875
vt 0.09375 0.546875
vt 0.53125 0.9453125
vt 0.546875 0.9453125
vt 0.546875 1
vt 0.53125 1
vt 0.203125 0.5390625
vt 0.2734375 0.5390625
vt 0.2734375 0.59375
vt 0.203125 0.59375
vt 0.453125 0.9453125
vt 0.453125 0.94986953125
vt 0.3671875 0.94986953125
vt 0.3671875 0.9453125
vt 0.484375 0.9296875
vt 0.3984375 0.9296875
vt 0.3984375 0.9140625
vt 0.484375 0.9140625
vt 0.3203125 0.6640625
vt 0.3203125 0.6686195312500001
vt 0.234375 0.6686195312500001
vt 0.234375 0.6640625
vt 0.4609375 0.71875
vt 0.375 0.71875
vt 0.375 0.703125
vt 0.4609375 0.703125
vt 0.453125 1
vt 0.453125 0.94986953125
vt 0.5 0.94986953125
vt 0.5 1
vt 0.09375 0.6015625
vt 0.09375 0.5514320312500001
vt 0.1640625 0.5514320312500001
vt 0.1640625 0.6015625
vt 0.5078125 1
vt 0.5078125 0.94986953125
vt 0.5234375 0.94986953125
vt 0.5234375 1
vt 0.203125 0.6484375
vt 0.203125 0.5983070312500001
vt 0.2734375 0.5983070312500001
vt 0.2734375 0.6484375
vt 0.2734375 0.6484375
vt 0.2734375 0.5983070312500001
vt 0.2890625 0.5983070312500001
vt 0.2890625 0.6484375
vt 0.171875 0.71875
vt 0.171875 0.6686195312500001
vt 0.1875 0.6686195312500001
vt 0.1875 0.71875
vt 0.1875 0.71875
vt 0.1875 0.6686195312500001
vt 0.234375 0.6686195312500001
vt 0.234375 0.71875
vt 0.234375 0.71875
vt 0.234375 0.6686195312500001
vt 0.3203125 0.6686195312500001
vt 0.3203125 0.71875
vt 0.4375 0.4765625
vt 0.4375 0.42643203124999995
vt 0.453125 0.42643203124999995
vt 0.453125 0.4765625
vt 0.3671875 1
vt 0.3671875 0.94986953125
vt 0.453125 0.94986953125
vt 0.453125 1
vt 0.53125 0.921875
vt 0.53125 0.91796875
vt 0.6171875 0.91796875
vt 0.6171875 0.921875
vt 0.21875 0.53125
vt 0.171875 0.53125
vt 0.171875 0.4453125
vt 0.21875 0.4453125
vt 0.6171875 0.90234375
vt 0.6171875 0.90625
vt 0.53125 0.90625
vt 0.53125 0.90234375
vt 0.328125 0.6171875
vt 0.375 0.6171875
vt 0.375 0.703125
vt 0.328125 0.703125
vn 1 0 0
vn -1 0 0
vn 0 1 0
vn 0 -1 0
vn 0 0 1
vn 0 0 -1
vn 0 0 -1
vn 1 0 0
vn 0 0 1
vn -1 0 0
vn 0 1 0
vn 0 0 1
vn 0 -1 0
vn 0 0 -1
vn 0 1 0
vn 0 -1 0
vn -1 0 0
vn 1 0 0
vn 0 0 -1
vn 1 0 0
vn 0 0 1
vn -1 0 0
vn 0 0 -1
vn 0 1 0
vn 0 0 1
vn 0 -1 0
vn 0 0 -1
vn 1 0 0
vn 0 0 -1
vn -1 0 0
vn -1 0 0
vn 0 0 1
vn 0 0 1
vn 0 0 1
vn 1 0 0
vn 0 0 -1
vn -1 0 0
vn 0 1 0
vn 1 0 0
vn 0 -1 0
usemtl m_3df7c33e-ca28-ef17-7a88-f5102d1c89c7
f 25/25/7 45/26/7 44/27/7 26/28/7
f 18/29/8 41/30/8 40/31/8 15/32/8
f 9/33/9 10/34/9 13/35/9 12/36/9
f 30/37/10 11/38/10 14/39/10 31/40/10
f 17/41/11 42/42/11 41/43/11 18/44/11
f 19/45/12 39/46/12 38/47/12 20/48/12
f 31/49/13 15/50/13 16/51/13 30/52/13
f 30/53/14 16/54/14 17/55/14 11/56/14
f 11/57/15 17/58/15 18/59/15 14/60/15
f 14/61/16 18/62/16 15/63/16 31/64/16
f 22/65/17 23/66/17 13/67/17 10/68/17
f 35/69/18 43/70/18 42/71/18 17/72/18
f 16/73/19 32/74/19 35/75/19 17/76/19
f 51/77/20 47/78/20 46/79/20 52/80/20
f 9/81/21 34/82/21 33/83/21 10/84/21
f 28/85/22 29/86/22 30/87/22 31/88/22
f 15/89/23 40/90/23 39/91/23 19/92/23
f 20/93/24 38/94/24 37/95/24 16/96/24
f 29/97/25 28/98/25 19/99/25 20/100/25
f 30/101/26 29/102/26 20/103/26 16/104/26
f 31/105/27 30/106/27 16/107/27 15/108/27
f 28/109/28 31/110/28 15/111/28 19/112/28
f 32/113/29 36/114/29 45/115/29 25/116/29
f 27/117/30 33/118/30 34/119/30 24/120/30
f 26/121/31 44/122/31 43/123/31 35/124/31
f 26/125/32 35/126/32 32/127/32 25/128/32
f 33/129/33 36/130/33 37/131/33 10/132/33
f 10/133/34 37/134/34 38/135/34 22/136/34
f 22/137/35 38/138/35 39/139/35 23/140/35
f 23/141/36 39/142/36 40/143/36 13/144/36
f 13/145/37 40/146/37 41/147/37 12/148/37
f 12/149/38 41/150/38 42/151/38 9/152/38
f 9/153/39 42/154/39 43/155/39 34/156/39
f 34/157/40 43/158/40 44/159/40 24/160/40
f 24/161/41 44/162/41 45/163/41 27/164/41
f 27/165/42 45/166/42 36/167/42 33/168/42
f 47/169/43 51/170/43 16/171/43 37/172/43
f 46/173/44 47/174/44 37/175/44 36/176/44
f 52/177/45 46/178/45 36/179/45 32/180/45
f 51/181/46 52/182/46 32/183/46 16/184/46
o cube
v 1.25 0.875 0.4375
v 1.25 0.875 0.3125
v 1.25 0 0.4375
v 1.25 0 0.3125
v 1.125 0.875 0.4375
v 1.125 0.875 0.3125
v 1.125 0 0.4375
v 1.125 0 0.3125
v 1.125 0.4375 0.3125
v 1.25 0.4375 0.3125
v 1.25 0.4375 0.4375
v 1.125 0.4375 0.4375
v 1.125 0.4375 0.0625
v 1.25 0.4375 0.0625
v 1.13513875 0.508471875 0.42736125
v 1.25 0.875 0.0625
v 1.125 0.875 0.0625
v -0.0625 0.875 0.3125
v -0.0625 0.4375 0.4375
v -0.0625 0.4375 0.3125
v -0.0625 0.875 0.4375
vt 0.4453125 0.90625
vt 0.4453125 0.8515625
vt 0.4609375 0.8515625
vt 0.4609375 0.90625
vt 0.1171875 0.484375
vt 0.1171875 0.4296875
vt 0.1328125 0.4296875
vt 0.1328125 0.484375
vt 0.4609375 0.59375
vt 0.4609375 0.609375
vt 0.4453125 0.609375
vt 0.4453125 0.59375
vt 0.2578125 0.453125
vt 0.2578125 0.46875
vt 0.2421875 0.46875
vt 0.2421875 0.453125
vt 0.1484375 0.71875
vt 0.1484375 0.6640625
vt 0.1640625 0.6640625
vt 0.1640625 0.71875
vt 0.140625 0.484375
vt 0.140625 0.4296875
vt 0.15625 0.4296875
vt 0.15625 0.484375
vt 0.5390625 0.671875
vt 0.5390625 0.7265625
vt 0.5234375 0.7265625
vt 0.5234375 0.671875
vt 0.4609375 0.796875
vt 0.4609375 0.8515625
vt 0.4453125 0.8515625
vt 0.4453125 0.796875
vt 0.1640625 0.609375
vt 0.1640625 0.6640625
vt 0.1484375 0.6640625
vt 0.1484375 0.609375
vt 0.4296875 0.421875
vt 0.4296875 0.4765625
vt 0.4140625 0.4765625
vt 0.4140625 0.421875
vt 0.4921875 0.8515625
vt 0.4921875 0.90625
vt 0.4609375 0.90625
vt 0.4609375 0.8515625
vt 0.1171875 0.6171875
vt 0.1328125 0.6171875
vt 0.1328125 0.6484375
vt 0.1171875 0.6484375
vt 0.4921875 0.8125
vt 0.4921875 0.7578125
vt 0.5234375 0.7578125
vt 0.5234375 0.8125
vt 0.4609375 0.640625
vt 0.4453125 0.640625
vt 0.4453125 0.609375
vt 0.4609375 0.609375
vt 0.484375 0.734375
vt 0.484375 0.7890625
vt 0.3359375 0.7890625
vt 0.3359375 0.734375
vt 0.4765625 0.8359375
vt 0.4765625 0.8203125
vt 0.625 0.8203125
vt 0.625 0.8359375
vt 0 0.71875
vt 0 0.6640625
vt 0.1484375 0.6640625
vt 0.1484375 0.71875
vt 0.296875 0.609375
vt 0.296875 0.59375
vt 0.4453125 0.59375
vt 0.4453125 0.609375
vn 1 0 0
vn -1 0 0
vn 0 1 0
vn 0 -1 0
vn 0 0 1
vn 0 0 -1
vn 0 0 -1
vn 1 0 0
vn 0 0 1
vn -1 0 0
vn 1 0 0
vn 0 -1 0
vn -1 0 0
vn 0 1 0
vn 0 0 -1
vn 0 -1 0
vn 0 0 1
vn 0 1 0
usemtl m_3df7c33e-ca28-ef17-7a88-f5102d1c89c7
f 53/185/47 63/186/47 62/187/47 54/188/47
f 70/189/48 72/190/48 71/191/48 73/192/48
f 53/193/49 54/194/49 58/195/49 57/196/49
f 56/197/50 55/198/50 59/199/50 60/200/50
f 57/201/51 64/202/51 63/203/51 53/204/51
f 68/205/52 66/206/52 65/207/52 69/208/52
f 60/209/53 61/210/53 62/211/53 56/212/53
f 56/213/54 62/214/54 63/215/54 55/216/54
f 55/217/55 63/218/55 64/219/55 59/220/55
f 59/221/56 64/222/56 61/223/56 60/224/56
f 66/225/57 68/226/57 54/227/57 62/228/57
f 65/229/58 66/230/58 62/231/58 61/232/58
f 69/233/59 65/234/59 61/235/59 58/236/59
f 68/237/60 69/238/60 58/239/60 54/240/60
f 72/241/61 70/242/61 58/243/61 61/244/61
f 71/245/62 72/246/62 61/247/62 64/248/62
f 73/249/63 71/250/63 64/251/63 57/252/63
f 70/253/64 73/254/64 57/255/64 58/256/64
o cube
v 1.25 0.875 -0.25
v 1.25 0.875 -0.375
v 1.25 0 -0.25
v 1.25 0 -0.375
v 1.125 0.875 -0.25
v 1.125 0.875 -0.375
v 1.125 0 -0.25
v 1.125 0 -0.375
v 1.25 0.4375 -0.25
v 1.125 0.4375 -0.25
v 1.125 0.4375 -0.375
v 1.25 0.4375 -0.375
v 1.25 0.4375 0.0625
v 1.125 0.4375 0.0625
v 1.13513875 0.508471875 -0.11486125
v 1.125 0.875 0.0625
v 1.25 0.875 0.0625
vt 0.3359375 0.5859375
vt 0.3359375 0.53125
vt 0.3515625 0.53125
vt 0.3515625 0.5859375
vt 0.359375 0.5859375
vt 0.359375 0.53125
vt 0.375 0.53125
vt 0.375 0.5859375
vt 0.1875 0.5859375
vt 0.1875 0.6015625
vt 0.171875 0.6015625
vt 0.171875 0.5859375
vt 0.4296875 0.625
vt 0.4296875 0.640625
vt 0.4140625 0.640625
vt 0.4140625 0.625
vt 0.5 0.7265625
vt 0.5 0.671875
vt 0.515625 0.671875
vt 0.515625 0.7265625
vt 0.484375 0.5546875
vt 0.484375 0.5
vt 0.5 0.5
vt 0.5 0.5546875
vt 0.109375 0.4296875
vt 0.109375 0.484375
vt 0.09375 0.484375
vt 0.09375 0.4296875
vt 0.375 0.4765625
vt 0.375 0.53125
vt 0.359375 0.53125
vt 0.359375 0.4765625
vt 0.5 0.4453125
vt 0.5 0.5
vt 0.484375 0.5
vt 0.484375 0.4453125
vt 0.3515625 0.4765625
vt 0.3515625 0.53125
vt 0.3359375 0.53125
vt 0.3359375 0.4765625
vt 0.4140625 0.53125
vt 0.4140625 0.5859375
vt 0.375 0.5859375
vt 0.375 0.53125
vt 0.109375 0.6484375
vt 0.09375 0.6484375
vt 0.09375 0.609375
vt 0.109375 0.609375
vt 0.296875 0.5859375
vt 0.296875 0.53125
vt 0.3359375 0.53125
vt 0.3359375 0.5859375
vt 0.171875 0.546875
vt 0.1875 0.546875
vt 0.1875 0.5859375
vt 0.171875 0.5859375
vn 1 0 0
vn -1 0 0
vn 0 1 0
vn 0 -1 0
vn 0 0 1
vn 0 0 -1
vn 0 0 1
vn -1 0 0
vn 0 0 -1
vn 1 0 0
vn -1 0 0
vn 0 -1 0
vn 1 0 0
vn 0 1 0
usemtl m_3df7c33e-ca28-ef17-7a88-f5102d1c89c7
f 74/257/65 82/258/65 85/259/65 75/260/65
f 79/261/66 84/262/66 83/263/66 78/264/66
f 74/265/67 75/266/67 79/267/67 78/268/67
f 77/269/68 76/270/68 80/271/68 81/272/68
f 89/273/69 87/274/69 86/275/69 90/276/69
f 75/277/70 85/278/70 84/279/70 79/280/70
f 76/281/71 82/282/71 83/283/71 80/284/71
f 80/285/72 83/286/72 84/287/72 81/288/72
f 81/289/73 84/290/73 85/291/73 77/292/73
f 77/293/74 85/294/74 82/295/74 76/296/74
f 87/297/75 89/298/75 78/299/75 83/300/75
f 86/301/76 87/302/76 83/303/76 82/304/76
f 90/305/77 86/306/77 82/307/77 74/308/77
f 89/309/78 90/310/78 74/311/78 78/312/78
o cube
v 1.3125 0.96875 0.5625
v 1.3125 0.96875 -0.5
v 1.3125 0.875 0.5625
v 1.3125 0.875 -0.5
v -1.3125 0.96875 -0.5
v -1.3125 0.96875 0.5625
v -1.3125 0.875 -0.5
v -1.3125 0.875 0.5625
vt 0.390625 0.6640625
vt 0.71875 0.6640625
vt 0.71875 0.65234375
vt 0.390625 0.65234375
vt 0.4921875 0.75
vt 0.625 0.75
vt 0.625 0.73828125
vt 0.4921875 0.73828125
vt 0.46875 0.640625
vt 0.796875 0.640625
vt 0.796875 0.62890625
vt 0.46875 0.62890625
vt 0.5 0.8828125
vt 0.6328125 0.8828125
vt 0.6328125 0.87109375
vt 0.5 0.87109375
vt 0.328125 0.8671875
vt 0 0.8671875
vt 0 1
vt 0.328125 1
vt 0.328125 0.859375
vt 0 0.859375
vt 0 0.7265625
vt 0.328125 0.7265625
vn 0 0 -1
vn 1 0 0
vn 0 0 1
vn -1 0 0
vn 0 1 0
vn 0 -1 0
usemtl m_3df7c33e-ca28-ef17-7a88-f5102d1c89c7
f 94/316/79 97/315/79 95/314/79 92/313/79
f 93/320/80 94/319/80 92/318/80 91/317/80
f 98/324/81 93/323/81 91/322/81 96/321/81
f 97/328/82 98/327/82 96/326/82 95/325/82
f 96/332/83 91/331/83 92/330/83 95/329/83
f 97/336/84 94/335/84 93/334/84 98/333/84
o cube
v -0.6875 0.875 0.3125
v -0.6875 0.875 -0.375
v -0.6875 0 0.3125
v -0.6875 0 -0.375
v -0.75 0.875 0.3125
v -0.75 0.875 -0.375
v -0.75 0 0.3125
v -0.6875 0.4375 0.3125
v -0.75 0.4375 0.3125
v -0.75 0.4375 -0.375
v -0.6875 0.4375 -0.375
v -0.6875 0 0.4375
v -0.6875 0.4375 0.4375
v -0.75 0.4375 0.4375
v -0.75 0 0.4375
v -1.125 0 0.4375
v -1.125 0.4375 0.4375
v -1.125 0.4375 0.3125
v -1.125 0 0.3125
v -0.75 0.036458125 0.3125
v -0.6875 0.036458125 -0.375
v -0.6875 0.036458125 0.3125
v -0.6875 0.036458125 0.4375
v -0.75 0.036458125 0.4375
v -1.125 0.036458125 0.4375
v -1.125 0.036458125 0.3125
v -1.125 0 -0.375
v -1.125 0.036458125 -0.375
v -0.75 0.036458125 -0.375
v -0.75 0 -0.375
vt 0.3515625 0.90625
vt 0.3515625 0.8515625
vt 0.4375 0.8515625
vt 0.4375 0.90625
vt 0 0.6484375
vt 0 0.59375
vt 0.0859375 0.59375
vt 0.0859375 0.6484375
vt 0.234375 0.3828125
vt 0.234375 0.46875
vt 0.2265625 0.46875
vt 0.2265625 0.3828125
vt 0.4765625 0.484375
vt 0.4765625 0.5703125
vt 0.46875 0.5703125
vt 0.46875 0.484375
vt 0.53125 0.8125
vt 0.53125 0.7578125
vt 0.5390625 0.7578125
vt 0.5390625 0.8125
vt 0.078125 0.53125
vt 0.078125 0.4765625
vt 0.0859375 0.4765625
vt 0.0859375 0.53125
vt 0.2734375 0.53125
vt 0.2734375 0.48111953124999995
vt 0.28125 0.48111953124999995
vt 0.28125 0.53125
vt 0 0.59375
vt 0 0.5436195312500001
vt 0.0859375 0.5436195312500001
vt 0.0859375 0.59375
vt 0.078125 0.4765625
vt 0.078125 0.42643203124999995
vt 0.0859375 0.42643203124999995
vt 0.0859375 0.4765625
vt 0.3515625 0.8515625
vt 0.3515625 0.8014320312500001
vt 0.4375 0.8014320312500001
vt 0.4375 0.8515625
vt 0.3359375 0.8515625
vt 0.3359375 0.8014320312500001
vt 0.3515625 0.8014320312500001
vt 0.3515625 0.8515625
vt 0.546875 0.84375
vt 0.5546875 0.84375
vt 0.5546875 0.859375
vt 0.546875 0.859375
vt 0.4765625 0.7265625
vt 0.4765625 0.6764320312500001
vt 0.4921875 0.6764320312500001
vt 0.4921875 0.7265625
vt 0.4765625 0.5859375
vt 0.46875 0.5859375
vt 0.46875 0.5703125
vt 0.4765625 0.5703125
vt 0.2265625 0.53125
vt 0.2265625 0.48111953124999995
vt 0.2734375 0.48111953124999995
vt 0.2734375 0.53125
vt 0.5 0.859375
vt 0.5 0.84375
vt 0.546875 0.84375
vt 0.546875 0.859375
vt 0.484375 0.6171875
vt 0.484375 0.56640625
vt 0.53125 0.56640625
vt 0.53125 0.6171875
vt 0.421875 0.5859375
vt 0.421875 0.5703125
vt 0.46875 0.5703125
vt 0.46875 0.5859375
vt 0.0859375 0.5390625
vt 0.0859375 0.5436195312500001
vt 0 0.5436195312500001
vt 0 0.5390625
vt 0.0859375 0.421875
vt 0.0859375 0.42643203124999995
vt 0.078125 0.42643203124999995
vt 0.078125 0.421875
vt 0.4375 0.796875
vt 0.4375 0.8014320312500001
vt 0.3515625 0.8014320312500001
vt 0.3515625 0.796875
vt 0.3515625 0.796875
vt 0.3515625 0.8014320312500001
vt 0.3359375 0.8014320312500001
vt 0.3359375 0.796875
vt 0.28125 0.4765625
vt 0.28125 0.48111953124999995
vt 0.2734375 0.48111953124999995
vt 0.2734375 0.4765625
vt 0.2734375 0.4765625
vt 0.2734375 0.48111953124999995
vt 0.2265625 0.48111953124999995
vt 0.2265625 0.4765625
vt 0.4921875 0.671875
vt 0.4921875 0.6764320312500001
vt 0.4765625 0.6764320312500001
vt 0.4765625 0.671875
vt 0.3828125 0.46484375
vt 0.3828125 0.46875
vt 0.3359375 0.46875
vt 0.3359375 0.46484375
vt 0.390625 0.6764320312500001
vt 0.390625 0.671875
vt 0.4765625 0.671875
vt 0.4765625 0.6764320312500001
vt 0.046875 0.53125
vt 0 0.53125
vt 0 0.4453125
vt 0.046875 0.4453125
vt 0.6171875 0.93359375
vt 0.6171875 0.9375
vt 0.53125 0.9375
vt 0.53125 0.93359375
vt 0.421875 0.484375
vt 0.46875 0.484375
vt 0.46875 0.5703125
vt 0.421875 0.5703125
vn 1 0 0
vn -1 0 0
vn 0 1 0
vn 0 -1 0
vn 0 0 1
vn 0 0 -1
vn 0 0 1
vn -1 0 0
vn 0 0 -1
vn 1 0 0
vn 1 0 0
vn 0 1 0
vn -1 0 0
vn 0 -1 0
vn 0 0 1
vn 0 1 0
vn 0 0 -1
vn 0 -1 0
vn -1 0 0
vn 0 0 -1
vn 1 0 0
vn 1 0 0
vn 0 0 1
vn 0 0 1
vn -1 0 0
vn 0 0 -1
vn -1 0 0
vn 0 1 0
vn 1 0 0
vn 0 -1 0
usemtl m_3df7c33e-ca28-ef17-7a88-f5102d1c89c7
f 99/337/85 106/338/85 109/339/85 100/340/85
f 104/341/86 108/342/86 107/343/86 103/344/86
f 99/345/87 100/346/87 104/347/87 103/348/87
f 102/349/88 101/350/88 105/351/88 128/352/88
f 103/353/89 107/354/89 106/355/89 99/356/89
f 100/357/90 109/358/90 108/359/90 104/360/90
f 112/361/91 122/362/91 121/363/91 111/364/91
f 108/365/92 127/366/92 118/367/92 107/368/92
f 109/369/93 119/370/93 127/371/93 108/372/93
f 106/373/94 120/374/94 119/375/94 109/376/94
f 111/377/95 121/378/95 120/379/95 106/380/95
f 112/381/96 111/382/96 106/383/96 107/384/96
f 116/385/97 124/386/97 123/387/97 115/388/97
f 110/389/98 113/390/98 105/391/98 101/392/98
f 115/393/99 123/394/99 122/395/99 112/396/99
f 116/397/100 115/398/100 112/399/100 107/400/100
f 107/401/101 118/402/101 124/403/101 116/404/101
f 114/405/102 117/406/102 105/407/102 113/408/102
f 105/409/103 118/410/103 127/411/103 128/412/103
f 128/413/104 127/414/104 119/415/104 102/416/104
f 102/417/105 119/418/105 120/419/105 101/420/105
f 101/421/106 120/422/106 121/423/106 110/424/106
f 110/425/107 121/426/107 122/427/107 113/428/107
f 113/429/108 122/430/108 123/431/108 114/432/108
f 114/433/109 123/434/109 124/435/109 117/436/109
f 125/437/110 126/438/110 127/439/110 128/440/110
f 126/441/111 125/442/111 117/443/111 124/444/111
f 127/445/112 126/446/112 124/447/112 118/448/112
f 128/449/113 127/450/113 118/451/113 105/452/113
f 125/453/114 128/454/114 105/455/114 117/456/114