# Made in Blockbench 5.1.6
mtllib chest.mtl

o cube
v 0.625 0.5 0.375
v 0.625 0.5 -0.375
v 0.625 0 0.375
v 0.625 0 -0.375
v -0.625 0.5 0.375
v -0.625 0.5 -0.375
v -0.625 0 0.375
v -0.625 0 -0.375
vt 0.1875 0.328125
vt 0.1875 0.453125
vt 0 0.453125
vt 0 0.328125
vt 0 1
vt 0 0.8125
vt 0.3125 0.8125
vt 0.3125 1
vt 0 0.609375
vt 0 0.796875
vt 0.3125 0.796875
vt 0.3125 0.609375
vt 0.3125 0.46875
vt 0.3125 0.59375
vt 0 0.59375
vt 0 0.46875
vt 0.390625 0.328125
vt 0.390625 0.453125
vt 0.203125 0.453125
vt 0.203125 0.328125
vt 0.640625 0.46875
vt 0.640625 0.59375
vt 0.328125 0.59375
vt 0.328125 0.46875
vn 1 0 0
vn 0 1 0
vn 0 -1 0
vn 0 0 -1
vn -1 0 0
vn 0 0 1
usemtl m_754732fa-c251-1540-088c-8cf2d347e721
f 4/1/1 2/2/1 1/3/1 3/4/1
f 1/5/2 2/6/2 6/7/2 5/8/2
f 4/9/3 3/10/3 7/11/3 8/12/3
f 8/13/4 6/14/4 2/15/4 4/16/4
f 7/17/5 5/18/5 6/19/5 8/20/5
f 3/21/6 1/22/6 5/23/6 7/24/6
o cube
v 0.0624375 0.48743749999999997 -0.37506249999999997
v 0.0624375 0.48743749999999997 -0.39368749999999997
v 0.0624375 0.3750625 -0.37506249999999997
v 0.0624375 0.3750625 -0.39368749999999997
v -0.0624375 0.48743749999999997 -0.37506249999999997
v -0.0624375 0.48743749999999997 -0.39368749999999997
v -0.0624375 0.3750625 -0.37506249999999997
v -0.0624375 0.3750625 -0.39368749999999997
vt 0.51953125 0.28515625
vt 0.51953125 0.3125
vt 0.515625 0.3125
vt 0.515625 0.28515625
vt 0.55078125 0.28515625
vt 0.55078125 0.3125
vt 0.546875 0.3125
vt 0.546875 0.28515625
vt 0.140625 0.3125
vt 0.140625 0.30859375
vt 0.171875 0.30859375
vt 0.171875 0.3125
vt 0.1875 0.30859375
vt 0.1875 0.3125
vt 0.21875 0.3125
vt 0.21875 0.30859375
vt 0.6875 0.92578125
vt 0.6875 0.953125
vt 0.65625 0.953125
vt 0.65625 0.92578125
vt 0.6875 0.97265625
vt 0.6875 1
vt 0.65625 1
vt 0.65625 0.97265625
vn 1 0 0
vn -1 0 0
vn 0 1 0
vn 0 -1 0
vn 0 0 1
vn 0 0 -1
usemtl m_754732fa-c251-1540-088c-8cf2d347e721
f 12/25/7 10/26/7 9/27/7 11/28/7
f 15/29/8 13/30/8 14/31/8 16/32/8
f 9/33/9 10/34/9 14/35/9 13/36/9
f 12/37/10 11/38/10 15/39/10 16/40/10
f 11/41/11 9/42/11 13/43/11 15/44/11
f 16/45/12 14/46/12 10/47/12 12/48/12
o cube
v -0.3750625 0.49993750000000003 0.3874375
v -0.3750625 0.49993750000000003 0.3750625
v -0.3750625 0.41881250000000003 0.3874375
v -0.3750625 0.41881250000000003 0.3750625
v -0.4999375 0.49993750000000003 0.3874375
v -0.4999375 0.49993750000000003 0.3750625
v -0.4999375 0.41881250000000003 0.3874375
v -0.4999375 0.41881250000000003 0.3750625
vt 0.64453125 0.29296875
vt 0.64453125 0.3125
vt 0.640625 0.3125
vt 0.640625 0.29296875
vt 0.67578125 0.29296875
vt 0.67578125 0.3125
vt 0.671875 0.3125
vt 0.671875 0.29296875
vt 0.046875 0.3125
vt 0.046875 0.30859375
vt 0.078125 0.30859375
vt 0.078125 0.3125
vt 0.09375 0.30859375
vt 0.09375 0.3125
vt 0.125 0.3125
vt 0.125 0.30859375
vt 0.6875 0.74609375
vt 0.6875 0.765625
vt 0.65625 0.765625
vt 0.65625 0.74609375
vt 0.6875 0.79296875
vt 0.6875 0.8125
vt 0.65625 0.8125
vt 0.65625 0.79296875
vn 1 0 0
vn -1 0 0
vn 0 1 0
vn 0 -1 0
vn 0 0 1
vn 0 0 -1
usemtl m_754732fa-c251-1540-088c-8cf2d347e721
f 20/49/13 18/50/13 17/51/13 19/52/13
f 23/53/14 21/54/14 22/55/14 24/56/14
f 17/57/15 18/58/15 22/59/15 21/60/15
f 20/61/16 19/62/16 23/63/16 24/64/16
f 19/65/17 17/66/17 21/67/17 23/68/17
f 24/69/18 22/70/18 18/71/18 20/72/18
o cube
v 0.4999375 0.49993750000000003 0.3874375
v 0.4999375 0.49993750000000003 0.3750625
v 0.4999375 0.41881250000000003 0.3874375
v 0.4999375 0.41881250000000003 0.3750625
v 0.3750625 0.49993750000000003 0.3874375
v 0.3750625 0.49993750000000003 0.3750625
v 0.3750625 0.41881250000000003 0.3874375
v 0.3750625 0.41881250000000003 0.3750625
vt 0.58203125 0.29296875
vt 0.58203125 0.3125
vt 0.578125 0.3125
vt 0.578125 0.29296875
vt 0.61328125 0.29296875
vt 0.61328125 0.3125
vt 0.609375 0.3125
vt 0.609375 0.29296875
vt 0.65625 0.5
vt 0.65625 0.49609375
vt 0.6875 0.49609375
vt 0.6875 0.5
vt 0 0.30859375
vt 0 0.3125
vt 0.03125 0.3125
vt 0.03125 0.30859375
vt 0.6875 0.83984375
vt 0.6875 0.859375
vt 0.65625 0.859375
vt 0.65625 0.83984375
vt 0.6875 0.88671875
vt 0.6875 0.90625
vt 0.65625 0.90625
vt 0.65625 0.88671875
vn 1 0 0
vn -1 0 0
vn 0 1 0
vn 0 -1 0
vn 0 0 1
vn 0 0 -1
usemtl m_754732fa-c251-1540-088c-8cf2d347e721
f 28/73/19 26/74/19 25/75/19 27/76/19
f 31/77/20 29/78/20 30/79/20 32/80/20
f 25/81/21 26/82/21 30/83/21 29/84/21
f 28/85/22 27/86/22 31/87/22 32/88/22
f 27/89/23 25/90/23 29/91/23 31/92/23
f 32/93/24 30/94/24 26/95/24 28/96/24
o cube
v 0.0625 0.56875 -0.375
v 0.0625 0.56875 -0.39375000000000004
v 0.0625 0.48749999999999993 -0.375
v 0.0625 0.48749999999999993 -0.39375000000000004
v -0.0625 0.56875 -0.39375000000000004
v -0.0625 0.56875 -0.375
v -0.0625 0.48749999999999993 -0.39375000000000004
v -0.0625 0.48749999999999993 -0.375
vt 0.65625 0.71875
vt 0.6875 0.71875
vt 0.6875 0.69921875
vt 0.65625 0.69921875
vt 0.703125 1
vt 0.70703125 1
vt 0.70703125 0.98046875
vt 0.703125 0.98046875
vt 0.65625 0.671875
vt 0.6875 0.671875
vt 0.6875 0.65234375
vt 0.65625 0.65234375
vt 0.703125 0.953125
vt 0.70703125 0.953125
vt 0.70703125 0.93359375
vt 0.703125 0.93359375
vt 0.453125 0.30859375
vt 0.421875 0.30859375
vt 0.421875 0.3125
vt 0.453125 0.3125
vt 0.5 0.3125
vt 0.46875 0.3125
vt 0.46875 0.30859375
vt 0.5 0.30859375
vn 0 0 -1
vn 1 0 0
vn 0 0 1
vn -1 0 0
vn 0 1 0
vn 0 -1 0
usemtl m_754732fa-c251-1540-088c-8cf2d347e721
f 36/100/25 39/99/25 37/98/25 34/97/25
f 35/104/26 36/103/26 34/102/26 33/101/26
f 40/108/27 35/107/27 33/106/27 38/105/27
f 39/112/28 40/111/28 38/110/28 37/109/28
f 38/116/29 33/115/29 34/114/29 37/113/29
f 39/120/30 36/119/30 35/118/30 40/117/30
o cube
v -0.375 0.5687500000000001 0.38749999999999996
v -0.375 0.5687500000000001 0.375
v -0.375 0.5 0.38749999999999996
v -0.375 0.5 0.375
v -0.5 0.5687500000000001 0.375
v -0.5 0.5687500000000001 0.38749999999999996
v -0.5 0.5 0.375
v -0.5 0.5 0.38749999999999996
vt 0.65625 0.5625
vt 0.6875 0.5625
vt 0.6875 0.546875
vt 0.65625 0.546875
vt 0.703125 0.84375
vt 0.70703125 0.84375
vt 0.70703125 0.828125
vt 0.703125 0.828125
vt 0.65625 0.53125
vt 0.6875 0.53125
vt 0.6875 0.515625
vt 0.65625 0.515625
vt 0.703125 0.8125
vt 0.70703125 0.8125
vt 0.70703125 0.796875
vt 0.703125 0.796875
vt 0.359375 0.30859375
vt 0.328125 0.30859375
vt 0.328125 0.3125
vt 0.359375 0.3125
vt 0.40625 0.3125
vt 0.375 0.3125
vt 0.375 0.30859375
vt 0.40625 0.30859375
vn 0 0 -1
vn 1 0 0
vn 0 0 1
vn -1 0 0
vn 0 1 0
vn 0 -1 0
usemtl m_754732fa-c251-1540-088c-8cf2d347e721
f 44/124/31 47/123/31 45/122/31 42/121/31
f 43/128/32 44/127/32 42/126/32 41/125/32
f 48/132/33 43/131/33 41/130/33 46/129/33
f 47/136/34 48/135/34 46/134/34 45/133/34
f 46/140/35 41/139/35 42/138/35 45/137/35
f 47/144/36 44/143/36 43/142/36 48/141/36
o cube
v 0.5 0.5687500000000001 0.38749999999999996
v 0.5 0.5687500000000001 0.375
v 0.5 0.5 0.38749999999999996
v 0.5 0.5 0.375
v 0.375 0.5687500000000001 0.375
v 0.375 0.5687500000000001 0.38749999999999996
v 0.375 0.5 0.375
v 0.375 0.5 0.38749999999999996
vt 0.65625 0.625
vt 0.6875 0.625
vt 0.6875 0.609375
vt 0.65625 0.609375
vt 0.703125 0.90625
vt 0.70703125 0.90625
vt 0.70703125 0.890625
vt 0.703125 0.890625
vt 0.65625 0.59375
vt 0.6875 0.59375
vt 0.6875 0.578125
vt 0.65625 0.578125
vt 0.703125 0.875
vt 0.70703125 0.875
vt 0.70703125 0.859375
vt 0.703125 0.859375
vt 0.265625 0.30859375
vt 0.234375 0.30859375
vt 0.234375 0.3125
vt 0.265625 0.3125
vt 0.3125 0.3125
vt 0.28125 0.3125
vt 0.28125 0.30859375
vt 0.3125 0.30859375
vn 0 0 -1
vn 1 0 0
vn 0 0 1
vn -1 0 0
vn 0 1 0
vn 0 -1 0
usemtl m_754732fa-c251-1540-088c-8cf2d347e721
f 52/148/37 55/147/37 53/146/37 50/145/37
f 51/152/38 52/151/38 50/150/38 49/149/38
f 56/156/39 51/155/39 49/154/39 54/153/39
f 55/160/40 56/159/40 54/158/40 53/157/40
f 54/164/41 49/163/41 50/162/41 53/161/41
f 55/168/42 52/167/42 51/166/42 56/165/42
o cube
v 0.625 0.625 0.375
v 0.625 0.625 -0.375
v 0.625 0.5 0.375
v 0.625 0.5 -0.375
v -0.625 0.625 -0.375
v -0.625 0.625 0.375
v -0.625 0.5 -0.375
v -0.625 0.5 0.375
vt 0.40625 0.453125
vt 0.71875 0.453125
vt 0.71875 0.421875
vt 0.40625 0.421875
vt 0.40625 0.359375
vt 0.59375 0.359375
vt 0.59375 0.328125
vt 0.40625 0.328125
vt 0.40625 0.40625
vt 0.71875 0.40625
vt 0.71875 0.375
vt 0.40625 0.375
vt 0.609375 0.359375
vt 0.796875 0.359375
vt 0.796875 0.328125
vt 0.609375 0.328125
vt 0.640625 0.8125
vt 0.328125 0.8125
vt 0.328125 1
vt 0.640625 1
vt 0.640625 0.796875
vt 0.328125 0.796875
vt 0.328125 0.609375
vt 0.640625 0.609375
vn 0 0 -1
vn 1 0 0
vn 0 0 1
vn -1 0 0
vn 0 1 0
vn 0 -1 0
usemtl m_754732fa-c251-1540-088c-8cf2d347e721
f 60/172/43 63/171/43 61/170/43 58/169/43
f 59/176/44 60/175/44 58/174/44 57/173/44
f 64/180/45 59/179/45 57/178/45 62/177/45
f 63/184/46 64/183/46 62/182/46 61/181/46
f 62/188/47 57/187/47 58/186/47 61/185/47
f 63/192/48 60/191/48 59/190/48 64/189/48